<?xml version="1.0" encoding="utf-8" standalone="no"?>
<!DOCTYPE svg PUBLIC "-//W3C//DTD SVG 1.1//EN"
  "http://www.w3.org/Graphics/SVG/1.1/DTD/svg11.dtd">
<svg height="184.455469pt" version="1.1" viewBox="0 0 238.965625 184.455469" width="238.965625pt" xmlns="http://www.w3.org/2000/svg" xmlns:xlink="http://www.w3.org/1999/xlink">
 <metadata>
  <rdf:RDF xmlns:cc="http://creativecommons.org/ns#" xmlns:dc="http://purl.org/dc/elements/1.1/" xmlns:rdf="http://www.w3.org/1999/02/22-rdf-syntax-ns#">
   <cc:Work>
    <dc:type rdf:resource="http://purl.org/dc/dcmitype/StillImage"/>
    <dc:date>2022-03-26T07:35:50.076837</dc:date>
    <dc:format>image/svg+xml</dc:format>
    <dc:creator>
     <cc:Agent>
      <dc:title>Matplotlib v3.4.0, https://matplotlib.org/</dc:title>
     </cc:Agent>
    </dc:creator>
   </cc:Work>
  </rdf:RDF>
 </metadata>
 <defs>
  <style type="text/css">*{stroke-linecap:butt;stroke-linejoin:round;}</style>
 </defs>
 <g id="figure_1">
  <g id="patch_1">
   <path d="M 0 184.455469 
L 238.965625 184.455469 
L 238.965625 0 
L 0 0 
z
" style="fill:none;"/>
  </g>
  <g id="axes_1">
   <g id="patch_2">
    <path d="M 30.103125 146.899219 
L 225.403125 146.899219 
L 225.403125 10.999219 
L 30.103125 10.999219 
z
" style="fill:#ffffff;"/>
   </g>
   <g id="matplotlib.axis_1">
    <g id="xtick_1">
     <g id="line2d_1">
      <path clip-path="url(#p825987e5ac)" d="M 65.974554 146.899219 
L 65.974554 10.999219 
" style="fill:none;stroke:#b0b0b0;stroke-linecap:square;stroke-width:0.8;"/>
     </g>
     <g id="line2d_2">
      <defs>
       <path d="M 0 0 
L 0 3.5 
" id="mcd45d8646a" style="stroke:#000000;stroke-width:0.8;"/>
      </defs>
      <g>
       <use style="stroke:#000000;stroke-width:0.8;" x="65.974554" xlink:href="#mcd45d8646a" y="146.899219"/>
      </g>
     </g>
     <g id="text_1">
      <!-- 10 -->
      <g transform="translate(59.612054 161.497656)scale(0.1 -0.1)">
       <defs>
        <path d="M 794 531 
L 1825 531 
L 1825 4091 
L 703 3866 
L 703 4441 
L 1819 4666 
L 2450 4666 
L 2450 531 
L 3481 531 
L 3481 0 
L 794 0 
L 794 531 
z
" id="DejaVuSans-31" transform="scale(0.015625)"/>
        <path d="M 2034 4250 
Q 1547 4250 1301 3770 
Q 1056 3291 1056 2328 
Q 1056 1369 1301 889 
Q 1547 409 2034 409 
Q 2525 409 2770 889 
Q 3016 1369 3016 2328 
Q 3016 3291 2770 3770 
Q 2525 4250 2034 4250 
z
M 2034 4750 
Q 2819 4750 3233 4129 
Q 3647 3509 3647 2328 
Q 3647 1150 3233 529 
Q 2819 -91 2034 -91 
Q 1250 -91 836 529 
Q 422 1150 422 2328 
Q 422 3509 836 4129 
Q 1250 4750 2034 4750 
z
" id="DejaVuSans-30" transform="scale(0.015625)"/>
       </defs>
       <use xlink:href="#DejaVuSans-31"/>
       <use x="63.623047" xlink:href="#DejaVuSans-30"/>
      </g>
     </g>
    </g>
    <g id="xtick_2">
     <g id="line2d_3">
      <path clip-path="url(#p825987e5ac)" d="M 105.831696 146.899219 
L 105.831696 10.999219 
" style="fill:none;stroke:#b0b0b0;stroke-linecap:square;stroke-width:0.8;"/>
     </g>
     <g id="line2d_4">
      <g>
       <use style="stroke:#000000;stroke-width:0.8;" x="105.831696" xlink:href="#mcd45d8646a" y="146.899219"/>
      </g>
     </g>
     <g id="text_2">
      <!-- 20 -->
      <g transform="translate(99.469196 161.497656)scale(0.1 -0.1)">
       <defs>
        <path d="M 1228 531 
L 3431 531 
L 3431 0 
L 469 0 
L 469 531 
Q 828 903 1448 1529 
Q 2069 2156 2228 2338 
Q 2531 2678 2651 2914 
Q 2772 3150 2772 3378 
Q 2772 3750 2511 3984 
Q 2250 4219 1831 4219 
Q 1534 4219 1204 4116 
Q 875 4013 500 3803 
L 500 4441 
Q 881 4594 1212 4672 
Q 1544 4750 1819 4750 
Q 2544 4750 2975 4387 
Q 3406 4025 3406 3419 
Q 3406 3131 3298 2873 
Q 3191 2616 2906 2266 
Q 2828 2175 2409 1742 
Q 1991 1309 1228 531 
z
" id="DejaVuSans-32" transform="scale(0.015625)"/>
       </defs>
       <use xlink:href="#DejaVuSans-32"/>
       <use x="63.623047" xlink:href="#DejaVuSans-30"/>
      </g>
     </g>
    </g>
    <g id="xtick_3">
     <g id="line2d_5">
      <path clip-path="url(#p825987e5ac)" d="M 145.688839 146.899219 
L 145.688839 10.999219 
" style="fill:none;stroke:#b0b0b0;stroke-linecap:square;stroke-width:0.8;"/>
     </g>
     <g id="line2d_6">
      <g>
       <use style="stroke:#000000;stroke-width:0.8;" x="145.688839" xlink:href="#mcd45d8646a" y="146.899219"/>
      </g>
     </g>
     <g id="text_3">
      <!-- 30 -->
      <g transform="translate(139.326339 161.497656)scale(0.1 -0.1)">
       <defs>
        <path d="M 2597 2516 
Q 3050 2419 3304 2112 
Q 3559 1806 3559 1356 
Q 3559 666 3084 287 
Q 2609 -91 1734 -91 
Q 1441 -91 1130 -33 
Q 819 25 488 141 
L 488 750 
Q 750 597 1062 519 
Q 1375 441 1716 441 
Q 2309 441 2620 675 
Q 2931 909 2931 1356 
Q 2931 1769 2642 2001 
Q 2353 2234 1838 2234 
L 1294 2234 
L 1294 2753 
L 1863 2753 
Q 2328 2753 2575 2939 
Q 2822 3125 2822 3475 
Q 2822 3834 2567 4026 
Q 2313 4219 1838 4219 
Q 1578 4219 1281 4162 
Q 984 4106 628 3988 
L 628 4550 
Q 988 4650 1302 4700 
Q 1616 4750 1894 4750 
Q 2613 4750 3031 4423 
Q 3450 4097 3450 3541 
Q 3450 3153 3228 2886 
Q 3006 2619 2597 2516 
z
" id="DejaVuSans-33" transform="scale(0.015625)"/>
       </defs>
       <use xlink:href="#DejaVuSans-33"/>
       <use x="63.623047" xlink:href="#DejaVuSans-30"/>
      </g>
     </g>
    </g>
    <g id="xtick_4">
     <g id="line2d_7">
      <path clip-path="url(#p825987e5ac)" d="M 185.545982 146.899219 
L 185.545982 10.999219 
" style="fill:none;stroke:#b0b0b0;stroke-linecap:square;stroke-width:0.8;"/>
     </g>
     <g id="line2d_8">
      <g>
       <use style="stroke:#000000;stroke-width:0.8;" x="185.545982" xlink:href="#mcd45d8646a" y="146.899219"/>
      </g>
     </g>
     <g id="text_4">
      <!-- 40 -->
      <g transform="translate(179.183482 161.497656)scale(0.1 -0.1)">
       <defs>
        <path d="M 2419 4116 
L 825 1625 
L 2419 1625 
L 2419 4116 
z
M 2253 4666 
L 3047 4666 
L 3047 1625 
L 3713 1625 
L 3713 1100 
L 3047 1100 
L 3047 0 
L 2419 0 
L 2419 1100 
L 313 1100 
L 313 1709 
L 2253 4666 
z
" id="DejaVuSans-34" transform="scale(0.015625)"/>
       </defs>
       <use xlink:href="#DejaVuSans-34"/>
       <use x="63.623047" xlink:href="#DejaVuSans-30"/>
      </g>
     </g>
    </g>
    <g id="xtick_5">
     <g id="line2d_9">
      <path clip-path="url(#p825987e5ac)" d="M 225.403125 146.899219 
L 225.403125 10.999219 
" style="fill:none;stroke:#b0b0b0;stroke-linecap:square;stroke-width:0.8;"/>
     </g>
     <g id="line2d_10">
      <g>
       <use style="stroke:#000000;stroke-width:0.8;" x="225.403125" xlink:href="#mcd45d8646a" y="146.899219"/>
      </g>
     </g>
     <g id="text_5">
      <!-- 50 -->
      <g transform="translate(219.040625 161.497656)scale(0.1 -0.1)">
       <defs>
        <path d="M 691 4666 
L 3169 4666 
L 3169 4134 
L 1269 4134 
L 1269 2991 
Q 1406 3038 1543 3061 
Q 1681 3084 1819 3084 
Q 2600 3084 3056 2656 
Q 3513 2228 3513 1497 
Q 3513 744 3044 326 
Q 2575 -91 1722 -91 
Q 1428 -91 1123 -41 
Q 819 9 494 109 
L 494 744 
Q 775 591 1075 516 
Q 1375 441 1709 441 
Q 2250 441 2565 725 
Q 2881 1009 2881 1497 
Q 2881 1984 2565 2268 
Q 2250 2553 1709 2553 
Q 1456 2553 1204 2497 
Q 953 2441 691 2322 
L 691 4666 
z
" id="DejaVuSans-35" transform="scale(0.015625)"/>
       </defs>
       <use xlink:href="#DejaVuSans-35"/>
       <use x="63.623047" xlink:href="#DejaVuSans-30"/>
      </g>
     </g>
    </g>
    <g id="text_6">
     <!-- epoch -->
     <g transform="translate(112.525 175.175781)scale(0.1 -0.1)">
      <defs>
       <path d="M 3597 1894 
L 3597 1613 
L 953 1613 
Q 991 1019 1311 708 
Q 1631 397 2203 397 
Q 2534 397 2845 478 
Q 3156 559 3463 722 
L 3463 178 
Q 3153 47 2828 -22 
Q 2503 -91 2169 -91 
Q 1331 -91 842 396 
Q 353 884 353 1716 
Q 353 2575 817 3079 
Q 1281 3584 2069 3584 
Q 2775 3584 3186 3129 
Q 3597 2675 3597 1894 
z
M 3022 2063 
Q 3016 2534 2758 2815 
Q 2500 3097 2075 3097 
Q 1594 3097 1305 2825 
Q 1016 2553 972 2059 
L 3022 2063 
z
" id="DejaVuSans-65" transform="scale(0.015625)"/>
       <path d="M 1159 525 
L 1159 -1331 
L 581 -1331 
L 581 3500 
L 1159 3500 
L 1159 2969 
Q 1341 3281 1617 3432 
Q 1894 3584 2278 3584 
Q 2916 3584 3314 3078 
Q 3713 2572 3713 1747 
Q 3713 922 3314 415 
Q 2916 -91 2278 -91 
Q 1894 -91 1617 61 
Q 1341 213 1159 525 
z
M 3116 1747 
Q 3116 2381 2855 2742 
Q 2594 3103 2138 3103 
Q 1681 3103 1420 2742 
Q 1159 2381 1159 1747 
Q 1159 1113 1420 752 
Q 1681 391 2138 391 
Q 2594 391 2855 752 
Q 3116 1113 3116 1747 
z
" id="DejaVuSans-70" transform="scale(0.015625)"/>
       <path d="M 1959 3097 
Q 1497 3097 1228 2736 
Q 959 2375 959 1747 
Q 959 1119 1226 758 
Q 1494 397 1959 397 
Q 2419 397 2687 759 
Q 2956 1122 2956 1747 
Q 2956 2369 2687 2733 
Q 2419 3097 1959 3097 
z
M 1959 3584 
Q 2709 3584 3137 3096 
Q 3566 2609 3566 1747 
Q 3566 888 3137 398 
Q 2709 -91 1959 -91 
Q 1206 -91 779 398 
Q 353 888 353 1747 
Q 353 2609 779 3096 
Q 1206 3584 1959 3584 
z
" id="DejaVuSans-6f" transform="scale(0.015625)"/>
       <path d="M 3122 3366 
L 3122 2828 
Q 2878 2963 2633 3030 
Q 2388 3097 2138 3097 
Q 1578 3097 1268 2742 
Q 959 2388 959 1747 
Q 959 1106 1268 751 
Q 1578 397 2138 397 
Q 2388 397 2633 464 
Q 2878 531 3122 666 
L 3122 134 
Q 2881 22 2623 -34 
Q 2366 -91 2075 -91 
Q 1284 -91 818 406 
Q 353 903 353 1747 
Q 353 2603 823 3093 
Q 1294 3584 2113 3584 
Q 2378 3584 2631 3529 
Q 2884 3475 3122 3366 
z
" id="DejaVuSans-63" transform="scale(0.015625)"/>
       <path d="M 3513 2113 
L 3513 0 
L 2938 0 
L 2938 2094 
Q 2938 2591 2744 2837 
Q 2550 3084 2163 3084 
Q 1697 3084 1428 2787 
Q 1159 2491 1159 1978 
L 1159 0 
L 581 0 
L 581 4863 
L 1159 4863 
L 1159 2956 
Q 1366 3272 1645 3428 
Q 1925 3584 2291 3584 
Q 2894 3584 3203 3211 
Q 3513 2838 3513 2113 
z
" id="DejaVuSans-68" transform="scale(0.015625)"/>
      </defs>
      <use xlink:href="#DejaVuSans-65"/>
      <use x="61.523438" xlink:href="#DejaVuSans-70"/>
      <use x="125" xlink:href="#DejaVuSans-6f"/>
      <use x="186.181641" xlink:href="#DejaVuSans-63"/>
      <use x="241.162109" xlink:href="#DejaVuSans-68"/>
     </g>
    </g>
   </g>
   <g id="matplotlib.axis_2">
    <g id="ytick_1">
     <g id="line2d_11">
      <path clip-path="url(#p825987e5ac)" d="M 30.103125 146.899219 
L 225.403125 146.899219 
" style="fill:none;stroke:#b0b0b0;stroke-linecap:square;stroke-width:0.8;"/>
     </g>
     <g id="line2d_12">
      <defs>
       <path d="M 0 0 
L -3.5 0 
" id="m3a3f4077c6" style="stroke:#000000;stroke-width:0.8;"/>
      </defs>
      <g>
       <use style="stroke:#000000;stroke-width:0.8;" x="30.103125" xlink:href="#m3a3f4077c6" y="146.899219"/>
      </g>
     </g>
     <g id="text_7">
      <!-- 0.6 -->
      <g transform="translate(7.2 150.698437)scale(0.1 -0.1)">
       <defs>
        <path d="M 684 794 
L 1344 794 
L 1344 0 
L 684 0 
L 684 794 
z
" id="DejaVuSans-2e" transform="scale(0.015625)"/>
        <path d="M 2113 2584 
Q 1688 2584 1439 2293 
Q 1191 2003 1191 1497 
Q 1191 994 1439 701 
Q 1688 409 2113 409 
Q 2538 409 2786 701 
Q 3034 994 3034 1497 
Q 3034 2003 2786 2293 
Q 2538 2584 2113 2584 
z
M 3366 4563 
L 3366 3988 
Q 3128 4100 2886 4159 
Q 2644 4219 2406 4219 
Q 1781 4219 1451 3797 
Q 1122 3375 1075 2522 
Q 1259 2794 1537 2939 
Q 1816 3084 2150 3084 
Q 2853 3084 3261 2657 
Q 3669 2231 3669 1497 
Q 3669 778 3244 343 
Q 2819 -91 2113 -91 
Q 1303 -91 875 529 
Q 447 1150 447 2328 
Q 447 3434 972 4092 
Q 1497 4750 2381 4750 
Q 2619 4750 2861 4703 
Q 3103 4656 3366 4563 
z
" id="DejaVuSans-36" transform="scale(0.015625)"/>
       </defs>
       <use xlink:href="#DejaVuSans-30"/>
       <use x="63.623047" xlink:href="#DejaVuSans-2e"/>
       <use x="95.410156" xlink:href="#DejaVuSans-36"/>
      </g>
     </g>
    </g>
    <g id="ytick_2">
     <g id="line2d_13">
      <path clip-path="url(#p825987e5ac)" d="M 30.103125 112.924219 
L 225.403125 112.924219 
" style="fill:none;stroke:#b0b0b0;stroke-linecap:square;stroke-width:0.8;"/>
     </g>
     <g id="line2d_14">
      <g>
       <use style="stroke:#000000;stroke-width:0.8;" x="30.103125" xlink:href="#m3a3f4077c6" y="112.924219"/>
      </g>
     </g>
     <g id="text_8">
      <!-- 0.7 -->
      <g transform="translate(7.2 116.723437)scale(0.1 -0.1)">
       <defs>
        <path d="M 525 4666 
L 3525 4666 
L 3525 4397 
L 1831 0 
L 1172 0 
L 2766 4134 
L 525 4134 
L 525 4666 
z
" id="DejaVuSans-37" transform="scale(0.015625)"/>
       </defs>
       <use xlink:href="#DejaVuSans-30"/>
       <use x="63.623047" xlink:href="#DejaVuSans-2e"/>
       <use x="95.410156" xlink:href="#DejaVuSans-37"/>
      </g>
     </g>
    </g>
    <g id="ytick_3">
     <g id="line2d_15">
      <path clip-path="url(#p825987e5ac)" d="M 30.103125 78.949219 
L 225.403125 78.949219 
" style="fill:none;stroke:#b0b0b0;stroke-linecap:square;stroke-width:0.8;"/>
     </g>
     <g id="line2d_16">
      <g>
       <use style="stroke:#000000;stroke-width:0.8;" x="30.103125" xlink:href="#m3a3f4077c6" y="78.949219"/>
      </g>
     </g>
     <g id="text_9">
      <!-- 0.8 -->
      <g transform="translate(7.2 82.748437)scale(0.1 -0.1)">
       <defs>
        <path d="M 2034 2216 
Q 1584 2216 1326 1975 
Q 1069 1734 1069 1313 
Q 1069 891 1326 650 
Q 1584 409 2034 409 
Q 2484 409 2743 651 
Q 3003 894 3003 1313 
Q 3003 1734 2745 1975 
Q 2488 2216 2034 2216 
z
M 1403 2484 
Q 997 2584 770 2862 
Q 544 3141 544 3541 
Q 544 4100 942 4425 
Q 1341 4750 2034 4750 
Q 2731 4750 3128 4425 
Q 3525 4100 3525 3541 
Q 3525 3141 3298 2862 
Q 3072 2584 2669 2484 
Q 3125 2378 3379 2068 
Q 3634 1759 3634 1313 
Q 3634 634 3220 271 
Q 2806 -91 2034 -91 
Q 1263 -91 848 271 
Q 434 634 434 1313 
Q 434 1759 690 2068 
Q 947 2378 1403 2484 
z
M 1172 3481 
Q 1172 3119 1398 2916 
Q 1625 2713 2034 2713 
Q 2441 2713 2670 2916 
Q 2900 3119 2900 3481 
Q 2900 3844 2670 4047 
Q 2441 4250 2034 4250 
Q 1625 4250 1398 4047 
Q 1172 3844 1172 3481 
z
" id="DejaVuSans-38" transform="scale(0.015625)"/>
       </defs>
       <use xlink:href="#DejaVuSans-30"/>
       <use x="63.623047" xlink:href="#DejaVuSans-2e"/>
       <use x="95.410156" xlink:href="#DejaVuSans-38"/>
      </g>
     </g>
    </g>
    <g id="ytick_4">
     <g id="line2d_17">
      <path clip-path="url(#p825987e5ac)" d="M 30.103125 44.974219 
L 225.403125 44.974219 
" style="fill:none;stroke:#b0b0b0;stroke-linecap:square;stroke-width:0.8;"/>
     </g>
     <g id="line2d_18">
      <g>
       <use style="stroke:#000000;stroke-width:0.8;" x="30.103125" xlink:href="#m3a3f4077c6" y="44.974219"/>
      </g>
     </g>
     <g id="text_10">
      <!-- 0.9 -->
      <g transform="translate(7.2 48.773437)scale(0.1 -0.1)">
       <defs>
        <path d="M 703 97 
L 703 672 
Q 941 559 1184 500 
Q 1428 441 1663 441 
Q 2288 441 2617 861 
Q 2947 1281 2994 2138 
Q 2813 1869 2534 1725 
Q 2256 1581 1919 1581 
Q 1219 1581 811 2004 
Q 403 2428 403 3163 
Q 403 3881 828 4315 
Q 1253 4750 1959 4750 
Q 2769 4750 3195 4129 
Q 3622 3509 3622 2328 
Q 3622 1225 3098 567 
Q 2575 -91 1691 -91 
Q 1453 -91 1209 -44 
Q 966 3 703 97 
z
M 1959 2075 
Q 2384 2075 2632 2365 
Q 2881 2656 2881 3163 
Q 2881 3666 2632 3958 
Q 2384 4250 1959 4250 
Q 1534 4250 1286 3958 
Q 1038 3666 1038 3163 
Q 1038 2656 1286 2365 
Q 1534 2075 1959 2075 
z
" id="DejaVuSans-39" transform="scale(0.015625)"/>
       </defs>
       <use xlink:href="#DejaVuSans-30"/>
       <use x="63.623047" xlink:href="#DejaVuSans-2e"/>
       <use x="95.410156" xlink:href="#DejaVuSans-39"/>
      </g>
     </g>
    </g>
    <g id="ytick_5">
     <g id="line2d_19">
      <path clip-path="url(#p825987e5ac)" d="M 30.103125 10.999219 
L 225.403125 10.999219 
" style="fill:none;stroke:#b0b0b0;stroke-linecap:square;stroke-width:0.8;"/>
     </g>
     <g id="line2d_20">
      <g>
       <use style="stroke:#000000;stroke-width:0.8;" x="30.103125" xlink:href="#m3a3f4077c6" y="10.999219"/>
      </g>
     </g>
     <g id="text_11">
      <!-- 1.0 -->
      <g transform="translate(7.2 14.798437)scale(0.1 -0.1)">
       <use xlink:href="#DejaVuSans-31"/>
       <use x="63.623047" xlink:href="#DejaVuSans-2e"/>
       <use x="95.410156" xlink:href="#DejaVuSans-30"/>
      </g>
     </g>
    </g>
   </g>
   <g id="line2d_21">
    <path clip-path="url(#p825987e5ac)" d="M 26.914554 88.54687 
L 27.711696 92.481653 
L 28.508839 91.752016 
L 29.305982 91.850305 
L 30.103125 91.404193 
L 30.900268 87.360529 
L 31.697411 88.522362 
L 32.494554 88.493826 
L 34.088839 89.951734 
L 34.885982 84.13106 
L 36.480268 89.101342 
L 37.277411 89.788251 
L 38.871696 90.603672 
L 39.668839 90.618097 
L 40.465982 92.111803 
L 42.060268 90.915439 
L 42.857411 82.827697 
L 43.654554 88.33963 
L 44.451696 90.906588 
L 45.248839 91.207828 
L 46.045982 91.370475 
L 46.843125 90.103626 
L 47.640268 89.608024 
L 48.437411 90.099794 
L 49.234554 90.833791 
L 50.031696 89.958138 
L 50.828839 92.259088 
L 51.625982 92.314658 
L 52.423125 89.816491 
L 53.220268 90.764387 
L 54.017411 90.957231 
L 54.814554 83.689843 
L 55.611696 87.701465 
L 56.408839 88.141052 
L 57.205982 88.370794 
L 58.003125 88.795524 
L 58.800268 95.72521 
L 59.597411 93.555507 
L 60.394554 93.235035 
L 61.191696 91.813904 
L 61.988839 92.260617 
L 62.785982 95.09934 
L 63.583125 93.936304 
L 64.380268 92.566698 
L 65.177411 92.078711 
L 65.974554 91.433856 
L 66.771696 86.37218 
L 67.568839 90.473531 
L 68.365982 89.311052 
L 69.163125 89.523372 
L 69.960268 88.953383 
L 70.757411 83.947814 
L 71.554554 87.747226 
L 72.351696 89.069172 
L 73.148839 88.785748 
L 73.945982 89.817557 
L 74.743125 86.278916 
L 75.540268 86.606903 
L 76.337411 87.384379 
L 77.134554 89.309021 
L 77.931696 90.122833 
L 78.728839 90.355867 
L 79.525982 90.173842 
L 80.323125 90.803587 
L 81.120268 89.799193 
L 81.917411 90.487687 
L 82.714554 85.693343 
L 84.308839 90.409704 
L 85.105982 89.961792 
L 85.903125 89.884906 
L 86.700268 92.86754 
L 87.497411 92.445879 
L 88.294554 91.491759 
L 89.091696 92.58782 
L 89.888839 91.132653 
L 90.685982 96.386243 
L 91.483125 93.656457 
L 92.280268 92.933235 
L 93.077411 91.318256 
L 93.874554 91.508179 
L 94.671696 88.869799 
L 95.468839 91.021045 
L 97.860268 91.061144 
L 98.657411 84.287318 
L 99.454554 90.424517 
L 100.251696 89.366606 
L 101.048839 90.530528 
L 101.845982 89.833965 
L 102.643125 91.436412 
L 103.440268 88.946492 
L 104.237411 89.389535 
L 105.034554 90.386508 
L 105.831696 90.742175 
L 106.628839 97.388206 
L 108.223125 92.740957 
L 109.020268 91.385158 
L 109.817411 90.786897 
L 110.614554 87.070197 
L 111.411696 90.064715 
L 112.208839 89.847422 
L 113.803125 90.426085 
L 114.600268 87.316023 
L 115.397411 90.703289 
L 116.194554 90.276213 
L 116.991696 90.252164 
L 118.585982 91.246645 
L 119.383125 92.902865 
L 120.180268 93.610594 
L 120.977411 92.576357 
L 121.774554 92.124375 
L 122.571696 92.880445 
L 124.165982 91.296479 
L 124.963125 91.558045 
L 125.760268 91.98191 
L 126.557411 95.62243 
L 127.354554 92.959121 
L 128.151696 92.497808 
L 128.948839 90.826462 
L 129.745982 91.03985 
L 130.543125 85.234393 
L 131.340268 87.489466 
L 132.137411 87.741966 
L 132.934554 88.134974 
L 134.528839 88.156498 
L 135.325982 89.815076 
L 136.123125 90.754713 
L 136.920268 90.50755 
L 137.717411 90.114033 
L 138.514554 86.327166 
L 140.108839 87.883475 
L 140.905982 88.276563 
L 141.703125 89.179724 
L 142.500268 95.693795 
L 143.297411 95.201482 
L 144.094554 93.376429 
L 144.891696 93.771871 
L 145.688839 93.103896 
L 146.485982 88.394709 
L 147.283125 91.783832 
L 148.080268 91.525262 
L 148.877411 89.827263 
L 149.674554 89.940284 
L 150.471696 79.67885 
L 151.268839 87.159907 
L 152.065982 89.462917 
L 152.863125 89.267943 
L 153.660268 89.318956 
L 154.457411 87.52345 
L 155.254554 88.331319 
L 156.051696 88.536522 
L 157.645982 89.521653 
L 158.443125 85.118808 
L 159.240268 88.318932 
L 160.834554 91.859943 
L 161.631696 91.12748 
L 162.428839 91.308662 
L 163.225982 92.715887 
L 164.023125 93.563651 
L 164.820268 92.43292 
L 165.617411 93.179148 
L 166.414554 92.714225 
L 167.211696 90.441723 
L 168.008839 91.886326 
L 168.805982 90.805539 
L 169.603125 91.109721 
L 170.400268 90.332499 
L 171.197411 90.058368 
L 171.994554 91.166636 
L 172.791696 90.129844 
L 173.588839 91.558229 
L 174.385982 84.479764 
L 175.183125 88.722917 
L 175.980268 91.220174 
L 176.777411 89.594508 
L 177.574554 90.175312 
L 178.371696 87.045085 
L 179.168839 87.60973 
L 179.965982 90.391537 
L 180.763125 89.88971 
L 181.560268 90.253284 
L 182.357411 79.796233 
L 183.154554 86.313523 
L 183.951696 88.173661 
L 184.748839 89.690733 
L 185.545982 90.321447 
L 186.343125 88.866599 
L 187.140268 89.707825 
L 187.937411 91.132315 
L 189.531696 90.984635 
L 190.328839 84.769304 
L 191.125982 87.179479 
L 191.923125 87.332503 
L 192.720268 89.848463 
L 193.517411 89.383644 
L 194.314554 95.542545 
L 195.111696 92.636107 
L 196.705982 93.508875 
L 197.503125 93.158443 
L 198.300268 88.078823 
L 199.097411 91.292069 
L 199.894554 92.387072 
L 200.691696 92.186174 
L 201.488839 91.496708 
L 202.285982 88.768547 
L 203.083125 87.259519 
L 203.880268 88.250397 
L 204.677411 88.857998 
L 205.474554 88.673356 
L 206.271696 92.884048 
L 207.068839 90.883992 
L 207.865982 92.010697 
L 208.663125 91.234832 
L 209.460268 91.529866 
L 210.257411 90.328806 
L 211.054554 88.107338 
L 211.851696 88.571782 
L 212.648839 88.443365 
L 213.445982 89.340994 
L 214.243125 89.748442 
L 215.040268 91.705967 
L 215.837411 90.949625 
L 216.634554 89.866579 
L 217.431696 90.90802 
L 218.228839 87.274055 
L 219.025982 89.695173 
L 219.823125 89.847593 
L 220.620268 90.172124 
L 221.417411 89.327702 
L 222.214554 86.050826 
L 223.011696 88.52177 
L 223.808839 89.532165 
L 224.605982 89.947533 
L 225.403125 89.64165 
L 225.403125 89.64165 
" style="fill:none;stroke:#1f77b4;stroke-linecap:square;stroke-width:1.5;"/>
   </g>
   <g id="line2d_22">
    <path clip-path="url(#p825987e5ac)" d="M 26.914554 30.704719 
L 27.711696 29.396681 
L 30.103125 29.515594 
L 30.900268 30.330994 
L 31.697411 29.889319 
L 32.494554 29.810044 
L 34.088839 29.270974 
L 34.885982 31.214344 
L 35.683125 30.942544 
L 36.480268 30.036544 
L 37.277411 29.897812 
L 38.074554 29.542774 
L 38.871696 29.787394 
L 40.465982 28.971994 
L 41.263125 29.175844 
L 42.060268 29.087509 
L 42.857411 32.029744 
L 43.654554 30.110156 
L 44.451696 29.289094 
L 45.248839 29.03145 
L 46.045982 29.107894 
L 46.843125 30.195094 
L 47.640268 30.263044 
L 49.234554 29.71095 
L 50.031696 30.018424 
L 50.828839 29.277769 
L 51.625982 29.226806 
L 52.423125 29.515594 
L 53.220268 29.175844 
L 54.017411 29.101099 
L 54.814554 31.214344 
L 55.611696 30.212081 
L 56.408839 29.764744 
L 58.003125 29.651494 
L 58.800268 27.307219 
L 59.597411 28.054669 
L 60.394554 28.179244 
L 61.191696 28.725675 
L 61.988839 28.611859 
L 62.785982 28.224544 
L 63.583125 27.986719 
L 64.380268 28.654894 
L 65.177411 28.666219 
L 65.974554 28.897249 
L 66.771696 31.825894 
L 67.568839 29.923294 
L 68.365982 30.104494 
L 69.163125 29.761912 
L 69.960268 29.800984 
L 70.757411 31.146394 
L 71.554554 29.838356 
L 72.351696 29.413669 
L 73.148839 29.422162 
L 73.945982 29.284564 
L 74.743125 30.976519 
L 75.540268 30.789656 
L 76.337411 30.750019 
L 77.134554 30.288525 
L 77.931696 29.957269 
L 79.525982 29.787394 
L 80.323125 29.424994 
L 81.120268 29.761912 
L 81.917411 29.352514 
L 82.714554 30.229069 
L 84.308839 29.357044 
L 85.105982 29.821369 
L 85.903125 29.597134 
L 86.700268 28.564294 
L 87.497411 28.717181 
L 88.294554 29.051269 
L 89.091696 28.666219 
L 89.888839 29.019559 
L 90.685982 26.967469 
L 91.483125 28.394419 
L 92.280268 28.541644 
L 93.077411 29.192831 
L 93.874554 29.067124 
L 94.671696 29.617519 
L 95.468839 29.141869 
L 96.265982 29.300419 
L 97.063125 29.634506 
L 97.860268 29.427259 
L 98.657411 31.112419 
L 99.454554 29.957269 
L 100.251696 29.877994 
L 101.048839 29.498606 
L 101.845982 29.468029 
L 102.643125 28.938019 
L 103.440268 29.685469 
L 104.237411 29.685469 
L 105.034554 29.430656 
L 105.831696 29.311744 
L 106.628839 27.545044 
L 108.223125 28.983319 
L 109.020268 28.971994 
L 109.817411 29.121484 
L 110.614554 30.093169 
L 111.411696 29.328731 
L 112.208839 29.300419 
L 113.005982 29.065425 
L 113.803125 29.019559 
L 114.600268 30.840619 
L 115.397411 29.328731 
L 116.194554 29.504269 
L 116.991696 29.43915 
L 118.585982 28.971994 
L 119.383125 28.547306 
L 120.180268 28.360444 
L 121.774554 28.938019 
L 122.571696 29.515594 
L 123.368839 29.294756 
L 124.963125 29.498606 
L 125.760268 29.209819 
L 126.557411 27.986719 
L 127.354554 28.598269 
L 128.948839 29.43915 
L 129.745982 29.338924 
L 130.543125 29.957269 
L 131.340268 29.566556 
L 132.137411 29.379694 
L 132.934554 29.362706 
L 133.731696 29.569954 
L 134.528839 30.263044 
L 135.325982 29.362706 
L 136.920268 29.388187 
L 137.717411 29.556364 
L 138.514554 30.466894 
L 139.311696 30.398944 
L 140.108839 30.138469 
L 140.905982 30.084675 
L 141.703125 29.868934 
L 142.500268 27.714919 
L 143.297411 28.275506 
L 144.094554 28.586944 
L 144.891696 28.48785 
L 145.688839 28.679809 
L 146.485982 30.025219 
L 147.283125 28.921031 
L 148.080268 29.221144 
L 148.877411 29.702456 
L 149.674554 29.807779 
L 150.471696 32.335519 
L 151.268839 30.212081 
L 152.065982 29.923294 
L 152.863125 30.016725 
L 153.660268 29.896114 
L 154.457411 30.330994 
L 155.254554 30.093169 
L 156.051696 30.172444 
L 157.645982 29.644699 
L 158.443125 32.063719 
L 159.240268 30.330994 
L 160.834554 29.243794 
L 161.631696 29.379694 
L 162.428839 29.073919 
L 163.225982 28.615256 
L 164.023125 28.439719 
L 164.820268 28.598269 
L 165.617411 28.428394 
L 166.414554 27.816844 
L 167.211696 28.462369 
L 168.008839 28.292494 
L 168.805982 28.674712 
L 169.603125 28.679809 
L 170.400268 29.379694 
L 171.197411 29.600531 
L 171.994554 29.368369 
L 172.791696 29.5071 
L 173.588839 29.073919 
L 174.385982 31.214344 
L 175.183125 30.008231 
L 175.980268 29.323069 
L 176.777411 29.498606 
L 177.574554 29.338924 
L 178.371696 30.500869 
L 179.168839 30.364969 
L 179.965982 29.628844 
L 181.560268 29.535979 
L 182.357411 32.675269 
L 183.154554 30.466894 
L 183.951696 30.206419 
L 184.748839 29.761912 
L 185.545982 29.515594 
L 186.343125 29.753419 
L 187.140268 29.515594 
L 187.937411 29.153194 
L 188.734554 29.286262 
L 189.531696 29.196229 
L 190.328839 30.704719 
L 191.125982 30.687731 
L 191.923125 30.444244 
L 192.720268 29.821369 
L 193.517411 29.896114 
L 194.314554 28.020694 
L 195.111696 28.462369 
L 195.908839 28.145269 
L 197.503125 28.258519 
L 198.300268 30.364969 
L 199.097411 29.277769 
L 199.894554 28.654894 
L 201.488839 28.951609 
L 202.285982 29.787394 
L 203.083125 30.280031 
L 203.880268 29.866669 
L 204.677411 29.583544 
L 205.474554 29.685469 
L 206.271696 29.379694 
L 207.068839 29.872331 
L 207.865982 29.289094 
L 208.663125 29.473125 
L 209.460268 29.311744 
L 210.257411 29.889319 
L 211.054554 30.263044 
L 211.851696 29.968594 
L 212.648839 29.974256 
L 213.445982 29.814574 
L 214.243125 29.991244 
L 215.040268 28.988981 
L 216.634554 29.626012 
L 217.431696 29.243794 
L 218.228839 30.297019 
L 219.025982 30.246056 
L 220.620268 29.855344 
L 221.417411 30.086374 
L 223.011696 29.447644 
L 225.403125 29.386489 
L 225.403125 29.386489 
" style="fill:none;stroke:#bf00bf;stroke-dasharray:5.55,2.4;stroke-dashoffset:0;stroke-width:1.5;"/>
   </g>
   <g id="line2d_23">
    <path clip-path="url(#p825987e5ac)" d="M 30.103125 40.761319 
L 34.088839 47.420419 
L 38.074554 41.848519 
L 42.060268 46.129369 
L 46.045982 44.464594 
L 50.031696 39.470269 
L 54.017411 50.002519 
L 58.003125 44.974219 
L 61.988839 36.820219 
L 65.974554 48.541594 
L 69.960268 42.765844 
L 73.945982 43.887019 
L 77.931696 40.285669 
L 81.917411 54.860944 
L 85.903125 51.497419 
L 89.888839 37.567669 
L 93.874554 39.470269 
L 97.860268 51.293569 
L 101.845982 44.362669 
L 105.831696 40.319644 
L 109.817411 42.867769 
L 113.803125 40.047844 
L 117.788839 40.081819 
L 121.774554 46.333219 
L 125.760268 39.130519 
L 129.745982 46.163344 
L 133.731696 38.145244 
L 137.717411 50.749969 
L 141.703125 43.479319 
L 145.688839 39.742069 
L 149.674554 51.667294 
L 153.660268 41.372869 
L 157.645982 50.002519 
L 161.631696 45.483844 
L 165.617411 37.465744 
L 169.603125 38.552944 
L 173.588839 49.798669 
L 177.574554 41.746594 
L 181.560268 51.871144 
L 185.545982 45.891544 
L 189.531696 44.090869 
L 193.517411 53.603869 
L 197.503125 41.814544 
L 201.488839 42.086344 
L 205.474554 39.164494 
L 209.460268 40.081819 
L 213.445982 40.319644 
L 217.431696 40.863244 
L 221.417411 52.244869 
L 225.403125 40.897219 
" style="fill:none;stroke:#008000;stroke-dasharray:9.6,2.4,1.5,2.4;stroke-dashoffset:0;stroke-width:1.5;"/>
   </g>
   <g id="patch_3">
    <path d="M 30.103125 146.899219 
L 30.103125 10.999219 
" style="fill:none;stroke:#000000;stroke-linecap:square;stroke-linejoin:miter;stroke-width:0.8;"/>
   </g>
   <g id="patch_4">
    <path d="M 225.403125 146.899219 
L 225.403125 10.999219 
" style="fill:none;stroke:#000000;stroke-linecap:square;stroke-linejoin:miter;stroke-width:0.8;"/>
   </g>
   <g id="patch_5">
    <path d="M 30.103125 146.899219 
L 225.403125 146.899219 
" style="fill:none;stroke:#000000;stroke-linecap:square;stroke-linejoin:miter;stroke-width:0.8;"/>
   </g>
   <g id="patch_6">
    <path d="M 30.103125 10.999219 
L 225.403125 10.999219 
" style="fill:none;stroke:#000000;stroke-linecap:square;stroke-linejoin:miter;stroke-width:0.8;"/>
   </g>
   <g id="legend_1">
    <g id="patch_7">
     <path d="M 116.351563 141.899219 
L 218.403125 141.899219 
Q 220.403125 141.899219 220.403125 139.899219 
L 220.403125 96.864844 
Q 220.403125 94.864844 218.403125 94.864844 
L 116.351563 94.864844 
Q 114.351563 94.864844 114.351563 96.864844 
L 114.351563 139.899219 
Q 114.351563 141.899219 116.351563 141.899219 
z
" style="fill:#ffffff;opacity:0.8;stroke:#cccccc;stroke-linejoin:miter;"/>
    </g>
    <g id="line2d_24">
     <path d="M 118.351563 102.963281 
L 138.351562 102.963281 
" style="fill:none;stroke:#1f77b4;stroke-linecap:square;stroke-width:1.5;"/>
    </g>
    <g id="line2d_25"/>
    <g id="text_12">
     <!-- 0.6+train loss -->
     <g transform="translate(146.351562 106.463281)scale(0.1 -0.1)">
      <defs>
       <path d="M 2944 4013 
L 2944 2272 
L 4684 2272 
L 4684 1741 
L 2944 1741 
L 2944 0 
L 2419 0 
L 2419 1741 
L 678 1741 
L 678 2272 
L 2419 2272 
L 2419 4013 
L 2944 4013 
z
" id="DejaVuSans-2b" transform="scale(0.015625)"/>
       <path d="M 1172 4494 
L 1172 3500 
L 2356 3500 
L 2356 3053 
L 1172 3053 
L 1172 1153 
Q 1172 725 1289 603 
Q 1406 481 1766 481 
L 2356 481 
L 2356 0 
L 1766 0 
Q 1100 0 847 248 
Q 594 497 594 1153 
L 594 3053 
L 172 3053 
L 172 3500 
L 594 3500 
L 594 4494 
L 1172 4494 
z
" id="DejaVuSans-74" transform="scale(0.015625)"/>
       <path d="M 2631 2963 
Q 2534 3019 2420 3045 
Q 2306 3072 2169 3072 
Q 1681 3072 1420 2755 
Q 1159 2438 1159 1844 
L 1159 0 
L 581 0 
L 581 3500 
L 1159 3500 
L 1159 2956 
Q 1341 3275 1631 3429 
Q 1922 3584 2338 3584 
Q 2397 3584 2469 3576 
Q 2541 3569 2628 3553 
L 2631 2963 
z
" id="DejaVuSans-72" transform="scale(0.015625)"/>
       <path d="M 2194 1759 
Q 1497 1759 1228 1600 
Q 959 1441 959 1056 
Q 959 750 1161 570 
Q 1363 391 1709 391 
Q 2188 391 2477 730 
Q 2766 1069 2766 1631 
L 2766 1759 
L 2194 1759 
z
M 3341 1997 
L 3341 0 
L 2766 0 
L 2766 531 
Q 2569 213 2275 61 
Q 1981 -91 1556 -91 
Q 1019 -91 701 211 
Q 384 513 384 1019 
Q 384 1609 779 1909 
Q 1175 2209 1959 2209 
L 2766 2209 
L 2766 2266 
Q 2766 2663 2505 2880 
Q 2244 3097 1772 3097 
Q 1472 3097 1187 3025 
Q 903 2953 641 2809 
L 641 3341 
Q 956 3463 1253 3523 
Q 1550 3584 1831 3584 
Q 2591 3584 2966 3190 
Q 3341 2797 3341 1997 
z
" id="DejaVuSans-61" transform="scale(0.015625)"/>
       <path d="M 603 3500 
L 1178 3500 
L 1178 0 
L 603 0 
L 603 3500 
z
M 603 4863 
L 1178 4863 
L 1178 4134 
L 603 4134 
L 603 4863 
z
" id="DejaVuSans-69" transform="scale(0.015625)"/>
       <path d="M 3513 2113 
L 3513 0 
L 2938 0 
L 2938 2094 
Q 2938 2591 2744 2837 
Q 2550 3084 2163 3084 
Q 1697 3084 1428 2787 
Q 1159 2491 1159 1978 
L 1159 0 
L 581 0 
L 581 3500 
L 1159 3500 
L 1159 2956 
Q 1366 3272 1645 3428 
Q 1925 3584 2291 3584 
Q 2894 3584 3203 3211 
Q 3513 2838 3513 2113 
z
" id="DejaVuSans-6e" transform="scale(0.015625)"/>
       <path id="DejaVuSans-20" transform="scale(0.015625)"/>
       <path d="M 603 4863 
L 1178 4863 
L 1178 0 
L 603 0 
L 603 4863 
z
" id="DejaVuSans-6c" transform="scale(0.015625)"/>
       <path d="M 2834 3397 
L 2834 2853 
Q 2591 2978 2328 3040 
Q 2066 3103 1784 3103 
Q 1356 3103 1142 2972 
Q 928 2841 928 2578 
Q 928 2378 1081 2264 
Q 1234 2150 1697 2047 
L 1894 2003 
Q 2506 1872 2764 1633 
Q 3022 1394 3022 966 
Q 3022 478 2636 193 
Q 2250 -91 1575 -91 
Q 1294 -91 989 -36 
Q 684 19 347 128 
L 347 722 
Q 666 556 975 473 
Q 1284 391 1588 391 
Q 1994 391 2212 530 
Q 2431 669 2431 922 
Q 2431 1156 2273 1281 
Q 2116 1406 1581 1522 
L 1381 1569 
Q 847 1681 609 1914 
Q 372 2147 372 2553 
Q 372 3047 722 3315 
Q 1072 3584 1716 3584 
Q 2034 3584 2315 3537 
Q 2597 3491 2834 3397 
z
" id="DejaVuSans-73" transform="scale(0.015625)"/>
      </defs>
      <use xlink:href="#DejaVuSans-30"/>
      <use x="63.623047" xlink:href="#DejaVuSans-2e"/>
      <use x="95.410156" xlink:href="#DejaVuSans-36"/>
      <use x="159.033203" xlink:href="#DejaVuSans-2b"/>
      <use x="242.822266" xlink:href="#DejaVuSans-74"/>
      <use x="282.03125" xlink:href="#DejaVuSans-72"/>
      <use x="323.144531" xlink:href="#DejaVuSans-61"/>
      <use x="384.423828" xlink:href="#DejaVuSans-69"/>
      <use x="412.207031" xlink:href="#DejaVuSans-6e"/>
      <use x="475.585938" xlink:href="#DejaVuSans-20"/>
      <use x="507.373047" xlink:href="#DejaVuSans-6c"/>
      <use x="535.15625" xlink:href="#DejaVuSans-6f"/>
      <use x="596.337891" xlink:href="#DejaVuSans-73"/>
      <use x="648.4375" xlink:href="#DejaVuSans-73"/>
     </g>
    </g>
    <g id="line2d_26">
     <path d="M 118.351563 117.641406 
L 138.351562 117.641406 
" style="fill:none;stroke:#bf00bf;stroke-dasharray:5.55,2.4;stroke-dashoffset:0;stroke-width:1.5;"/>
    </g>
    <g id="line2d_27"/>
    <g id="text_13">
     <!-- train acc -->
     <g transform="translate(146.351562 121.141406)scale(0.1 -0.1)">
      <use xlink:href="#DejaVuSans-74"/>
      <use x="39.208984" xlink:href="#DejaVuSans-72"/>
      <use x="80.322266" xlink:href="#DejaVuSans-61"/>
      <use x="141.601562" xlink:href="#DejaVuSans-69"/>
      <use x="169.384766" xlink:href="#DejaVuSans-6e"/>
      <use x="232.763672" xlink:href="#DejaVuSans-20"/>
      <use x="264.550781" xlink:href="#DejaVuSans-61"/>
      <use x="325.830078" xlink:href="#DejaVuSans-63"/>
      <use x="380.810547" xlink:href="#DejaVuSans-63"/>
     </g>
    </g>
    <g id="line2d_28">
     <path d="M 118.351563 132.319531 
L 138.351562 132.319531 
" style="fill:none;stroke:#008000;stroke-dasharray:9.6,2.4,1.5,2.4;stroke-dashoffset:0;stroke-width:1.5;"/>
    </g>
    <g id="line2d_29"/>
    <g id="text_14">
     <!-- test acc -->
     <g transform="translate(146.351562 135.819531)scale(0.1 -0.1)">
      <use xlink:href="#DejaVuSans-74"/>
      <use x="39.208984" xlink:href="#DejaVuSans-65"/>
      <use x="100.732422" xlink:href="#DejaVuSans-73"/>
      <use x="152.832031" xlink:href="#DejaVuSans-74"/>
      <use x="192.041016" xlink:href="#DejaVuSans-20"/>
      <use x="223.828125" xlink:href="#DejaVuSans-61"/>
      <use x="285.107422" xlink:href="#DejaVuSans-63"/>
      <use x="340.087891" xlink:href="#DejaVuSans-63"/>
     </g>
    </g>
   </g>
  </g>
 </g>
 <defs>
  <clipPath id="p825987e5ac">
   <rect height="135.9" width="195.3" x="30.103125" y="10.999219"/>
  </clipPath>
 </defs>
</svg>