<?xml version="1.0" encoding="utf-8" standalone="no"?>
<!DOCTYPE svg PUBLIC "-//W3C//DTD SVG 1.1//EN"
  "http://www.w3.org/Graphics/SVG/1.1/DTD/svg11.dtd">
<svg height="184.455469pt" version="1.1" viewBox="0 0 242.146875 184.455469" width="242.146875pt" xmlns="http://www.w3.org/2000/svg" xmlns:xlink="http://www.w3.org/1999/xlink">
 <metadata>
  <rdf:RDF xmlns:cc="http://creativecommons.org/ns#" xmlns:dc="http://purl.org/dc/elements/1.1/" xmlns:rdf="http://www.w3.org/1999/02/22-rdf-syntax-ns#">
   <cc:Work>
    <dc:type rdf:resource="http://purl.org/dc/dcmitype/StillImage"/>
    <dc:date>2022-03-10T16:33:07.659965</dc:date>
    <dc:format>image/svg+xml</dc:format>
    <dc:creator>
     <cc:Agent>
      <dc:title>Matplotlib v3.4.0, https://matplotlib.org/</dc:title>
     </cc:Agent>
    </dc:creator>
   </cc:Work>
  </rdf:RDF>
 </metadata>
 <defs>
  <style type="text/css">*{stroke-linecap:butt;stroke-linejoin:round;}</style>
 </defs>
 <g id="figure_1">
  <g id="patch_1">
   <path d="M 0 184.455469 
L 242.146875 184.455469 
L 242.146875 -0 
L 0 -0 
z
" style="fill:none;"/>
  </g>
  <g id="axes_1">
   <g id="patch_2">
    <path d="M 30.103125 146.899219 
L 225.403125 146.899219 
L 225.403125 10.999219 
L 30.103125 10.999219 
z
" style="fill:#ffffff;"/>
   </g>
   <g id="matplotlib.axis_1">
    <g id="xtick_1">
     <g id="line2d_1">
      <path clip-path="url(#p882f1ff49f)" d="M 78.19207 146.899219 
L 78.19207 10.999219 
" style="fill:none;stroke:#b0b0b0;stroke-linecap:square;stroke-width:0.8;"/>
     </g>
     <g id="line2d_2">
      <defs>
       <path d="M 0 0 
L 0 3.5 
" id="m2cf44b570f" style="stroke:#000000;stroke-width:0.8;"/>
      </defs>
      <g>
       <use style="stroke:#000000;stroke-width:0.8;" x="78.19207" xlink:href="#m2cf44b570f" y="146.899219"/>
      </g>
     </g>
     <g id="text_1">
      <!-- 50 -->
      <g transform="translate(71.82957 161.497656)scale(0.1 -0.1)">
       <defs>
        <path d="M 691 4666 
L 3169 4666 
L 3169 4134 
L 1269 4134 
L 1269 2991 
Q 1406 3038 1543 3061 
Q 1681 3084 1819 3084 
Q 2600 3084 3056 2656 
Q 3513 2228 3513 1497 
Q 3513 744 3044 326 
Q 2575 -91 1722 -91 
Q 1428 -91 1123 -41 
Q 819 9 494 109 
L 494 744 
Q 775 591 1075 516 
Q 1375 441 1709 441 
Q 2250 441 2565 725 
Q 2881 1009 2881 1497 
Q 2881 1984 2565 2268 
Q 2250 2553 1709 2553 
Q 1456 2553 1204 2497 
Q 953 2441 691 2322 
L 691 4666 
z
" id="DejaVuSans-35" transform="scale(0.015625)"/>
        <path d="M 2034 4250 
Q 1547 4250 1301 3770 
Q 1056 3291 1056 2328 
Q 1056 1369 1301 889 
Q 1547 409 2034 409 
Q 2525 409 2770 889 
Q 3016 1369 3016 2328 
Q 3016 3291 2770 3770 
Q 2525 4250 2034 4250 
z
M 2034 4750 
Q 2819 4750 3233 4129 
Q 3647 3509 3647 2328 
Q 3647 1150 3233 529 
Q 2819 -91 2034 -91 
Q 1250 -91 836 529 
Q 422 1150 422 2328 
Q 422 3509 836 4129 
Q 1250 4750 2034 4750 
z
" id="DejaVuSans-30" transform="scale(0.015625)"/>
       </defs>
       <use xlink:href="#DejaVuSans-35"/>
       <use x="63.623047" xlink:href="#DejaVuSans-30"/>
      </g>
     </g>
    </g>
    <g id="xtick_2">
     <g id="line2d_3">
      <path clip-path="url(#p882f1ff49f)" d="M 127.262421 146.899219 
L 127.262421 10.999219 
" style="fill:none;stroke:#b0b0b0;stroke-linecap:square;stroke-width:0.8;"/>
     </g>
     <g id="line2d_4">
      <g>
       <use style="stroke:#000000;stroke-width:0.8;" x="127.262421" xlink:href="#m2cf44b570f" y="146.899219"/>
      </g>
     </g>
     <g id="text_2">
      <!-- 100 -->
      <g transform="translate(117.718671 161.497656)scale(0.1 -0.1)">
       <defs>
        <path d="M 794 531 
L 1825 531 
L 1825 4091 
L 703 3866 
L 703 4441 
L 1819 4666 
L 2450 4666 
L 2450 531 
L 3481 531 
L 3481 0 
L 794 0 
L 794 531 
z
" id="DejaVuSans-31" transform="scale(0.015625)"/>
       </defs>
       <use xlink:href="#DejaVuSans-31"/>
       <use x="63.623047" xlink:href="#DejaVuSans-30"/>
       <use x="127.246094" xlink:href="#DejaVuSans-30"/>
      </g>
     </g>
    </g>
    <g id="xtick_3">
     <g id="line2d_5">
      <path clip-path="url(#p882f1ff49f)" d="M 176.332773 146.899219 
L 176.332773 10.999219 
" style="fill:none;stroke:#b0b0b0;stroke-linecap:square;stroke-width:0.8;"/>
     </g>
     <g id="line2d_6">
      <g>
       <use style="stroke:#000000;stroke-width:0.8;" x="176.332773" xlink:href="#m2cf44b570f" y="146.899219"/>
      </g>
     </g>
     <g id="text_3">
      <!-- 150 -->
      <g transform="translate(166.789023 161.497656)scale(0.1 -0.1)">
       <use xlink:href="#DejaVuSans-31"/>
       <use x="63.623047" xlink:href="#DejaVuSans-35"/>
       <use x="127.246094" xlink:href="#DejaVuSans-30"/>
      </g>
     </g>
    </g>
    <g id="xtick_4">
     <g id="line2d_7">
      <path clip-path="url(#p882f1ff49f)" d="M 225.403125 146.899219 
L 225.403125 10.999219 
" style="fill:none;stroke:#b0b0b0;stroke-linecap:square;stroke-width:0.8;"/>
     </g>
     <g id="line2d_8">
      <g>
       <use style="stroke:#000000;stroke-width:0.8;" x="225.403125" xlink:href="#m2cf44b570f" y="146.899219"/>
      </g>
     </g>
     <g id="text_4">
      <!-- 200 -->
      <g transform="translate(215.859375 161.497656)scale(0.1 -0.1)">
       <defs>
        <path d="M 1228 531 
L 3431 531 
L 3431 0 
L 469 0 
L 469 531 
Q 828 903 1448 1529 
Q 2069 2156 2228 2338 
Q 2531 2678 2651 2914 
Q 2772 3150 2772 3378 
Q 2772 3750 2511 3984 
Q 2250 4219 1831 4219 
Q 1534 4219 1204 4116 
Q 875 4013 500 3803 
L 500 4441 
Q 881 4594 1212 4672 
Q 1544 4750 1819 4750 
Q 2544 4750 2975 4387 
Q 3406 4025 3406 3419 
Q 3406 3131 3298 2873 
Q 3191 2616 2906 2266 
Q 2828 2175 2409 1742 
Q 1991 1309 1228 531 
z
" id="DejaVuSans-32" transform="scale(0.015625)"/>
       </defs>
       <use xlink:href="#DejaVuSans-32"/>
       <use x="63.623047" xlink:href="#DejaVuSans-30"/>
       <use x="127.246094" xlink:href="#DejaVuSans-30"/>
      </g>
     </g>
    </g>
    <g id="text_5">
     <!-- epoch -->
     <g transform="translate(112.525 175.175781)scale(0.1 -0.1)">
      <defs>
       <path d="M 3597 1894 
L 3597 1613 
L 953 1613 
Q 991 1019 1311 708 
Q 1631 397 2203 397 
Q 2534 397 2845 478 
Q 3156 559 3463 722 
L 3463 178 
Q 3153 47 2828 -22 
Q 2503 -91 2169 -91 
Q 1331 -91 842 396 
Q 353 884 353 1716 
Q 353 2575 817 3079 
Q 1281 3584 2069 3584 
Q 2775 3584 3186 3129 
Q 3597 2675 3597 1894 
z
M 3022 2063 
Q 3016 2534 2758 2815 
Q 2500 3097 2075 3097 
Q 1594 3097 1305 2825 
Q 1016 2553 972 2059 
L 3022 2063 
z
" id="DejaVuSans-65" transform="scale(0.015625)"/>
       <path d="M 1159 525 
L 1159 -1331 
L 581 -1331 
L 581 3500 
L 1159 3500 
L 1159 2969 
Q 1341 3281 1617 3432 
Q 1894 3584 2278 3584 
Q 2916 3584 3314 3078 
Q 3713 2572 3713 1747 
Q 3713 922 3314 415 
Q 2916 -91 2278 -91 
Q 1894 -91 1617 61 
Q 1341 213 1159 525 
z
M 3116 1747 
Q 3116 2381 2855 2742 
Q 2594 3103 2138 3103 
Q 1681 3103 1420 2742 
Q 1159 2381 1159 1747 
Q 1159 1113 1420 752 
Q 1681 391 2138 391 
Q 2594 391 2855 752 
Q 3116 1113 3116 1747 
z
" id="DejaVuSans-70" transform="scale(0.015625)"/>
       <path d="M 1959 3097 
Q 1497 3097 1228 2736 
Q 959 2375 959 1747 
Q 959 1119 1226 758 
Q 1494 397 1959 397 
Q 2419 397 2687 759 
Q 2956 1122 2956 1747 
Q 2956 2369 2687 2733 
Q 2419 3097 1959 3097 
z
M 1959 3584 
Q 2709 3584 3137 3096 
Q 3566 2609 3566 1747 
Q 3566 888 3137 398 
Q 2709 -91 1959 -91 
Q 1206 -91 779 398 
Q 353 888 353 1747 
Q 353 2609 779 3096 
Q 1206 3584 1959 3584 
z
" id="DejaVuSans-6f" transform="scale(0.015625)"/>
       <path d="M 3122 3366 
L 3122 2828 
Q 2878 2963 2633 3030 
Q 2388 3097 2138 3097 
Q 1578 3097 1268 2742 
Q 959 2388 959 1747 
Q 959 1106 1268 751 
Q 1578 397 2138 397 
Q 2388 397 2633 464 
Q 2878 531 3122 666 
L 3122 134 
Q 2881 22 2623 -34 
Q 2366 -91 2075 -91 
Q 1284 -91 818 406 
Q 353 903 353 1747 
Q 353 2603 823 3093 
Q 1294 3584 2113 3584 
Q 2378 3584 2631 3529 
Q 2884 3475 3122 3366 
z
" id="DejaVuSans-63" transform="scale(0.015625)"/>
       <path d="M 3513 2113 
L 3513 0 
L 2938 0 
L 2938 2094 
Q 2938 2591 2744 2837 
Q 2550 3084 2163 3084 
Q 1697 3084 1428 2787 
Q 1159 2491 1159 1978 
L 1159 0 
L 581 0 
L 581 4863 
L 1159 4863 
L 1159 2956 
Q 1366 3272 1645 3428 
Q 1925 3584 2291 3584 
Q 2894 3584 3203 3211 
Q 3513 2838 3513 2113 
z
" id="DejaVuSans-68" transform="scale(0.015625)"/>
      </defs>
      <use xlink:href="#DejaVuSans-65"/>
      <use x="61.523438" xlink:href="#DejaVuSans-70"/>
      <use x="125" xlink:href="#DejaVuSans-6f"/>
      <use x="186.181641" xlink:href="#DejaVuSans-63"/>
      <use x="241.162109" xlink:href="#DejaVuSans-68"/>
     </g>
    </g>
   </g>
   <g id="matplotlib.axis_2">
    <g id="ytick_1">
     <g id="line2d_9">
      <path clip-path="url(#p882f1ff49f)" d="M 30.103125 146.899219 
L 225.403125 146.899219 
" style="fill:none;stroke:#b0b0b0;stroke-linecap:square;stroke-width:0.8;"/>
     </g>
     <g id="line2d_10">
      <defs>
       <path d="M 0 0 
L -3.5 0 
" id="m6bd135bf1e" style="stroke:#000000;stroke-width:0.8;"/>
      </defs>
      <g>
       <use style="stroke:#000000;stroke-width:0.8;" x="30.103125" xlink:href="#m6bd135bf1e" y="146.899219"/>
      </g>
     </g>
     <g id="text_6">
      <!-- 0.0 -->
      <g transform="translate(7.2 150.698437)scale(0.1 -0.1)">
       <defs>
        <path d="M 684 794 
L 1344 794 
L 1344 0 
L 684 0 
L 684 794 
z
" id="DejaVuSans-2e" transform="scale(0.015625)"/>
       </defs>
       <use xlink:href="#DejaVuSans-30"/>
       <use x="63.623047" xlink:href="#DejaVuSans-2e"/>
       <use x="95.410156" xlink:href="#DejaVuSans-30"/>
      </g>
     </g>
    </g>
    <g id="ytick_2">
     <g id="line2d_11">
      <path clip-path="url(#p882f1ff49f)" d="M 30.103125 119.719219 
L 225.403125 119.719219 
" style="fill:none;stroke:#b0b0b0;stroke-linecap:square;stroke-width:0.8;"/>
     </g>
     <g id="line2d_12">
      <g>
       <use style="stroke:#000000;stroke-width:0.8;" x="30.103125" xlink:href="#m6bd135bf1e" y="119.719219"/>
      </g>
     </g>
     <g id="text_7">
      <!-- 0.2 -->
      <g transform="translate(7.2 123.518437)scale(0.1 -0.1)">
       <use xlink:href="#DejaVuSans-30"/>
       <use x="63.623047" xlink:href="#DejaVuSans-2e"/>
       <use x="95.410156" xlink:href="#DejaVuSans-32"/>
      </g>
     </g>
    </g>
    <g id="ytick_3">
     <g id="line2d_13">
      <path clip-path="url(#p882f1ff49f)" d="M 30.103125 92.539219 
L 225.403125 92.539219 
" style="fill:none;stroke:#b0b0b0;stroke-linecap:square;stroke-width:0.8;"/>
     </g>
     <g id="line2d_14">
      <g>
       <use style="stroke:#000000;stroke-width:0.8;" x="30.103125" xlink:href="#m6bd135bf1e" y="92.539219"/>
      </g>
     </g>
     <g id="text_8">
      <!-- 0.4 -->
      <g transform="translate(7.2 96.338437)scale(0.1 -0.1)">
       <defs>
        <path d="M 2419 4116 
L 825 1625 
L 2419 1625 
L 2419 4116 
z
M 2253 4666 
L 3047 4666 
L 3047 1625 
L 3713 1625 
L 3713 1100 
L 3047 1100 
L 3047 0 
L 2419 0 
L 2419 1100 
L 313 1100 
L 313 1709 
L 2253 4666 
z
" id="DejaVuSans-34" transform="scale(0.015625)"/>
       </defs>
       <use xlink:href="#DejaVuSans-30"/>
       <use x="63.623047" xlink:href="#DejaVuSans-2e"/>
       <use x="95.410156" xlink:href="#DejaVuSans-34"/>
      </g>
     </g>
    </g>
    <g id="ytick_4">
     <g id="line2d_15">
      <path clip-path="url(#p882f1ff49f)" d="M 30.103125 65.359219 
L 225.403125 65.359219 
" style="fill:none;stroke:#b0b0b0;stroke-linecap:square;stroke-width:0.8;"/>
     </g>
     <g id="line2d_16">
      <g>
       <use style="stroke:#000000;stroke-width:0.8;" x="30.103125" xlink:href="#m6bd135bf1e" y="65.359219"/>
      </g>
     </g>
     <g id="text_9">
      <!-- 0.6 -->
      <g transform="translate(7.2 69.158437)scale(0.1 -0.1)">
       <defs>
        <path d="M 2113 2584 
Q 1688 2584 1439 2293 
Q 1191 2003 1191 1497 
Q 1191 994 1439 701 
Q 1688 409 2113 409 
Q 2538 409 2786 701 
Q 3034 994 3034 1497 
Q 3034 2003 2786 2293 
Q 2538 2584 2113 2584 
z
M 3366 4563 
L 3366 3988 
Q 3128 4100 2886 4159 
Q 2644 4219 2406 4219 
Q 1781 4219 1451 3797 
Q 1122 3375 1075 2522 
Q 1259 2794 1537 2939 
Q 1816 3084 2150 3084 
Q 2853 3084 3261 2657 
Q 3669 2231 3669 1497 
Q 3669 778 3244 343 
Q 2819 -91 2113 -91 
Q 1303 -91 875 529 
Q 447 1150 447 2328 
Q 447 3434 972 4092 
Q 1497 4750 2381 4750 
Q 2619 4750 2861 4703 
Q 3103 4656 3366 4563 
z
" id="DejaVuSans-36" transform="scale(0.015625)"/>
       </defs>
       <use xlink:href="#DejaVuSans-30"/>
       <use x="63.623047" xlink:href="#DejaVuSans-2e"/>
       <use x="95.410156" xlink:href="#DejaVuSans-36"/>
      </g>
     </g>
    </g>
    <g id="ytick_5">
     <g id="line2d_17">
      <path clip-path="url(#p882f1ff49f)" d="M 30.103125 38.179219 
L 225.403125 38.179219 
" style="fill:none;stroke:#b0b0b0;stroke-linecap:square;stroke-width:0.8;"/>
     </g>
     <g id="line2d_18">
      <g>
       <use style="stroke:#000000;stroke-width:0.8;" x="30.103125" xlink:href="#m6bd135bf1e" y="38.179219"/>
      </g>
     </g>
     <g id="text_10">
      <!-- 0.8 -->
      <g transform="translate(7.2 41.978437)scale(0.1 -0.1)">
       <defs>
        <path d="M 2034 2216 
Q 1584 2216 1326 1975 
Q 1069 1734 1069 1313 
Q 1069 891 1326 650 
Q 1584 409 2034 409 
Q 2484 409 2743 651 
Q 3003 894 3003 1313 
Q 3003 1734 2745 1975 
Q 2488 2216 2034 2216 
z
M 1403 2484 
Q 997 2584 770 2862 
Q 544 3141 544 3541 
Q 544 4100 942 4425 
Q 1341 4750 2034 4750 
Q 2731 4750 3128 4425 
Q 3525 4100 3525 3541 
Q 3525 3141 3298 2862 
Q 3072 2584 2669 2484 
Q 3125 2378 3379 2068 
Q 3634 1759 3634 1313 
Q 3634 634 3220 271 
Q 2806 -91 2034 -91 
Q 1263 -91 848 271 
Q 434 634 434 1313 
Q 434 1759 690 2068 
Q 947 2378 1403 2484 
z
M 1172 3481 
Q 1172 3119 1398 2916 
Q 1625 2713 2034 2713 
Q 2441 2713 2670 2916 
Q 2900 3119 2900 3481 
Q 2900 3844 2670 4047 
Q 2441 4250 2034 4250 
Q 1625 4250 1398 4047 
Q 1172 3844 1172 3481 
z
" id="DejaVuSans-38" transform="scale(0.015625)"/>
       </defs>
       <use xlink:href="#DejaVuSans-30"/>
       <use x="63.623047" xlink:href="#DejaVuSans-2e"/>
       <use x="95.410156" xlink:href="#DejaVuSans-38"/>
      </g>
     </g>
    </g>
    <g id="ytick_6">
     <g id="line2d_19">
      <path clip-path="url(#p882f1ff49f)" d="M 30.103125 10.999219 
L 225.403125 10.999219 
" style="fill:none;stroke:#b0b0b0;stroke-linecap:square;stroke-width:0.8;"/>
     </g>
     <g id="line2d_20">
      <g>
       <use style="stroke:#000000;stroke-width:0.8;" x="30.103125" xlink:href="#m6bd135bf1e" y="10.999219"/>
      </g>
     </g>
     <g id="text_11">
      <!-- 1.0 -->
      <g transform="translate(7.2 14.798437)scale(0.1 -0.1)">
       <use xlink:href="#DejaVuSans-31"/>
       <use x="63.623047" xlink:href="#DejaVuSans-2e"/>
       <use x="95.410156" xlink:href="#DejaVuSans-30"/>
      </g>
     </g>
    </g>
   </g>
   <g id="line2d_21">
    <path clip-path="url(#p882f1ff49f)" d="M 43.011241 -1 
L 43.057196 0.369938 
L 43.252975 0.40764 
L 43.448755 1.110496 
L 43.659262 -1 
M 45.276015 -1 
L 45.607348 1.775223 
L 45.805638 1.096533 
L 46.001417 10.480292 
L 46.197196 11.024442 
L 46.392976 7.996391 
L 46.787045 8.913404 
L 46.982824 11.799039 
L 47.178603 12.081881 
L 47.374383 13.671739 
L 47.570162 14.040685 
L 47.768452 13.948917 
L 47.964231 6.393815 
L 48.35579 9.363226 
L 48.747349 13.15199 
L 48.749859 13.120895 
L 48.804519 -1 
M 49.397192 -1 
L 49.731266 7.995655 
L 49.927045 29.863146 
L 50.318604 26.520481 
L 50.514383 26.456325 
L 50.710163 25.958086 
L 50.712673 25.96932 
L 50.908452 35.029775 
L 51.300011 31.869729 
L 51.49579 31.58057 
L 51.69157 32.049275 
L 51.69408 31.972425 
L 51.889859 37.665045 
L 52.085639 37.656807 
L 52.672977 36.733875 
L 52.675487 36.74549 
L 52.871266 45.864535 
L 53.067046 43.695316 
L 53.262825 43.707453 
L 53.656894 35.670663 
L 53.852673 39.36633 
L 54.048453 17.887463 
L 54.440011 25.359952 
L 54.635791 25.386619 
L 54.638301 25.332619 
L 54.83408 25.875501 
L 55.225639 35.997076 
L 55.421419 25.503792 
L 55.617198 21.770759 
L 55.619708 21.781631 
L 55.815487 26.364674 
L 56.011267 26.08678 
L 56.207046 22.133492 
L 56.601115 27.572561 
L 56.796894 45.741052 
L 57.384233 37.742089 
L 57.580012 39.26287 
L 57.582522 39.249609 
L 57.778301 27.479835 
L 58.36564 36.605675 
L 58.563929 35.595272 
L 58.759708 21.293446 
L 59.347047 36.002803 
L 59.545336 38.989585 
L 59.741115 51.933558 
L 59.936895 51.491227 
L 60.328454 42.369926 
L 60.526743 41.277781 
L 60.722522 14.361491 
L 60.918302 7.433621 
L 61.50564 22.685422 
L 61.50815 22.67934 
L 61.70393 48.184511 
L 61.899709 47.623685 
L 62.095488 46.307775 
L 62.291268 42.924851 
L 62.489557 42.078689 
L 62.685337 53.186322 
L 62.881116 54.490408 
L 63.076895 53.635669 
L 63.272675 53.526993 
L 63.470964 48.065467 
L 63.666744 13.174038 
L 64.058302 31.061142 
L 64.254082 35.645889 
L 64.452371 30.335336 
L 64.648151 19.211631 
L 65.039709 32.71689 
L 65.235489 34.902822 
L 65.433778 38.403821 
L 65.629558 59.456798 
L 65.825337 53.534119 
L 66.021116 54.702553 
L 66.415185 52.324004 
L 66.610965 57.740696 
L 66.806744 45.992829 
L 67.002524 42.363727 
L 67.198303 45.001836 
L 67.396592 44.287799 
L 67.592372 15.081311 
L 67.983931 36.20595 
L 68.377999 45.460028 
L 68.573779 68.344849 
L 68.769558 52.196972 
L 69.161117 53.43334 
L 69.356896 55.621265 
L 69.359406 55.609345 
L 69.555186 54.463318 
L 69.946745 60.925634 
L 70.142524 63.093073 
L 70.340813 62.428359 
L 70.536593 71.52341 
L 70.732372 72.846265 
L 71.123931 71.403719 
L 71.32222 71.068309 
L 71.518 82.560825 
L 71.713779 82.118634 
L 71.909559 82.199507 
L 72.105338 79.23458 
L 72.303628 77.956152 
L 72.499407 73.266283 
L 72.695186 75.97644 
L 72.890966 72.766832 
L 73.086745 73.523232 
L 73.282525 74.761295 
L 73.285035 74.757555 
L 73.480814 90.267339 
L 74.068152 86.023126 
L 74.266442 84.922926 
L 74.462221 91.405981 
L 74.658 91.991259 
L 75.049559 90.24222 
L 75.247849 89.876019 
L 75.443628 97.128195 
L 76.229256 94.500451 
L 76.425035 100.998936 
L 76.620814 99.990477 
L 77.210663 95.554623 
L 77.406442 105.824812 
L 77.602222 104.456622 
L 77.99378 98.131164 
L 78.19207 97.383532 
L 78.387849 108.206836 
L 78.779408 100.325417 
L 78.975187 99.566211 
L 79.173477 98.255617 
L 79.369256 102.68325 
L 79.565036 102.787143 
L 79.760815 103.572645 
L 80.152374 100.862955 
L 80.154884 100.884557 
L 80.350663 109.896337 
L 80.546443 108.44826 
L 81.136291 107.396678 
L 81.33207 113.395963 
L 81.52785 113.788798 
L 82.117698 110.570838 
L 82.313477 117.405408 
L 82.509257 116.76095 
L 82.900815 114.631778 
L 83.099105 113.921488 
L 83.294884 118.18602 
L 84.080512 114.248865 
L 84.276291 121.956616 
L 84.472071 120.551743 
L 84.66785 117.502812 
L 85.061919 115.718511 
L 85.257698 121.451729 
L 85.649257 116.733858 
L 85.845037 117.082604 
L 86.040816 116.48823 
L 86.043326 116.501749 
L 86.239105 121.090337 
L 86.630664 122.138008 
L 86.826444 117.835504 
L 87.024733 116.124033 
L 87.220512 122.163033 
L 87.807851 122.058803 
L 88.00614 121.091369 
L 88.201919 125.035999 
L 88.397699 123.860588 
L 88.985037 122.439918 
L 88.987547 122.444594 
L 89.183327 127.055587 
L 89.379106 126.914309 
L 89.574885 124.763524 
L 89.968954 123.164322 
L 90.164734 127.336753 
L 90.752072 125.153735 
L 90.950361 124.887624 
L 91.146141 129.996708 
L 91.34192 125.419868 
L 91.537699 125.636648 
L 91.931768 125.333608 
L 92.127548 131.123712 
L 92.913175 129.091 
L 93.108955 130.475642 
L 93.304734 130.28968 
L 93.696293 128.363778 
L 93.892072 128.266424 
L 93.894582 128.275451 
L 94.090362 133.718841 
L 94.6777 130.700107 
L 94.875989 128.715051 
L 95.071769 130.696577 
L 95.267548 130.100527 
L 95.463328 130.206341 
L 95.659107 130.034454 
L 95.857396 129.564005 
L 96.053176 135.019079 
L 96.248955 133.978934 
L 96.838803 132.928888 
L 97.034583 134.632174 
L 97.621921 132.970363 
L 97.82021 132.979982 
L 98.01599 136.644882 
L 98.211769 135.104059 
L 98.603328 134.152004 
L 98.801617 134.101745 
L 99.193176 136.532464 
L 99.783024 135.32722 
L 99.978804 137.160724 
L 100.370363 135.807918 
L 100.764432 134.91607 
L 100.960211 137.275228 
L 101.15599 137.106463 
L 101.35177 136.026306 
L 101.547549 135.82299 
L 101.745839 135.247743 
L 101.941618 135.20752 
L 102.137397 136.417787 
L 102.727246 135.901374 
L 102.923025 137.161345 
L 103.314584 137.37663 
L 103.708653 137.069661 
L 103.904432 138.945152 
L 104.295991 137.756394 
L 104.69006 136.92711 
L 104.885839 137.851444 
L 105.081618 137.567254 
L 105.277398 137.71678 
L 105.671467 137.491516 
L 105.867246 138.86781 
L 106.063026 139.098884 
L 106.454584 137.965302 
L 106.652874 138.14121 
L 106.848653 139.426445 
L 107.435991 138.792976 
L 107.634281 138.313953 
L 107.83006 139.484561 
L 108.02584 139.012572 
L 108.221619 137.420499 
L 108.417398 137.184701 
L 108.615688 137.132897 
L 108.811467 138.50451 
L 109.203026 138.747985 
L 109.597095 138.397553 
L 109.988654 139.214178 
L 110.184433 139.076369 
L 110.578502 138.127145 
L 110.774281 135.571392 
L 111.16584 137.112426 
L 111.559909 137.032095 
L 111.755688 140.064879 
L 111.951468 139.549764 
L 112.147247 139.67166 
L 112.541316 139.13922 
L 112.737095 139.160586 
L 112.932875 139.753855 
L 113.128654 139.772814 
L 113.520213 139.170732 
L 113.522723 139.177743 
L 113.718502 140.074946 
L 113.914282 140.098305 
L 114.110061 140.448978 
L 114.305841 139.980685 
L 114.50413 139.819426 
L 114.699909 139.889437 
L 114.895689 140.50377 
L 115.287248 140.097471 
L 115.485537 139.854786 
L 115.681316 140.551927 
L 115.877096 140.731192 
L 116.072875 139.958538 
L 116.464434 140.076713 
L 116.466944 140.052108 
L 116.858503 140.854719 
L 117.054282 140.685324 
L 117.250062 140.731345 
L 117.448351 140.412213 
L 117.644131 140.761068 
L 118.231469 140.385066 
L 118.429758 140.374333 
L 118.625538 142.074684 
L 118.821317 142.089384 
L 119.411165 141.08635 
L 119.606945 141.693889 
L 119.802724 141.705546 
L 119.998503 141.83007 
L 120.390062 141.658143 
L 120.392572 141.663342 
L 120.784131 140.623089 
L 120.97991 140.430706 
L 121.17569 140.543727 
L 121.373979 140.371961 
L 121.569759 138.81843 
L 121.765538 140.315164 
L 121.961317 140.649371 
L 122.355386 140.799205 
L 122.551166 142.20441 
L 122.746945 142.048856 
L 122.942725 142.042218 
L 123.336793 141.220885 
L 123.532573 142.029022 
L 123.728352 141.582755 
L 123.924132 141.463966 
L 124.119911 141.555514 
L 124.3182 141.44949 
L 124.51398 142.140083 
L 124.709759 142.121239 
L 125.297097 141.775269 
L 125.299607 141.78043 
L 125.495387 142.645836 
L 125.691166 142.878489 
L 125.886946 142.694239 
L 126.082725 142.765445 
L 126.281014 142.460299 
L 126.476794 142.670223 
L 126.672573 143.081858 
L 126.868353 142.771129 
L 127.262421 142.576931 
L 127.458201 142.073219 
L 127.84976 142.670033 
L 128.243829 142.310187 
L 128.439608 142.455083 
L 129.026946 142.455772 
L 129.225236 142.617123 
L 129.421015 143.484217 
L 129.616794 143.119099 
L 129.812574 143.191531 
L 130.008353 143.124579 
L 130.206643 142.635363 
L 130.598201 142.966732 
L 130.98976 142.771257 
L 131.18805 142.762659 
L 131.383829 142.345368 
L 131.579608 142.679086 
L 131.775388 142.430787 
L 132.169457 142.450312 
L 132.365236 143.47818 
L 132.561015 143.472982 
L 132.756795 142.798496 
L 133.150864 142.811374 
L 133.346643 143.939062 
L 133.738202 143.616301 
L 134.132271 142.996871 
L 134.32805 142.323169 
L 134.52383 142.621593 
L 135.113678 142.629327 
L 135.309457 143.584911 
L 135.505237 143.70014 
L 136.878202 143.200493 
L 137.076492 143.249516 
L 137.272271 143.622712 
L 137.468051 143.21122 
L 137.859609 143.659817 
L 138.057899 143.612212 
L 138.253678 144.345306 
L 138.449458 144.036082 
L 138.645237 143.944056 
L 138.841017 144.029195 
L 139.039306 143.980163 
L 139.235085 143.572345 
L 139.430865 143.892865 
L 139.822424 143.32945 
L 140.020713 143.192033 
L 140.216492 144.796658 
L 140.608051 144.177118 
L 141.00212 144.286944 
L 141.197899 143.980429 
L 141.785238 143.650651 
L 142.179306 143.946258 
L 142.570865 143.752768 
L 142.766645 143.844182 
L 142.964934 143.658845 
L 143.160713 143.653809 
L 143.748052 143.991975 
L 143.946341 143.99228 
L 144.14212 143.843946 
L 144.533679 144.149665 
L 144.927748 143.980671 
L 145.123528 144.010787 
L 145.515086 143.928205 
L 145.710866 144.05604 
L 145.909155 143.966563 
L 146.104935 143.478084 
L 146.496493 144.20708 
L 146.692273 144.333348 
L 147.086342 144.211883 
L 147.282121 144.353805 
L 147.4779 144.143739 
L 147.871969 144.160541 
L 148.067749 145.00699 
L 148.655087 144.103303 
L 148.853376 143.959193 
L 149.049156 144.61303 
L 149.244935 144.176907 
L 149.440714 144.427907 
L 149.834783 144.375859 
L 150.030563 144.826316 
L 150.422122 144.366581 
L 150.81619 144.119854 
L 151.01197 142.652535 
L 151.207749 142.765455 
L 151.403529 143.293378 
L 151.599308 143.276536 
L 151.795087 143.400577 
L 151.797597 143.380774 
L 151.993377 144.227386 
L 152.779004 143.264926 
L 152.974784 144.178177 
L 153.170563 143.911026 
L 153.760411 143.795263 
L 153.956191 144.692224 
L 154.741818 144.470794 
L 154.937598 145.287503 
L 155.133377 144.770261 
L 155.524936 144.44883 
L 155.723226 144.461153 
L 155.919005 144.649436 
L 156.114784 144.551164 
L 156.310564 144.640921 
L 156.704633 144.604291 
L 157.096191 144.919118 
L 157.291971 144.338161 
L 157.68604 144.177093 
L 157.881819 144.235647 
L 158.273378 143.813385 
L 158.469157 143.809946 
L 158.667447 143.682965 
L 158.863226 143.874484 
L 159.254785 143.969932 
L 159.450564 144.078964 
L 159.648854 144.009567 
L 159.844633 144.443685 
L 160.040412 144.348283 
L 160.236192 143.957933 
L 160.431971 143.872346 
L 160.630261 143.918555 
L 161.021819 144.855369 
L 161.611668 144.942026 
L 161.807447 145.323821 
L 162.003227 145.140921 
L 164.16182 144.83994 
L 164.357599 144.629758 
L 164.555889 144.668919 
L 164.751668 145.287664 
L 164.947448 145.468734 
L 165.143227 145.03631 
L 165.537296 144.78575 
L 165.733075 144.5347 
L 165.928855 144.947393 
L 166.320413 144.690945 
L 166.518703 144.480225 
L 167.106041 145.047597 
L 167.50011 144.86824 
L 167.891669 143.988864 
L 168.087448 144.277654 
L 168.677296 144.336574 
L 168.873076 144.619212 
L 169.264635 144.695839 
L 169.462924 144.654868 
L 169.658703 144.490872 
L 169.854483 144.662786 
L 170.050262 144.582186 
L 170.246042 144.327868 
L 170.444331 144.324726 
L 170.64011 144.856942 
L 170.83589 144.563824 
L 171.227449 144.702428 
L 171.425738 144.708524 
L 171.621517 145.202178 
L 172.208856 145.296171 
L 172.407145 145.181632 
L 172.602925 145.224765 
L 173.388552 144.806176 
L 173.584332 145.048551 
L 173.97589 144.992892 
L 174.369959 144.823362 
L 174.565739 145.701712 
L 174.957297 145.478657 
L 175.351366 145.370285 
L 175.547146 144.948725 
L 175.742925 145.15064 
L 176.332773 145.132736 
L 176.724332 144.228277 
L 177.901519 144.669791 
L 178.295587 144.840119 
L 178.491367 145.646153 
L 178.687146 145.067756 
L 179.078705 144.968153 
L 179.276994 145.072502 
L 179.472774 145.482489 
L 180.060112 145.208792 
L 180.258401 145.035893 
L 180.64996 145.610058 
L 180.84574 145.194304 
L 181.631367 145.190467 
L 182.612774 145.425632 
L 183.202622 145.140562 
L 183.398402 145.334196 
L 183.594181 145.21113 
L 184.18403 145.207818 
L 184.379809 145.726476 
L 185.361216 145.406462 
L 185.556995 145.565831 
L 185.948554 145.466159 
L 186.146844 145.383127 
L 186.538402 144.844046 
L 186.929961 144.978662 
L 187.32403 144.73211 
L 187.715589 145.108464 
L 188.109658 145.251897 
L 188.305437 145.500873 
L 188.501216 145.479649 
L 188.696996 145.323449 
L 189.091065 145.333156 
L 189.286844 146.035182 
L 189.482624 145.725341 
L 190.268251 145.394707 
L 190.464031 145.527273 
L 190.65981 145.467061 
L 190.855589 145.544624 
L 191.053879 145.467075 
L 191.249658 145.14126 
L 191.445438 145.139011 
L 191.641217 145.294058 
L 191.836996 145.126153 
L 192.035286 145.230667 
L 192.231065 146.054674 
L 192.426845 145.645266 
L 193.212472 145.718032 
L 193.408252 145.328013 
L 193.604031 145.53353 
L 193.9981 145.452448 
L 194.193879 145.724831 
L 194.585438 145.701894 
L 194.979507 145.434763 
L 195.175286 145.48468 
L 195.371066 145.333781 
L 195.762625 145.30927 
L 195.960914 145.294458 
L 196.156693 145.10694 
L 196.548252 145.339847 
L 196.942321 145.259958 
L 197.1381 145.792559 
L 197.923728 145.325524 
L 198.119507 145.564252 
L 198.511066 145.517908 
L 198.905135 145.481415 
L 199.100914 145.678394 
L 199.296694 145.578728 
L 199.688253 145.625225 
L 199.886542 145.480888 
L 200.082321 145.127049 
L 200.278101 145.291691 
L 200.47388 145.288399 
L 200.66966 145.160542 
L 200.867949 145.217275 
L 201.259508 145.551771 
L 201.651067 145.360603 
L 201.849356 145.36903 
L 202.045136 145.57548 
L 202.240915 145.44027 
L 203.026543 145.717898 
L 203.222322 145.983915 
L 203.418101 145.948769 
L 203.81217 145.682996 
L 204.00795 145.781941 
L 204.399508 145.592881 
L 204.793577 145.613265 
L 204.989357 146.238161 
L 205.380915 146.044702 
L 206.166543 145.158023 
L 206.756391 145.204814 
L 207.34373 145.618187 
L 208.129357 145.829395 
L 208.520916 145.415751 
L 208.719205 145.395489 
L 208.914985 144.933085 
L 209.110764 145.250624 
L 209.306544 145.28435 
L 209.502323 145.175581 
L 209.700612 145.300363 
L 209.896392 145.74079 
L 210.48373 145.421787 
L 210.682019 145.394068 
L 210.877799 145.640555 
L 212.054985 145.571904 
L 212.446544 145.467459 
L 212.644834 145.533576 
L 212.840613 145.754209 
L 213.232172 145.783069 
L 213.626241 145.731064 
L 213.82202 145.46937 
L 214.017799 145.799166 
L 214.213579 145.844222 
L 214.607648 145.661052 
L 214.803427 145.734647 
L 214.999206 145.599579 
L 215.589055 145.675032 
L 215.784834 145.397832 
L 215.980613 145.339668 
L 216.372172 145.479318 
L 216.570462 145.39005 
L 216.766241 145.802703 
L 217.1578 145.530406 
L 218.533276 145.376261 
L 218.729055 145.496725 
L 218.924835 145.345423 
L 219.514683 145.625526 
L 219.710462 146.005621 
L 220.49609 145.786067 
L 220.691869 145.957655 
L 221.477497 145.752584 
L 221.869056 145.740198 
L 222.458904 145.748313 
L 222.850463 145.522086 
L 223.046242 145.672646 
L 223.440311 145.719422 
L 223.63609 146.088989 
L 224.027649 146.047907 
L 224.617497 146.061378 
L 225.403125 145.83436 
L 225.403125 145.83436 
" style="fill:none;stroke:#1f77b4;stroke-linecap:square;stroke-width:1.5;"/>
   </g>
   <g id="line2d_22">
    <path clip-path="url(#p882f1ff49f)" d="M 30.100615 105.750811 
L 30.103125 105.740545 
L 30.298904 93.03741 
L 30.494684 92.928516 
L 30.690463 93.096394 
L 31.082022 89.735192 
L 31.084532 89.742397 
L 31.280311 83.032752 
L 31.67187 79.729627 
L 31.86765 79.694464 
L 32.063429 79.382073 
L 32.065939 79.392253 
L 32.261718 83.509165 
L 32.457498 99.006175 
L 32.653277 103.373287 
L 33.047346 106.292299 
L 33.243126 106.717248 
L 33.634684 109.707302 
L 33.830464 109.289874 
L 34.028753 108.569983 
L 34.224533 103.246244 
L 34.616091 101.032061 
L 34.811871 100.493262 
L 35.01016 99.614173 
L 35.20594 95.800601 
L 35.991567 91.862437 
L 36.187347 87.007392 
L 36.383126 86.483338 
L 36.578905 86.467458 
L 36.970464 85.872169 
L 36.972974 85.885555 
L 37.364533 82.978305 
L 37.560312 82.288642 
L 37.951871 81.843083 
L 37.954381 81.852043 
L 38.150161 78.091677 
L 38.34594 77.696935 
L 38.54172 78.073528 
L 38.935788 77.660887 
L 39.131568 75.042638 
L 39.327347 75.185562 
L 39.917195 73.768711 
L 40.112975 70.305739 
L 40.504534 71.33116 
L 40.700313 71.707752 
L 40.896092 71.773089 
L 40.898602 71.765545 
L 41.290161 70.959105 
L 41.877499 68.939117 
L 41.880009 68.944261 
L 42.075789 64.969922 
L 42.271568 65.33744 
L 42.663127 65.596064 
L 42.861416 65.185267 
L 43.057196 63.595132 
L 43.448755 62.996214 
L 43.842823 64.636231 
L 44.038603 83.971965 
L 44.430162 73.245883 
L 44.824231 69.849355 
L 45.02001 65.378275 
L 45.215789 63.479432 
L 45.411569 62.851022 
L 45.607348 62.625293 
L 45.805638 62.782555 
L 46.001417 59.321034 
L 46.197196 59.307422 
L 46.392976 60.169501 
L 46.588755 60.161561 
L 46.787045 59.942245 
L 46.982824 58.83101 
L 47.570162 58.06875 
L 47.765942 57.968023 
L 47.768452 57.993439 
L 47.964231 60.355529 
L 48.747349 57.845517 
L 48.749859 57.846667 
L 48.945638 71.449129 
L 49.337197 61.739393 
L 49.731266 58.670221 
L 49.927045 52.950721 
L 50.318604 53.726593 
L 50.514383 53.63131 
L 50.712673 53.872951 
L 50.908452 51.126743 
L 51.49579 51.70184 
L 51.69157 51.488816 
L 51.69408 51.524599 
L 51.889859 49.915294 
L 52.085639 49.894877 
L 52.281418 50.092248 
L 52.675487 49.964467 
L 52.871266 46.798197 
L 53.067046 47.567263 
L 53.262825 47.605829 
L 53.656894 50.296063 
L 53.852673 49.166647 
L 54.048453 56.353666 
L 54.440011 53.930769 
L 54.635791 53.821875 
L 54.638301 53.837617 
L 54.83408 53.86271 
L 55.225639 50.255589 
L 55.421419 53.658534 
L 55.619708 55.085179 
L 55.815487 52.501532 
L 56.011267 53.270598 
L 56.207046 54.729327 
L 56.601115 52.948831 
L 56.796894 46.784585 
L 56.992674 47.390309 
L 57.188453 49.234706 
L 57.384233 49.462703 
L 57.582522 49.083835 
L 57.778301 52.283744 
L 57.974081 51.460231 
L 58.16986 50.028726 
L 58.36564 49.571597 
L 58.563929 49.901953 
L 58.759708 54.352734 
L 59.151267 51.530559 
L 59.545336 49.007731 
L 59.741115 44.198347 
L 59.936895 44.273212 
L 60.328454 47.502607 
L 60.526743 47.953147 
L 60.722522 56.870913 
L 60.918302 59.67494 
L 61.50815 54.601375 
L 61.70393 45.89982 
L 62.095488 46.430679 
L 62.291268 47.495801 
L 62.489557 47.738425 
L 62.685337 44.579477 
L 62.881116 43.619847 
L 63.076895 43.858053 
L 63.272675 43.919306 
L 63.470964 45.748849 
L 63.666744 57.360937 
L 63.862523 53.413522 
L 64.254082 50.153501 
L 64.452371 51.769219 
L 64.648151 55.795583 
L 65.039709 51.217488 
L 65.433778 49.293121 
L 65.629558 42.020463 
L 65.825337 43.742353 
L 66.021116 43.340805 
L 66.216896 44.00438 
L 66.415185 44.283847 
L 66.610965 42.238251 
L 66.806744 46.124414 
L 67.002524 47.415264 
L 67.198303 46.546379 
L 67.396592 46.738201 
L 67.592372 58.027915 
L 67.983931 50.214754 
L 68.377999 46.993693 
L 68.573779 38.358894 
L 68.769558 44.055424 
L 68.965338 43.780919 
L 69.161117 43.755965 
L 69.356896 43.054958 
L 69.359406 43.063465 
L 69.555186 43.708323 
L 70.142524 40.795403 
L 70.340813 41.046709 
L 70.536593 37.610246 
L 70.732372 37.480934 
L 70.928152 37.887019 
L 71.32222 38.108551 
L 71.518 33.567548 
L 71.713779 33.996319 
L 71.909559 34.007662 
L 72.499407 36.916046 
L 72.695186 36.29671 
L 72.890966 37.179207 
L 73.086745 36.980702 
L 73.282525 36.594808 
L 73.285035 36.597343 
L 73.480814 31.430499 
L 73.872373 32.850661 
L 74.068152 32.8189 
L 74.266442 32.995993 
L 74.462221 30.681851 
L 74.658 30.307527 
L 75.049559 31.005131 
L 75.247849 31.106983 
L 75.443628 28.667308 
L 76.229256 29.617519 
L 76.425035 27.197236 
L 76.620814 27.489889 
L 77.210663 28.883659 
L 77.406442 25.591046 
L 77.602222 26.108293 
L 77.99378 28.143254 
L 78.19207 28.579243 
L 78.387849 25.196304 
L 78.779408 27.741707 
L 78.975187 27.969704 
L 79.173477 28.394419 
L 79.369256 26.993059 
L 79.760815 26.471274 
L 80.152374 27.431358 
L 80.154884 27.424093 
L 80.350663 23.658173 
L 80.546443 24.468074 
L 81.136291 24.947995 
L 81.33207 22.365054 
L 81.52785 22.385472 
L 82.117698 23.684125 
L 82.313477 21.439453 
L 82.509257 21.64363 
L 83.099105 22.640413 
L 83.294884 21.167218 
L 83.490664 21.385006 
L 83.882223 22.092819 
L 84.080512 22.365895 
L 84.276291 19.642698 
L 84.472071 19.969381 
L 84.66785 21.149069 
L 85.061919 21.786961 
L 85.257698 19.80604 
L 85.649257 21.489363 
L 85.845037 21.439453 
L 86.040816 21.695355 
L 86.043326 21.689113 
L 86.239105 19.874099 
L 86.434885 19.561028 
L 86.630664 19.6064 
L 87.024733 21.441775 
L 87.220512 19.329627 
L 87.807851 19.503178 
L 88.00614 19.941439 
L 88.201919 18.104567 
L 88.397699 18.805574 
L 88.985037 19.419465 
L 88.987547 19.416865 
L 89.183327 17.655379 
L 89.379106 17.805108 
L 89.574885 18.653576 
L 89.968954 19.172245 
L 90.164734 18.063732 
L 90.556292 18.363191 
L 90.950361 18.769981 
L 91.146141 16.97479 
L 91.34192 18.417638 
L 91.733479 18.3734 
L 91.931768 18.446539 
L 92.127548 16.457542 
L 92.913175 17.212567 
L 93.108955 16.784225 
L 93.304734 16.729778 
L 93.696293 17.332099 
L 93.894582 17.378365 
L 94.090362 15.341376 
L 94.6777 16.624286 
L 94.875989 17.272363 
L 95.071769 16.716166 
L 95.267548 16.85909 
L 95.659107 16.835269 
L 95.857396 16.919023 
L 96.053176 15.082752 
L 96.248955 15.565971 
L 96.640514 15.688477 
L 96.838803 15.810079 
L 97.034583 14.960246 
L 97.426142 15.622686 
L 97.82021 15.788335 
L 98.01599 14.402163 
L 98.407549 15.16896 
L 98.603328 15.378809 
L 98.801617 15.372481 
L 99.193176 14.415775 
L 99.783024 14.956627 
L 99.978804 14.415775 
L 100.764432 15.108835 
L 100.960211 13.99381 
L 101.941618 15.150811 
L 102.137397 14.592728 
L 102.727246 14.752777 
L 102.923025 14.184375 
L 103.118804 14.286463 
L 103.314584 14.188912 
L 103.708653 14.380411 
L 103.904432 13.721575 
L 104.295991 14.184375 
L 104.69006 14.423899 
L 104.885839 14.102704 
L 105.277398 14.098167 
L 105.671467 14.124919 
L 105.867246 13.558233 
L 106.258805 13.739724 
L 106.454584 14.021034 
L 106.652874 14.013481 
L 106.848653 13.571845 
L 107.044433 13.53101 
L 107.634281 13.874863 
L 107.83006 13.694351 
L 108.02584 13.789633 
L 108.221619 14.243359 
L 108.615688 14.260819 
L 108.811467 13.680739 
L 109.007247 13.789633 
L 109.398805 13.759007 
L 109.792874 13.871304 
L 109.988654 13.680739 
L 110.184433 13.698888 
L 110.578502 13.999891 
L 110.774281 14.796905 
L 111.16584 14.27512 
L 111.559909 14.296153 
L 111.755688 13.326833 
L 111.951468 13.462951 
L 112.147247 13.440264 
L 112.541316 13.690039 
L 113.128654 13.494712 
L 113.522723 13.657423 
L 113.718502 13.272386 
L 113.914282 13.340445 
L 114.110061 13.19979 
L 114.50413 13.399213 
L 114.895689 13.088627 
L 115.485537 13.355725 
L 115.681316 12.986538 
L 115.877096 13.075015 
L 116.072875 13.344982 
L 116.466944 13.377469 
L 117.054282 13.013762 
L 117.448351 13.108387 
L 117.83991 13.23155 
L 118.429758 13.247005 
L 118.625538 12.550962 
L 118.821317 12.523738 
L 119.411165 12.915409 
L 119.606945 12.646244 
L 120.392572 12.676225 
L 120.784131 13.068209 
L 121.373979 13.119259 
L 121.569759 13.735186 
L 121.765538 13.156686 
L 121.961317 13.05006 
L 122.355386 13.070335 
L 122.551166 12.646244 
L 122.746945 12.721109 
L 122.942725 12.659856 
L 123.336793 12.923563 
L 123.532573 12.455679 
L 123.924132 12.759675 
L 124.3182 12.825715 
L 124.51398 12.564573 
L 124.905539 12.600871 
L 125.299607 12.695251 
L 125.691166 12.408038 
L 125.886946 12.478365 
L 126.082725 12.425053 
L 126.281014 12.534889 
L 126.476794 12.428456 
L 126.672573 12.183444 
L 127.064132 12.326367 
L 127.458201 12.38762 
L 128.045539 12.425053 
L 129.026946 12.523738 
L 129.225236 12.456067 
L 129.421015 12.115385 
L 129.616794 12.299144 
L 130.008353 12.285532 
L 130.402422 12.469291 
L 130.598201 12.30595 
L 130.98976 12.408038 
L 131.18805 12.398989 
L 131.383829 12.510126 
L 131.579608 12.462485 
L 131.971167 12.564573 
L 132.169457 12.515863 
L 132.365236 12.15622 
L 132.561015 12.128996 
L 132.756795 12.315024 
L 133.150864 12.355501 
L 133.346643 12.074549 
L 133.738202 12.151683 
L 134.32805 12.646244 
L 134.52383 12.462485 
L 135.309457 12.265114 
L 135.701016 12.15622 
L 136.290864 12.15622 
L 136.682423 12.283263 
L 137.076492 12.244063 
L 137.272271 12.088161 
L 137.468051 12.203861 
L 137.859609 12.081355 
L 138.057899 12.094573 
L 138.253678 11.897596 
L 138.645237 12.020102 
L 139.039306 12.021187 
L 139.235085 12.128996 
L 139.430865 11.992879 
L 140.020713 12.208729 
L 140.216492 11.584525 
L 140.608051 11.906671 
L 141.00212 11.863543 
L 141.197899 12.047326 
L 141.983527 12.078265 
L 142.179306 11.911208 
L 143.356493 12.135802 
L 143.946341 12.026623 
L 145.909155 11.928775 
L 146.104935 12.033714 
L 146.692273 11.77509 
L 147.871969 11.915185 
L 148.067749 11.734255 
L 148.459307 11.888522 
L 148.853376 11.977699 
L 149.049156 11.856761 
L 149.636494 11.849955 
L 149.834783 11.866261 
L 150.030563 11.611749 
L 150.617901 11.863567 
L 150.81619 11.920621 
L 151.01197 12.278726 
L 151.797597 12.108163 
L 151.993377 11.870373 
L 152.779004 12.263089 
L 152.974784 11.77509 
L 153.366343 11.961118 
L 153.760411 12.004879 
L 153.956191 11.761478 
L 154.543529 11.788702 
L 154.741818 11.792875 
L 154.937598 11.570913 
L 155.329157 11.788702 
L 155.723226 11.806465 
L 155.919005 11.679808 
L 156.310564 11.729718 
L 157.096191 11.734255 
L 157.291971 11.938431 
L 157.881819 11.979267 
L 158.273378 12.119922 
L 160.040412 11.856761 
L 160.630261 11.977699 
L 161.021819 11.666196 
L 161.611668 11.640667 
L 161.807447 11.489243 
L 162.394785 11.608346 
L 164.555889 11.760259 
L 164.947448 11.523272 
L 165.339006 11.676405 
L 165.733075 11.693419 
L 165.928855 11.536884 
L 166.714482 11.761478 
L 167.106041 11.629898 
L 167.695889 11.761478 
L 167.891669 11.986073 
L 168.283228 11.843149 
L 169.462924 11.765695 
L 169.658703 11.856761 
L 170.050262 11.811388 
L 170.444331 11.871697 
L 170.64011 11.77509 
L 170.83589 11.836343 
L 171.227449 11.730852 
L 171.425738 11.735797 
L 171.817297 11.550496 
L 172.994483 11.561839 
L 173.584332 11.666196 
L 174.369959 11.714053 
L 174.565739 11.407572 
L 175.547146 11.652584 
L 176.134484 11.604943 
L 176.332773 11.599897 
L 176.920111 11.865835 
L 178.295587 11.667847 
L 178.491367 11.380349 
L 178.687146 11.611749 
L 179.276994 11.635231 
L 179.472774 11.421184 
L 180.258401 11.646103 
L 180.64996 11.42799 
L 181.041519 11.557302 
L 182.221215 11.529229 
L 182.416995 11.407572 
L 183.202622 11.550973 
L 183.398402 11.448407 
L 183.789961 11.489243 
L 184.967147 11.513063 
L 185.361216 11.475631 
L 185.752775 11.430258 
L 187.32403 11.747867 
L 187.715589 11.575451 
L 189.091065 11.493895 
L 189.286844 11.244231 
L 189.678403 11.389423 
L 191.053879 11.502049 
L 191.249658 11.666196 
L 191.641217 11.566376 
L 192.035286 11.559127 
L 192.231065 11.271454 
L 192.622624 11.398498 
L 193.212472 11.339513 
L 193.408252 11.523272 
L 193.79981 11.513063 
L 193.9981 11.499331 
L 194.193879 11.366737 
L 194.979507 11.502049 
L 195.566845 11.575451 
L 196.942321 11.545537 
L 197.1381 11.31229 
L 197.923728 11.515639 
L 198.315287 11.468825 
L 199.688253 11.438199 
L 200.867949 11.537383 
L 201.259508 11.407572 
L 201.849356 11.512921 
L 202.240915 11.475631 
L 203.613881 11.33611 
L 204.399508 11.425721 
L 204.793577 11.425945 
L 204.989357 11.203395 
L 205.774984 11.355277 
L 206.166543 11.577719 
L 208.129357 11.346319 
L 208.914985 11.625361 
L 209.306544 11.49378 
L 209.700612 11.496613 
L 209.896392 11.285066 
L 210.48373 11.468825 
L 210.682019 11.483023 
L 210.877799 11.366737 
L 211.663427 11.472151 
L 212.054985 11.434796 
L 223.440311 11.404201 
L 223.63609 11.244231 
L 225.009056 11.330439 
L 225.403125 11.347123 
L 225.403125 11.347123 
" style="fill:none;stroke:#bf00bf;stroke-dasharray:5.55,2.4;stroke-dashoffset:0;stroke-width:1.5;"/>
   </g>
   <g id="line2d_23">
    <path clip-path="url(#p882f1ff49f)" d="M 30.103125 112.815499 
L 31.084532 89.277619 
L 32.065939 72.602689 
L 33.047346 101.902729 
L 34.028753 107.515399 
L 35.01016 102.989929 
L 35.991567 94.441819 
L 36.972974 93.952579 
L 37.954381 78.813319 
L 38.935788 86.681929 
L 39.917195 71.270869 
L 40.898602 81.476959 
L 41.880009 64.774849 
L 42.861416 76.271989 
L 43.842823 111.334189 
L 44.824231 90.391999 
L 45.805638 64.802029 
L 46.787045 64.897159 
L 47.768452 84.955999 
L 48.749859 126.147289 
L 49.731266 56.471359 
L 50.712673 58.441909 
L 51.69408 66.786169 
L 52.675487 53.046679 
L 53.656894 57.599329 
L 54.638301 77.114569 
L 55.619708 55.520059 
L 56.601115 54.976459 
L 57.582522 52.897189 
L 58.563929 98.627539 
L 59.545336 52.462309 
L 60.526743 54.854149 
L 61.50815 52.244869 
L 62.489557 53.766949 
L 63.470964 60.113479 
L 64.452371 61.744279 
L 65.433778 49.567639 
L 66.415185 59.202949 
L 67.396592 107.800789 
L 68.377999 55.316209 
L 69.359406 49.146349 
L 70.340813 54.650299 
L 71.32222 50.926639 
L 72.303628 97.608289 
L 73.285035 58.985509 
L 74.266442 50.641249 
L 75.247849 49.893799 
L 76.229256 49.880209 
L 77.210663 47.760169 
L 78.19207 48.765829 
L 79.173477 48.235819 
L 80.154884 47.243749 
L 81.136291 49.689949 
L 82.117698 49.159939 
L 83.099105 47.732989 
L 84.080512 48.711469 
L 85.061919 49.227889 
L 86.043326 48.235819 
L 87.024733 53.726179 
L 88.00614 47.583499 
L 88.987547 47.175799 
L 89.968954 50.722789 
L 90.950361 47.773759 
L 91.931768 47.610679 
L 92.913175 49.173529 
L 93.894582 47.311699 
L 94.875989 48.072739 
L 95.857396 47.189389 
L 96.838803 49.390969 
L 97.82021 48.127099 
L 98.801617 49.771489 
L 99.783024 46.659379 
L 100.764432 46.224499 
L 101.745839 47.461189 
L 102.727246 46.428349 
L 103.708653 50.682019 
L 104.69006 46.278859 
L 105.671467 45.911929 
L 106.652874 46.183729 
L 107.634281 46.224499 
L 108.615688 44.729599 
L 109.597095 45.381919 
L 110.578502 49.336609 
L 111.559909 46.414759 
L 112.541316 47.964019 
L 113.522723 44.892679 
L 114.50413 46.197319 
L 115.485537 45.816799 
L 116.466944 45.028579 
L 117.448351 47.624269 
L 118.429758 45.531409 
L 119.411165 45.585769 
L 120.392572 44.036509 
L 121.373979 44.253949 
L 122.355386 45.952699 
L 123.336793 47.230159 
L 124.3182 47.692219 
L 125.299607 44.879089 
L 126.281014 55.927759 
L 127.262421 47.909659 
L 128.243829 47.855299 
L 129.225236 45.014989 
L 130.206643 49.051219 
L 131.18805 45.300379 
L 132.169457 43.642399 
L 133.150864 44.851909 
L 134.132271 44.987809 
L 135.113678 44.607289 
L 136.095085 44.648059 
L 137.076492 43.968559 
L 138.057899 44.525749 
L 139.039306 44.471389 
L 140.020713 45.612949 
L 141.00212 44.987809 
L 141.983527 43.954969 
L 142.964934 45.612949 
L 143.946341 44.267539 
L 144.927748 45.708079 
L 145.909155 43.927789 
L 146.890562 44.253949 
L 147.871969 43.723939 
L 148.853376 44.104459 
L 149.834783 48.711469 
L 150.81619 46.047829 
L 151.797597 44.919859 
L 152.779004 44.811139 
L 153.760411 43.655989 
L 154.741818 42.949309 
L 155.723226 43.846249 
L 156.704633 44.118049 
L 157.68604 44.009329 
L 158.667447 44.457799 
L 159.648854 43.139569 
L 160.630261 44.009329 
L 161.611668 42.636739 
L 162.593075 46.306039 
L 163.574482 44.430619 
L 165.537296 46.007059 
L 166.518703 46.373989 
L 167.50011 43.954969 
L 168.481517 44.213179 
L 169.462924 43.601629 
L 171.425738 44.865499 
L 172.407145 44.308309 
L 173.388552 43.112389 
L 174.369959 45.028579 
L 175.351366 43.520089 
L 176.332773 44.253949 
L 177.31418 44.158819 
L 178.295587 43.533679 
L 179.276994 43.207519 
L 180.258401 43.941379 
L 181.239808 43.125979 
L 182.221215 43.438549 
L 183.202622 43.343419 
L 186.146844 43.696759 
L 187.128251 44.702419 
L 188.109658 44.185999 
L 189.091065 43.139569 
L 190.072472 43.506499 
L 191.053879 43.329829 
L 192.035286 44.104459 
L 193.016693 44.403439 
L 193.9981 44.063689 
L 194.979507 43.221109 
L 195.960914 43.900609 
L 196.942321 42.894949 
L 197.923728 43.791889 
L 198.905135 45.558589 
L 199.886542 44.376259 
L 200.867949 45.110119 
L 201.849356 44.077279 
L 202.830763 43.533679 
L 203.81217 44.199589 
L 204.793577 42.922129 
L 205.774984 44.729599 
L 206.756391 43.153159 
L 207.737798 43.574449 
L 208.719205 43.819069 
L 209.700612 44.743189 
L 210.682019 44.009329 
L 211.663427 43.710349 
L 212.644834 43.873429 
L 213.626241 43.017259 
L 214.607648 43.669579 
L 215.589055 43.139569 
L 216.570462 43.479319 
L 217.551869 42.962899 
L 218.533276 44.158819 
L 219.514683 43.153159 
L 220.49609 43.791889 
L 221.477497 42.786229 
L 222.458904 43.506499 
L 223.440311 43.003669 
L 224.421718 43.275469 
L 225.403125 44.131639 
L 225.403125 44.131639 
" style="fill:none;stroke:#008000;stroke-dasharray:9.6,2.4,1.5,2.4;stroke-dashoffset:0;stroke-width:1.5;"/>
   </g>
   <g id="patch_3">
    <path d="M 30.103125 146.899219 
L 30.103125 10.999219 
" style="fill:none;stroke:#000000;stroke-linecap:square;stroke-linejoin:miter;stroke-width:0.8;"/>
   </g>
   <g id="patch_4">
    <path d="M 225.403125 146.899219 
L 225.403125 10.999219 
" style="fill:none;stroke:#000000;stroke-linecap:square;stroke-linejoin:miter;stroke-width:0.8;"/>
   </g>
   <g id="patch_5">
    <path d="M 30.103125 146.899219 
L 225.403125 146.899219 
" style="fill:none;stroke:#000000;stroke-linecap:square;stroke-linejoin:miter;stroke-width:0.8;"/>
   </g>
   <g id="patch_6">
    <path d="M 30.103125 10.999219 
L 225.403125 10.999219 
" style="fill:none;stroke:#000000;stroke-linecap:square;stroke-linejoin:miter;stroke-width:0.8;"/>
   </g>
   <g id="legend_1">
    <g id="patch_7">
     <path d="M 140.634375 141.899219 
L 218.403125 141.899219 
Q 220.403125 141.899219 220.403125 139.899219 
L 220.403125 96.864844 
Q 220.403125 94.864844 218.403125 94.864844 
L 140.634375 94.864844 
Q 138.634375 94.864844 138.634375 96.864844 
L 138.634375 139.899219 
Q 138.634375 141.899219 140.634375 141.899219 
z
" style="fill:#ffffff;opacity:0.8;stroke:#cccccc;stroke-linejoin:miter;"/>
    </g>
    <g id="line2d_24">
     <path d="M 142.634375 102.963281 
L 162.634375 102.963281 
" style="fill:none;stroke:#1f77b4;stroke-linecap:square;stroke-width:1.5;"/>
    </g>
    <g id="line2d_25"/>
    <g id="text_12">
     <!-- train loss -->
     <g transform="translate(170.634375 106.463281)scale(0.1 -0.1)">
      <defs>
       <path d="M 1172 4494 
L 1172 3500 
L 2356 3500 
L 2356 3053 
L 1172 3053 
L 1172 1153 
Q 1172 725 1289 603 
Q 1406 481 1766 481 
L 2356 481 
L 2356 0 
L 1766 0 
Q 1100 0 847 248 
Q 594 497 594 1153 
L 594 3053 
L 172 3053 
L 172 3500 
L 594 3500 
L 594 4494 
L 1172 4494 
z
" id="DejaVuSans-74" transform="scale(0.015625)"/>
       <path d="M 2631 2963 
Q 2534 3019 2420 3045 
Q 2306 3072 2169 3072 
Q 1681 3072 1420 2755 
Q 1159 2438 1159 1844 
L 1159 0 
L 581 0 
L 581 3500 
L 1159 3500 
L 1159 2956 
Q 1341 3275 1631 3429 
Q 1922 3584 2338 3584 
Q 2397 3584 2469 3576 
Q 2541 3569 2628 3553 
L 2631 2963 
z
" id="DejaVuSans-72" transform="scale(0.015625)"/>
       <path d="M 2194 1759 
Q 1497 1759 1228 1600 
Q 959 1441 959 1056 
Q 959 750 1161 570 
Q 1363 391 1709 391 
Q 2188 391 2477 730 
Q 2766 1069 2766 1631 
L 2766 1759 
L 2194 1759 
z
M 3341 1997 
L 3341 0 
L 2766 0 
L 2766 531 
Q 2569 213 2275 61 
Q 1981 -91 1556 -91 
Q 1019 -91 701 211 
Q 384 513 384 1019 
Q 384 1609 779 1909 
Q 1175 2209 1959 2209 
L 2766 2209 
L 2766 2266 
Q 2766 2663 2505 2880 
Q 2244 3097 1772 3097 
Q 1472 3097 1187 3025 
Q 903 2953 641 2809 
L 641 3341 
Q 956 3463 1253 3523 
Q 1550 3584 1831 3584 
Q 2591 3584 2966 3190 
Q 3341 2797 3341 1997 
z
" id="DejaVuSans-61" transform="scale(0.015625)"/>
       <path d="M 603 3500 
L 1178 3500 
L 1178 0 
L 603 0 
L 603 3500 
z
M 603 4863 
L 1178 4863 
L 1178 4134 
L 603 4134 
L 603 4863 
z
" id="DejaVuSans-69" transform="scale(0.015625)"/>
       <path d="M 3513 2113 
L 3513 0 
L 2938 0 
L 2938 2094 
Q 2938 2591 2744 2837 
Q 2550 3084 2163 3084 
Q 1697 3084 1428 2787 
Q 1159 2491 1159 1978 
L 1159 0 
L 581 0 
L 581 3500 
L 1159 3500 
L 1159 2956 
Q 1366 3272 1645 3428 
Q 1925 3584 2291 3584 
Q 2894 3584 3203 3211 
Q 3513 2838 3513 2113 
z
" id="DejaVuSans-6e" transform="scale(0.015625)"/>
       <path id="DejaVuSans-20" transform="scale(0.015625)"/>
       <path d="M 603 4863 
L 1178 4863 
L 1178 0 
L 603 0 
L 603 4863 
z
" id="DejaVuSans-6c" transform="scale(0.015625)"/>
       <path d="M 2834 3397 
L 2834 2853 
Q 2591 2978 2328 3040 
Q 2066 3103 1784 3103 
Q 1356 3103 1142 2972 
Q 928 2841 928 2578 
Q 928 2378 1081 2264 
Q 1234 2150 1697 2047 
L 1894 2003 
Q 2506 1872 2764 1633 
Q 3022 1394 3022 966 
Q 3022 478 2636 193 
Q 2250 -91 1575 -91 
Q 1294 -91 989 -36 
Q 684 19 347 128 
L 347 722 
Q 666 556 975 473 
Q 1284 391 1588 391 
Q 1994 391 2212 530 
Q 2431 669 2431 922 
Q 2431 1156 2273 1281 
Q 2116 1406 1581 1522 
L 1381 1569 
Q 847 1681 609 1914 
Q 372 2147 372 2553 
Q 372 3047 722 3315 
Q 1072 3584 1716 3584 
Q 2034 3584 2315 3537 
Q 2597 3491 2834 3397 
z
" id="DejaVuSans-73" transform="scale(0.015625)"/>
      </defs>
      <use xlink:href="#DejaVuSans-74"/>
      <use x="39.208984" xlink:href="#DejaVuSans-72"/>
      <use x="80.322266" xlink:href="#DejaVuSans-61"/>
      <use x="141.601562" xlink:href="#DejaVuSans-69"/>
      <use x="169.384766" xlink:href="#DejaVuSans-6e"/>
      <use x="232.763672" xlink:href="#DejaVuSans-20"/>
      <use x="264.550781" xlink:href="#DejaVuSans-6c"/>
      <use x="292.333984" xlink:href="#DejaVuSans-6f"/>
      <use x="353.515625" xlink:href="#DejaVuSans-73"/>
      <use x="405.615234" xlink:href="#DejaVuSans-73"/>
     </g>
    </g>
    <g id="line2d_26">
     <path d="M 142.634375 117.641406 
L 162.634375 117.641406 
" style="fill:none;stroke:#bf00bf;stroke-dasharray:5.55,2.4;stroke-dashoffset:0;stroke-width:1.5;"/>
    </g>
    <g id="line2d_27"/>
    <g id="text_13">
     <!-- train acc -->
     <g transform="translate(170.634375 121.141406)scale(0.1 -0.1)">
      <use xlink:href="#DejaVuSans-74"/>
      <use x="39.208984" xlink:href="#DejaVuSans-72"/>
      <use x="80.322266" xlink:href="#DejaVuSans-61"/>
      <use x="141.601562" xlink:href="#DejaVuSans-69"/>
      <use x="169.384766" xlink:href="#DejaVuSans-6e"/>
      <use x="232.763672" xlink:href="#DejaVuSans-20"/>
      <use x="264.550781" xlink:href="#DejaVuSans-61"/>
      <use x="325.830078" xlink:href="#DejaVuSans-63"/>
      <use x="380.810547" xlink:href="#DejaVuSans-63"/>
     </g>
    </g>
    <g id="line2d_28">
     <path d="M 142.634375 132.319531 
L 162.634375 132.319531 
" style="fill:none;stroke:#008000;stroke-dasharray:9.6,2.4,1.5,2.4;stroke-dashoffset:0;stroke-width:1.5;"/>
    </g>
    <g id="line2d_29"/>
    <g id="text_14">
     <!-- test acc -->
     <g transform="translate(170.634375 135.819531)scale(0.1 -0.1)">
      <use xlink:href="#DejaVuSans-74"/>
      <use x="39.208984" xlink:href="#DejaVuSans-65"/>
      <use x="100.732422" xlink:href="#DejaVuSans-73"/>
      <use x="152.832031" xlink:href="#DejaVuSans-74"/>
      <use x="192.041016" xlink:href="#DejaVuSans-20"/>
      <use x="223.828125" xlink:href="#DejaVuSans-61"/>
      <use x="285.107422" xlink:href="#DejaVuSans-63"/>
      <use x="340.087891" xlink:href="#DejaVuSans-63"/>
     </g>
    </g>
   </g>
  </g>
 </g>
 <defs>
  <clipPath id="p882f1ff49f">
   <rect height="135.9" width="195.3" x="30.103125" y="10.999219"/>
  </clipPath>
 </defs>
</svg>