<?xml version="1.0" encoding="utf-8" standalone="no"?>
<!DOCTYPE svg PUBLIC "-//W3C//DTD SVG 1.1//EN"
  "http://www.w3.org/Graphics/SVG/1.1/DTD/svg11.dtd">
<svg height="184.455469pt" version="1.1" viewBox="0 0 245.328125 184.455469" width="245.328125pt" xmlns="http://www.w3.org/2000/svg" xmlns:xlink="http://www.w3.org/1999/xlink">
 <metadata>
  <rdf:RDF xmlns:cc="http://creativecommons.org/ns#" xmlns:dc="http://purl.org/dc/elements/1.1/" xmlns:rdf="http://www.w3.org/1999/02/22-rdf-syntax-ns#">
   <cc:Work>
    <dc:type rdf:resource="http://purl.org/dc/dcmitype/StillImage"/>
    <dc:date>2022-03-30T19:35:47.050989</dc:date>
    <dc:format>image/svg+xml</dc:format>
    <dc:creator>
     <cc:Agent>
      <dc:title>Matplotlib v3.4.0, https://matplotlib.org/</dc:title>
     </cc:Agent>
    </dc:creator>
   </cc:Work>
  </rdf:RDF>
 </metadata>
 <defs>
  <style type="text/css">*{stroke-linecap:butt;stroke-linejoin:round;}</style>
 </defs>
 <g id="figure_1">
  <g id="patch_1">
   <path d="M 0 184.455469 
L 245.328125 184.455469 
L 245.328125 0 
L 0 0 
z
" style="fill:none;"/>
  </g>
  <g id="axes_1">
   <g id="patch_2">
    <path d="M 36.465625 146.899219 
L 231.765625 146.899219 
L 231.765625 10.999219 
L 36.465625 10.999219 
z
" style="fill:#ffffff;"/>
   </g>
   <g id="matplotlib.axis_1">
    <g id="xtick_1">
     <g id="line2d_1">
      <path clip-path="url(#p5b1ad32556)" d="M 63.403556 146.899219 
L 63.403556 10.999219 
" style="fill:none;stroke:#b0b0b0;stroke-linecap:square;stroke-width:0.8;"/>
     </g>
     <g id="line2d_2">
      <defs>
       <path d="M 0 0 
L 0 3.5 
" id="md72af08c0a" style="stroke:#000000;stroke-width:0.8;"/>
      </defs>
      <g>
       <use style="stroke:#000000;stroke-width:0.8;" x="63.403556" xlink:href="#md72af08c0a" y="146.899219"/>
      </g>
     </g>
     <g id="text_1">
      <!-- 5 -->
      <g transform="translate(60.222306 161.497656)scale(0.1 -0.1)">
       <defs>
        <path d="M 691 4666 
L 3169 4666 
L 3169 4134 
L 1269 4134 
L 1269 2991 
Q 1406 3038 1543 3061 
Q 1681 3084 1819 3084 
Q 2600 3084 3056 2656 
Q 3513 2228 3513 1497 
Q 3513 744 3044 326 
Q 2575 -91 1722 -91 
Q 1428 -91 1123 -41 
Q 819 9 494 109 
L 494 744 
Q 775 591 1075 516 
Q 1375 441 1709 441 
Q 2250 441 2565 725 
Q 2881 1009 2881 1497 
Q 2881 1984 2565 2268 
Q 2250 2553 1709 2553 
Q 1456 2553 1204 2497 
Q 953 2441 691 2322 
L 691 4666 
z
" id="DejaVuSans-35" transform="scale(0.015625)"/>
       </defs>
       <use xlink:href="#DejaVuSans-35"/>
      </g>
     </g>
    </g>
    <g id="xtick_2">
     <g id="line2d_3">
      <path clip-path="url(#p5b1ad32556)" d="M 97.07597 146.899219 
L 97.07597 10.999219 
" style="fill:none;stroke:#b0b0b0;stroke-linecap:square;stroke-width:0.8;"/>
     </g>
     <g id="line2d_4">
      <g>
       <use style="stroke:#000000;stroke-width:0.8;" x="97.07597" xlink:href="#md72af08c0a" y="146.899219"/>
      </g>
     </g>
     <g id="text_2">
      <!-- 10 -->
      <g transform="translate(90.71347 161.497656)scale(0.1 -0.1)">
       <defs>
        <path d="M 794 531 
L 1825 531 
L 1825 4091 
L 703 3866 
L 703 4441 
L 1819 4666 
L 2450 4666 
L 2450 531 
L 3481 531 
L 3481 0 
L 794 0 
L 794 531 
z
" id="DejaVuSans-31" transform="scale(0.015625)"/>
        <path d="M 2034 4250 
Q 1547 4250 1301 3770 
Q 1056 3291 1056 2328 
Q 1056 1369 1301 889 
Q 1547 409 2034 409 
Q 2525 409 2770 889 
Q 3016 1369 3016 2328 
Q 3016 3291 2770 3770 
Q 2525 4250 2034 4250 
z
M 2034 4750 
Q 2819 4750 3233 4129 
Q 3647 3509 3647 2328 
Q 3647 1150 3233 529 
Q 2819 -91 2034 -91 
Q 1250 -91 836 529 
Q 422 1150 422 2328 
Q 422 3509 836 4129 
Q 1250 4750 2034 4750 
z
" id="DejaVuSans-30" transform="scale(0.015625)"/>
       </defs>
       <use xlink:href="#DejaVuSans-31"/>
       <use x="63.623047" xlink:href="#DejaVuSans-30"/>
      </g>
     </g>
    </g>
    <g id="xtick_3">
     <g id="line2d_5">
      <path clip-path="url(#p5b1ad32556)" d="M 130.748384 146.899219 
L 130.748384 10.999219 
" style="fill:none;stroke:#b0b0b0;stroke-linecap:square;stroke-width:0.8;"/>
     </g>
     <g id="line2d_6">
      <g>
       <use style="stroke:#000000;stroke-width:0.8;" x="130.748384" xlink:href="#md72af08c0a" y="146.899219"/>
      </g>
     </g>
     <g id="text_3">
      <!-- 15 -->
      <g transform="translate(124.385884 161.497656)scale(0.1 -0.1)">
       <use xlink:href="#DejaVuSans-31"/>
       <use x="63.623047" xlink:href="#DejaVuSans-35"/>
      </g>
     </g>
    </g>
    <g id="xtick_4">
     <g id="line2d_7">
      <path clip-path="url(#p5b1ad32556)" d="M 164.420797 146.899219 
L 164.420797 10.999219 
" style="fill:none;stroke:#b0b0b0;stroke-linecap:square;stroke-width:0.8;"/>
     </g>
     <g id="line2d_8">
      <g>
       <use style="stroke:#000000;stroke-width:0.8;" x="164.420797" xlink:href="#md72af08c0a" y="146.899219"/>
      </g>
     </g>
     <g id="text_4">
      <!-- 20 -->
      <g transform="translate(158.058297 161.497656)scale(0.1 -0.1)">
       <defs>
        <path d="M 1228 531 
L 3431 531 
L 3431 0 
L 469 0 
L 469 531 
Q 828 903 1448 1529 
Q 2069 2156 2228 2338 
Q 2531 2678 2651 2914 
Q 2772 3150 2772 3378 
Q 2772 3750 2511 3984 
Q 2250 4219 1831 4219 
Q 1534 4219 1204 4116 
Q 875 4013 500 3803 
L 500 4441 
Q 881 4594 1212 4672 
Q 1544 4750 1819 4750 
Q 2544 4750 2975 4387 
Q 3406 4025 3406 3419 
Q 3406 3131 3298 2873 
Q 3191 2616 2906 2266 
Q 2828 2175 2409 1742 
Q 1991 1309 1228 531 
z
" id="DejaVuSans-32" transform="scale(0.015625)"/>
       </defs>
       <use xlink:href="#DejaVuSans-32"/>
       <use x="63.623047" xlink:href="#DejaVuSans-30"/>
      </g>
     </g>
    </g>
    <g id="xtick_5">
     <g id="line2d_9">
      <path clip-path="url(#p5b1ad32556)" d="M 198.093211 146.899219 
L 198.093211 10.999219 
" style="fill:none;stroke:#b0b0b0;stroke-linecap:square;stroke-width:0.8;"/>
     </g>
     <g id="line2d_10">
      <g>
       <use style="stroke:#000000;stroke-width:0.8;" x="198.093211" xlink:href="#md72af08c0a" y="146.899219"/>
      </g>
     </g>
     <g id="text_5">
      <!-- 25 -->
      <g transform="translate(191.730711 161.497656)scale(0.1 -0.1)">
       <use xlink:href="#DejaVuSans-32"/>
       <use x="63.623047" xlink:href="#DejaVuSans-35"/>
      </g>
     </g>
    </g>
    <g id="xtick_6">
     <g id="line2d_11">
      <path clip-path="url(#p5b1ad32556)" d="M 231.765625 146.899219 
L 231.765625 10.999219 
" style="fill:none;stroke:#b0b0b0;stroke-linecap:square;stroke-width:0.8;"/>
     </g>
     <g id="line2d_12">
      <g>
       <use style="stroke:#000000;stroke-width:0.8;" x="231.765625" xlink:href="#md72af08c0a" y="146.899219"/>
      </g>
     </g>
     <g id="text_6">
      <!-- 30 -->
      <g transform="translate(225.403125 161.497656)scale(0.1 -0.1)">
       <defs>
        <path d="M 2597 2516 
Q 3050 2419 3304 2112 
Q 3559 1806 3559 1356 
Q 3559 666 3084 287 
Q 2609 -91 1734 -91 
Q 1441 -91 1130 -33 
Q 819 25 488 141 
L 488 750 
Q 750 597 1062 519 
Q 1375 441 1716 441 
Q 2309 441 2620 675 
Q 2931 909 2931 1356 
Q 2931 1769 2642 2001 
Q 2353 2234 1838 2234 
L 1294 2234 
L 1294 2753 
L 1863 2753 
Q 2328 2753 2575 2939 
Q 2822 3125 2822 3475 
Q 2822 3834 2567 4026 
Q 2313 4219 1838 4219 
Q 1578 4219 1281 4162 
Q 984 4106 628 3988 
L 628 4550 
Q 988 4650 1302 4700 
Q 1616 4750 1894 4750 
Q 2613 4750 3031 4423 
Q 3450 4097 3450 3541 
Q 3450 3153 3228 2886 
Q 3006 2619 2597 2516 
z
" id="DejaVuSans-33" transform="scale(0.015625)"/>
       </defs>
       <use xlink:href="#DejaVuSans-33"/>
       <use x="63.623047" xlink:href="#DejaVuSans-30"/>
      </g>
     </g>
    </g>
    <g id="text_7">
     <!-- epoch -->
     <g transform="translate(118.8875 175.175781)scale(0.1 -0.1)">
      <defs>
       <path d="M 3597 1894 
L 3597 1613 
L 953 1613 
Q 991 1019 1311 708 
Q 1631 397 2203 397 
Q 2534 397 2845 478 
Q 3156 559 3463 722 
L 3463 178 
Q 3153 47 2828 -22 
Q 2503 -91 2169 -91 
Q 1331 -91 842 396 
Q 353 884 353 1716 
Q 353 2575 817 3079 
Q 1281 3584 2069 3584 
Q 2775 3584 3186 3129 
Q 3597 2675 3597 1894 
z
M 3022 2063 
Q 3016 2534 2758 2815 
Q 2500 3097 2075 3097 
Q 1594 3097 1305 2825 
Q 1016 2553 972 2059 
L 3022 2063 
z
" id="DejaVuSans-65" transform="scale(0.015625)"/>
       <path d="M 1159 525 
L 1159 -1331 
L 581 -1331 
L 581 3500 
L 1159 3500 
L 1159 2969 
Q 1341 3281 1617 3432 
Q 1894 3584 2278 3584 
Q 2916 3584 3314 3078 
Q 3713 2572 3713 1747 
Q 3713 922 3314 415 
Q 2916 -91 2278 -91 
Q 1894 -91 1617 61 
Q 1341 213 1159 525 
z
M 3116 1747 
Q 3116 2381 2855 2742 
Q 2594 3103 2138 3103 
Q 1681 3103 1420 2742 
Q 1159 2381 1159 1747 
Q 1159 1113 1420 752 
Q 1681 391 2138 391 
Q 2594 391 2855 752 
Q 3116 1113 3116 1747 
z
" id="DejaVuSans-70" transform="scale(0.015625)"/>
       <path d="M 1959 3097 
Q 1497 3097 1228 2736 
Q 959 2375 959 1747 
Q 959 1119 1226 758 
Q 1494 397 1959 397 
Q 2419 397 2687 759 
Q 2956 1122 2956 1747 
Q 2956 2369 2687 2733 
Q 2419 3097 1959 3097 
z
M 1959 3584 
Q 2709 3584 3137 3096 
Q 3566 2609 3566 1747 
Q 3566 888 3137 398 
Q 2709 -91 1959 -91 
Q 1206 -91 779 398 
Q 353 888 353 1747 
Q 353 2609 779 3096 
Q 1206 3584 1959 3584 
z
" id="DejaVuSans-6f" transform="scale(0.015625)"/>
       <path d="M 3122 3366 
L 3122 2828 
Q 2878 2963 2633 3030 
Q 2388 3097 2138 3097 
Q 1578 3097 1268 2742 
Q 959 2388 959 1747 
Q 959 1106 1268 751 
Q 1578 397 2138 397 
Q 2388 397 2633 464 
Q 2878 531 3122 666 
L 3122 134 
Q 2881 22 2623 -34 
Q 2366 -91 2075 -91 
Q 1284 -91 818 406 
Q 353 903 353 1747 
Q 353 2603 823 3093 
Q 1294 3584 2113 3584 
Q 2378 3584 2631 3529 
Q 2884 3475 3122 3366 
z
" id="DejaVuSans-63" transform="scale(0.015625)"/>
       <path d="M 3513 2113 
L 3513 0 
L 2938 0 
L 2938 2094 
Q 2938 2591 2744 2837 
Q 2550 3084 2163 3084 
Q 1697 3084 1428 2787 
Q 1159 2491 1159 1978 
L 1159 0 
L 581 0 
L 581 4863 
L 1159 4863 
L 1159 2956 
Q 1366 3272 1645 3428 
Q 1925 3584 2291 3584 
Q 2894 3584 3203 3211 
Q 3513 2838 3513 2113 
z
" id="DejaVuSans-68" transform="scale(0.015625)"/>
      </defs>
      <use xlink:href="#DejaVuSans-65"/>
      <use x="61.523438" xlink:href="#DejaVuSans-70"/>
      <use x="125" xlink:href="#DejaVuSans-6f"/>
      <use x="186.181641" xlink:href="#DejaVuSans-63"/>
      <use x="241.162109" xlink:href="#DejaVuSans-68"/>
     </g>
    </g>
   </g>
   <g id="matplotlib.axis_2">
    <g id="ytick_1">
     <g id="line2d_13">
      <path clip-path="url(#p5b1ad32556)" d="M 36.465625 146.899219 
L 231.765625 146.899219 
" style="fill:none;stroke:#b0b0b0;stroke-linecap:square;stroke-width:0.8;"/>
     </g>
     <g id="line2d_14">
      <defs>
       <path d="M 0 0 
L -3.5 0 
" id="mb1e92e4472" style="stroke:#000000;stroke-width:0.8;"/>
      </defs>
      <g>
       <use style="stroke:#000000;stroke-width:0.8;" x="36.465625" xlink:href="#mb1e92e4472" y="146.899219"/>
      </g>
     </g>
     <g id="text_8">
      <!-- 0.85 -->
      <g transform="translate(7.2 150.698437)scale(0.1 -0.1)">
       <defs>
        <path d="M 684 794 
L 1344 794 
L 1344 0 
L 684 0 
L 684 794 
z
" id="DejaVuSans-2e" transform="scale(0.015625)"/>
        <path d="M 2034 2216 
Q 1584 2216 1326 1975 
Q 1069 1734 1069 1313 
Q 1069 891 1326 650 
Q 1584 409 2034 409 
Q 2484 409 2743 651 
Q 3003 894 3003 1313 
Q 3003 1734 2745 1975 
Q 2488 2216 2034 2216 
z
M 1403 2484 
Q 997 2584 770 2862 
Q 544 3141 544 3541 
Q 544 4100 942 4425 
Q 1341 4750 2034 4750 
Q 2731 4750 3128 4425 
Q 3525 4100 3525 3541 
Q 3525 3141 3298 2862 
Q 3072 2584 2669 2484 
Q 3125 2378 3379 2068 
Q 3634 1759 3634 1313 
Q 3634 634 3220 271 
Q 2806 -91 2034 -91 
Q 1263 -91 848 271 
Q 434 634 434 1313 
Q 434 1759 690 2068 
Q 947 2378 1403 2484 
z
M 1172 3481 
Q 1172 3119 1398 2916 
Q 1625 2713 2034 2713 
Q 2441 2713 2670 2916 
Q 2900 3119 2900 3481 
Q 2900 3844 2670 4047 
Q 2441 4250 2034 4250 
Q 1625 4250 1398 4047 
Q 1172 3844 1172 3481 
z
" id="DejaVuSans-38" transform="scale(0.015625)"/>
       </defs>
       <use xlink:href="#DejaVuSans-30"/>
       <use x="63.623047" xlink:href="#DejaVuSans-2e"/>
       <use x="95.410156" xlink:href="#DejaVuSans-38"/>
       <use x="159.033203" xlink:href="#DejaVuSans-35"/>
      </g>
     </g>
    </g>
    <g id="ytick_2">
     <g id="line2d_15">
      <path clip-path="url(#p5b1ad32556)" d="M 36.465625 101.599219 
L 231.765625 101.599219 
" style="fill:none;stroke:#b0b0b0;stroke-linecap:square;stroke-width:0.8;"/>
     </g>
     <g id="line2d_16">
      <g>
       <use style="stroke:#000000;stroke-width:0.8;" x="36.465625" xlink:href="#mb1e92e4472" y="101.599219"/>
      </g>
     </g>
     <g id="text_9">
      <!-- 0.90 -->
      <g transform="translate(7.2 105.398438)scale(0.1 -0.1)">
       <defs>
        <path d="M 703 97 
L 703 672 
Q 941 559 1184 500 
Q 1428 441 1663 441 
Q 2288 441 2617 861 
Q 2947 1281 2994 2138 
Q 2813 1869 2534 1725 
Q 2256 1581 1919 1581 
Q 1219 1581 811 2004 
Q 403 2428 403 3163 
Q 403 3881 828 4315 
Q 1253 4750 1959 4750 
Q 2769 4750 3195 4129 
Q 3622 3509 3622 2328 
Q 3622 1225 3098 567 
Q 2575 -91 1691 -91 
Q 1453 -91 1209 -44 
Q 966 3 703 97 
z
M 1959 2075 
Q 2384 2075 2632 2365 
Q 2881 2656 2881 3163 
Q 2881 3666 2632 3958 
Q 2384 4250 1959 4250 
Q 1534 4250 1286 3958 
Q 1038 3666 1038 3163 
Q 1038 2656 1286 2365 
Q 1534 2075 1959 2075 
z
" id="DejaVuSans-39" transform="scale(0.015625)"/>
       </defs>
       <use xlink:href="#DejaVuSans-30"/>
       <use x="63.623047" xlink:href="#DejaVuSans-2e"/>
       <use x="95.410156" xlink:href="#DejaVuSans-39"/>
       <use x="159.033203" xlink:href="#DejaVuSans-30"/>
      </g>
     </g>
    </g>
    <g id="ytick_3">
     <g id="line2d_17">
      <path clip-path="url(#p5b1ad32556)" d="M 36.465625 56.299219 
L 231.765625 56.299219 
" style="fill:none;stroke:#b0b0b0;stroke-linecap:square;stroke-width:0.8;"/>
     </g>
     <g id="line2d_18">
      <g>
       <use style="stroke:#000000;stroke-width:0.8;" x="36.465625" xlink:href="#mb1e92e4472" y="56.299219"/>
      </g>
     </g>
     <g id="text_10">
      <!-- 0.95 -->
      <g transform="translate(7.2 60.098437)scale(0.1 -0.1)">
       <use xlink:href="#DejaVuSans-30"/>
       <use x="63.623047" xlink:href="#DejaVuSans-2e"/>
       <use x="95.410156" xlink:href="#DejaVuSans-39"/>
       <use x="159.033203" xlink:href="#DejaVuSans-35"/>
      </g>
     </g>
    </g>
    <g id="ytick_4">
     <g id="line2d_19">
      <path clip-path="url(#p5b1ad32556)" d="M 36.465625 10.999219 
L 231.765625 10.999219 
" style="fill:none;stroke:#b0b0b0;stroke-linecap:square;stroke-width:0.8;"/>
     </g>
     <g id="line2d_20">
      <g>
       <use style="stroke:#000000;stroke-width:0.8;" x="36.465625" xlink:href="#mb1e92e4472" y="10.999219"/>
      </g>
     </g>
     <g id="text_11">
      <!-- 1.00 -->
      <g transform="translate(7.2 14.798438)scale(0.1 -0.1)">
       <use xlink:href="#DejaVuSans-31"/>
       <use x="63.623047" xlink:href="#DejaVuSans-2e"/>
       <use x="95.410156" xlink:href="#DejaVuSans-30"/>
       <use x="159.033203" xlink:href="#DejaVuSans-30"/>
      </g>
     </g>
    </g>
   </g>
   <g id="line2d_21">
    <path clip-path="url(#p5b1ad32556)" d="M 31.078039 136.43784 
L 32.424935 136.772005 
L 33.771832 136.943048 
L 36.465625 136.63043 
L 37.812522 136.010853 
L 39.159418 136.413155 
L 40.506315 137.218018 
L 43.200108 137.220105 
L 44.547004 136.714174 
L 45.893901 137.02574 
L 47.240797 137.154039 
L 48.587694 137.406585 
L 49.934591 137.237702 
L 51.281487 140.156618 
L 52.628384 138.254628 
L 53.97528 138.196679 
L 55.322177 138.000878 
L 56.669073 137.980504 
L 58.01597 139.175174 
L 59.362866 139.613841 
L 60.709763 139.467453 
L 63.403556 138.628243 
L 64.750453 139.158396 
L 66.097349 138.649888 
L 67.444246 138.742618 
L 68.791142 138.106411 
L 70.138039 138.345123 
L 71.484935 140.166162 
L 72.831832 139.228576 
L 74.178728 139.078572 
L 75.525625 139.567023 
L 76.872522 139.707644 
L 78.219418 140.828991 
L 79.566315 140.210809 
L 80.913211 140.068355 
L 82.260108 139.760618 
L 83.607004 139.807443 
L 84.953901 139.330172 
L 86.300797 139.567356 
L 87.647694 139.983359 
L 88.994591 139.981353 
L 90.341487 139.730575 
L 91.688384 140.096874 
L 93.03528 139.513991 
L 94.382177 139.935783 
L 95.729073 139.830468 
L 97.07597 140.214519 
L 98.422866 139.415414 
L 99.769763 138.872894 
L 102.463556 139.23072 
L 103.810453 139.44105 
L 105.157349 140.653673 
L 106.504246 140.475429 
L 107.851142 140.446222 
L 109.198039 140.690086 
L 110.544935 140.592539 
L 111.891832 141.733238 
L 113.238728 141.775177 
L 114.585625 141.611744 
L 115.932522 141.578689 
L 117.279418 141.268408 
L 118.626315 139.772419 
L 119.973211 140.47025 
L 121.320108 140.981463 
L 122.667004 140.872388 
L 124.013901 140.446662 
L 125.360797 141.281255 
L 126.707694 141.563663 
L 128.054591 141.052238 
L 129.401487 140.856581 
L 130.748384 140.921933 
L 132.09528 141.385224 
L 133.442177 141.257176 
L 134.789073 141.364025 
L 137.482866 140.765798 
L 138.829763 141.611456 
L 141.523556 141.079679 
L 144.217349 141.646648 
L 145.564246 141.772316 
L 146.911142 142.163604 
L 149.604935 142.180073 
L 150.951832 142.026973 
L 152.298728 142.333537 
L 153.645625 141.835699 
L 154.992522 141.950276 
L 156.339418 141.632799 
L 157.686315 141.811065 
L 159.033211 142.57495 
L 160.380108 142.389784 
L 161.727004 142.61496 
L 163.073901 142.151255 
L 164.420797 142.122129 
L 165.767694 143.182478 
L 167.114591 142.63078 
L 169.808384 141.932155 
L 171.15528 141.989132 
L 172.502177 142.576126 
L 175.19597 141.959642 
L 176.542866 142.163389 
L 179.236659 141.726634 
L 180.583556 142.595097 
L 183.277349 141.795821 
L 184.624246 141.836935 
L 185.971142 141.149386 
L 187.318039 142.004686 
L 188.664935 142.441249 
L 190.011832 142.586565 
L 191.358728 142.548926 
L 192.705625 143.216973 
L 194.052522 142.353508 
L 195.399418 142.17283 
L 196.746315 142.221669 
L 198.093211 142.387946 
L 199.440108 141.804576 
L 200.787004 142.603458 
L 202.133901 142.488059 
L 203.480797 142.666916 
L 204.827694 142.654471 
L 206.174591 143.610412 
L 207.521487 143.294634 
L 210.21528 143.314255 
L 211.562177 143.157915 
L 212.909073 142.660561 
L 214.25597 143.188947 
L 215.602866 143.19609 
L 216.949763 142.917603 
L 219.643556 143.43234 
L 220.990453 142.750568 
L 222.337349 142.652782 
L 223.684246 142.686175 
L 225.031142 143.020021 
L 226.378039 143.488765 
L 227.724935 143.392139 
L 229.071832 143.498073 
L 230.418728 143.277208 
L 231.765625 143.280691 
L 231.765625 143.280691 
" style="fill:none;stroke:#1f77b4;stroke-linecap:square;stroke-width:1.5;"/>
   </g>
   <g id="line2d_22">
    <path clip-path="url(#p5b1ad32556)" d="M 31.078039 14.170219 
L 32.424935 13.898419 
L 33.771832 13.898419 
L 36.465625 14.188339 
L 37.812522 14.079619 
L 39.159418 14.170219 
L 40.506315 13.717219 
L 43.200108 13.807819 
L 44.547004 14.260819 
L 48.587694 13.875769 
L 49.934591 13.989019 
L 51.281487 12.630019 
L 52.628384 13.671919 
L 53.97528 13.385019 
L 55.322177 13.649269 
L 56.669073 13.608499 
L 58.01597 12.901819 
L 60.709763 12.932019 
L 62.056659 13.015069 
L 63.403556 13.318579 
L 64.750453 13.445419 
L 66.097349 13.445419 
L 67.444246 13.324619 
L 68.791142 13.694569 
L 70.138039 13.572259 
L 71.484935 12.720619 
L 72.831832 12.992419 
L 74.178728 13.143419 
L 75.525625 12.924469 
L 76.872522 12.901819 
L 78.219418 12.630019 
L 79.566315 12.901819 
L 82.260108 13.128319 
L 86.300797 13.083019 
L 87.647694 12.962219 
L 91.688384 13.354819 
L 93.03528 13.264219 
L 94.382177 12.962219 
L 95.729073 13.015069 
L 97.07597 12.865579 
L 99.769763 13.264219 
L 103.810453 13.046779 
L 105.157349 13.264219 
L 107.851142 12.962219 
L 109.198039 12.856519 
L 110.544935 12.865579 
L 111.891832 11.995819 
L 117.279418 12.630019 
L 118.626315 13.173619 
L 121.320108 12.781019 
L 122.667004 12.743269 
L 124.013901 12.883699 
L 125.360797 11.995819 
L 126.707694 12.177019 
L 129.401487 12.743269 
L 130.748384 12.702499 
L 132.09528 12.539419 
L 134.789073 12.509219 
L 137.482866 12.829339 
L 138.829763 12.448819 
L 140.176659 12.448819 
L 141.523556 12.630019 
L 145.564246 12.267619 
L 149.604935 12.244969 
L 150.951832 12.412579 
L 154.992522 12.207219 
L 156.339418 12.562069 
L 157.686315 12.539419 
L 159.033211 12.177019 
L 160.380108 12.177019 
L 161.727004 11.995819 
L 163.073901 12.154369 
L 164.420797 12.195139 
L 165.767694 11.814619 
L 168.461487 12.297819 
L 171.15528 12.340099 
L 172.502177 12.086419 
L 173.849073 12.086419 
L 175.19597 12.207219 
L 176.542866 12.131719 
L 177.889763 12.249499 
L 179.236659 12.720619 
L 180.583556 12.312919 
L 183.277349 12.652669 
L 184.624246 12.539419 
L 185.971142 12.630019 
L 187.318039 12.312919 
L 188.664935 12.146819 
L 192.705625 12.086419 
L 198.093211 12.231379 
L 199.440108 12.448819 
L 200.787004 12.222319 
L 202.133901 12.328019 
L 204.827694 12.140779 
L 208.868384 11.965619 
L 212.909073 12.177019 
L 214.25597 11.950519 
L 216.949763 12.086419 
L 218.296659 11.959579 
L 219.643556 12.086419 
L 220.990453 12.448819 
L 227.724935 11.950519 
L 230.418728 11.927869 
L 231.765625 11.941459 
L 231.765625 11.941459 
" style="fill:none;stroke:#bf00bf;stroke-dasharray:5.55,2.4;stroke-dashoffset:0;stroke-width:1.5;"/>
   </g>
   <g id="line2d_23">
    <path clip-path="url(#p5b1ad32556)" d="M 36.465625 57.024019 
L 43.200108 56.027419 
L 49.934591 58.020619 
L 56.669073 57.477019 
L 63.403556 55.574419 
L 70.138039 55.846219 
L 76.872522 56.027419 
L 83.607004 57.024019 
L 90.341487 54.849619 
L 97.07597 56.208619 
L 103.810453 56.752219 
L 110.544935 53.490619 
L 117.279418 54.849619 
L 124.013901 54.487219 
L 130.748384 55.030819 
L 137.482866 53.762419 
L 144.217349 53.400019 
L 150.951832 55.483819 
L 157.686315 54.759019 
L 164.420797 54.215419 
L 171.15528 53.037619 
L 177.889763 55.302619 
L 184.624246 53.853019 
L 191.358728 54.759019 
L 198.093211 55.393219 
L 204.827694 53.671819 
L 211.562177 53.943619 
L 218.296659 54.034219 
L 225.031142 54.849619 
L 231.765625 54.034219 
" style="fill:none;stroke:#008000;stroke-dasharray:9.6,2.4,1.5,2.4;stroke-dashoffset:0;stroke-width:1.5;"/>
   </g>
   <g id="patch_3">
    <path d="M 36.465625 146.899219 
L 36.465625 10.999219 
" style="fill:none;stroke:#000000;stroke-linecap:square;stroke-linejoin:miter;stroke-width:0.8;"/>
   </g>
   <g id="patch_4">
    <path d="M 231.765625 146.899219 
L 231.765625 10.999219 
" style="fill:none;stroke:#000000;stroke-linecap:square;stroke-linejoin:miter;stroke-width:0.8;"/>
   </g>
   <g id="patch_5">
    <path d="M 36.465625 146.899219 
L 231.765625 146.899219 
" style="fill:none;stroke:#000000;stroke-linecap:square;stroke-linejoin:miter;stroke-width:0.8;"/>
   </g>
   <g id="patch_6">
    <path d="M 36.465625 10.999219 
L 231.765625 10.999219 
" style="fill:none;stroke:#000000;stroke-linecap:square;stroke-linejoin:miter;stroke-width:0.8;"/>
   </g>
   <g id="legend_1">
    <g id="patch_7">
     <path d="M 116.351563 102.466406 
L 224.765625 102.466406 
Q 226.765625 102.466406 226.765625 100.466406 
L 226.765625 57.432031 
Q 226.765625 55.432031 224.765625 55.432031 
L 116.351563 55.432031 
Q 114.351563 55.432031 114.351563 57.432031 
L 114.351563 100.466406 
Q 114.351563 102.466406 116.351563 102.466406 
z
" style="fill:#ffffff;opacity:0.8;stroke:#cccccc;stroke-linejoin:miter;"/>
    </g>
    <g id="line2d_24">
     <path d="M 118.351563 63.530469 
L 138.351562 63.530469 
" style="fill:none;stroke:#1f77b4;stroke-linecap:square;stroke-width:1.5;"/>
    </g>
    <g id="line2d_25"/>
    <g id="text_12">
     <!-- 0.85+train loss -->
     <g transform="translate(146.351562 67.030469)scale(0.1 -0.1)">
      <defs>
       <path d="M 2944 4013 
L 2944 2272 
L 4684 2272 
L 4684 1741 
L 2944 1741 
L 2944 0 
L 2419 0 
L 2419 1741 
L 678 1741 
L 678 2272 
L 2419 2272 
L 2419 4013 
L 2944 4013 
z
" id="DejaVuSans-2b" transform="scale(0.015625)"/>
       <path d="M 1172 4494 
L 1172 3500 
L 2356 3500 
L 2356 3053 
L 1172 3053 
L 1172 1153 
Q 1172 725 1289 603 
Q 1406 481 1766 481 
L 2356 481 
L 2356 0 
L 1766 0 
Q 1100 0 847 248 
Q 594 497 594 1153 
L 594 3053 
L 172 3053 
L 172 3500 
L 594 3500 
L 594 4494 
L 1172 4494 
z
" id="DejaVuSans-74" transform="scale(0.015625)"/>
       <path d="M 2631 2963 
Q 2534 3019 2420 3045 
Q 2306 3072 2169 3072 
Q 1681 3072 1420 2755 
Q 1159 2438 1159 1844 
L 1159 0 
L 581 0 
L 581 3500 
L 1159 3500 
L 1159 2956 
Q 1341 3275 1631 3429 
Q 1922 3584 2338 3584 
Q 2397 3584 2469 3576 
Q 2541 3569 2628 3553 
L 2631 2963 
z
" id="DejaVuSans-72" transform="scale(0.015625)"/>
       <path d="M 2194 1759 
Q 1497 1759 1228 1600 
Q 959 1441 959 1056 
Q 959 750 1161 570 
Q 1363 391 1709 391 
Q 2188 391 2477 730 
Q 2766 1069 2766 1631 
L 2766 1759 
L 2194 1759 
z
M 3341 1997 
L 3341 0 
L 2766 0 
L 2766 531 
Q 2569 213 2275 61 
Q 1981 -91 1556 -91 
Q 1019 -91 701 211 
Q 384 513 384 1019 
Q 384 1609 779 1909 
Q 1175 2209 1959 2209 
L 2766 2209 
L 2766 2266 
Q 2766 2663 2505 2880 
Q 2244 3097 1772 3097 
Q 1472 3097 1187 3025 
Q 903 2953 641 2809 
L 641 3341 
Q 956 3463 1253 3523 
Q 1550 3584 1831 3584 
Q 2591 3584 2966 3190 
Q 3341 2797 3341 1997 
z
" id="DejaVuSans-61" transform="scale(0.015625)"/>
       <path d="M 603 3500 
L 1178 3500 
L 1178 0 
L 603 0 
L 603 3500 
z
M 603 4863 
L 1178 4863 
L 1178 4134 
L 603 4134 
L 603 4863 
z
" id="DejaVuSans-69" transform="scale(0.015625)"/>
       <path d="M 3513 2113 
L 3513 0 
L 2938 0 
L 2938 2094 
Q 2938 2591 2744 2837 
Q 2550 3084 2163 3084 
Q 1697 3084 1428 2787 
Q 1159 2491 1159 1978 
L 1159 0 
L 581 0 
L 581 3500 
L 1159 3500 
L 1159 2956 
Q 1366 3272 1645 3428 
Q 1925 3584 2291 3584 
Q 2894 3584 3203 3211 
Q 3513 2838 3513 2113 
z
" id="DejaVuSans-6e" transform="scale(0.015625)"/>
       <path id="DejaVuSans-20" transform="scale(0.015625)"/>
       <path d="M 603 4863 
L 1178 4863 
L 1178 0 
L 603 0 
L 603 4863 
z
" id="DejaVuSans-6c" transform="scale(0.015625)"/>
       <path d="M 2834 3397 
L 2834 2853 
Q 2591 2978 2328 3040 
Q 2066 3103 1784 3103 
Q 1356 3103 1142 2972 
Q 928 2841 928 2578 
Q 928 2378 1081 2264 
Q 1234 2150 1697 2047 
L 1894 2003 
Q 2506 1872 2764 1633 
Q 3022 1394 3022 966 
Q 3022 478 2636 193 
Q 2250 -91 1575 -91 
Q 1294 -91 989 -36 
Q 684 19 347 128 
L 347 722 
Q 666 556 975 473 
Q 1284 391 1588 391 
Q 1994 391 2212 530 
Q 2431 669 2431 922 
Q 2431 1156 2273 1281 
Q 2116 1406 1581 1522 
L 1381 1569 
Q 847 1681 609 1914 
Q 372 2147 372 2553 
Q 372 3047 722 3315 
Q 1072 3584 1716 3584 
Q 2034 3584 2315 3537 
Q 2597 3491 2834 3397 
z
" id="DejaVuSans-73" transform="scale(0.015625)"/>
      </defs>
      <use xlink:href="#DejaVuSans-30"/>
      <use x="63.623047" xlink:href="#DejaVuSans-2e"/>
      <use x="95.410156" xlink:href="#DejaVuSans-38"/>
      <use x="159.033203" xlink:href="#DejaVuSans-35"/>
      <use x="222.65625" xlink:href="#DejaVuSans-2b"/>
      <use x="306.445312" xlink:href="#DejaVuSans-74"/>
      <use x="345.654297" xlink:href="#DejaVuSans-72"/>
      <use x="386.767578" xlink:href="#DejaVuSans-61"/>
      <use x="448.046875" xlink:href="#DejaVuSans-69"/>
      <use x="475.830078" xlink:href="#DejaVuSans-6e"/>
      <use x="539.208984" xlink:href="#DejaVuSans-20"/>
      <use x="570.996094" xlink:href="#DejaVuSans-6c"/>
      <use x="598.779297" xlink:href="#DejaVuSans-6f"/>
      <use x="659.960938" xlink:href="#DejaVuSans-73"/>
      <use x="712.060547" xlink:href="#DejaVuSans-73"/>
     </g>
    </g>
    <g id="line2d_26">
     <path d="M 118.351563 78.208594 
L 138.351562 78.208594 
" style="fill:none;stroke:#bf00bf;stroke-dasharray:5.55,2.4;stroke-dashoffset:0;stroke-width:1.5;"/>
    </g>
    <g id="line2d_27"/>
    <g id="text_13">
     <!-- train acc -->
     <g transform="translate(146.351562 81.708594)scale(0.1 -0.1)">
      <use xlink:href="#DejaVuSans-74"/>
      <use x="39.208984" xlink:href="#DejaVuSans-72"/>
      <use x="80.322266" xlink:href="#DejaVuSans-61"/>
      <use x="141.601562" xlink:href="#DejaVuSans-69"/>
      <use x="169.384766" xlink:href="#DejaVuSans-6e"/>
      <use x="232.763672" xlink:href="#DejaVuSans-20"/>
      <use x="264.550781" xlink:href="#DejaVuSans-61"/>
      <use x="325.830078" xlink:href="#DejaVuSans-63"/>
      <use x="380.810547" xlink:href="#DejaVuSans-63"/>
     </g>
    </g>
    <g id="line2d_28">
     <path d="M 118.351563 92.886719 
L 138.351562 92.886719 
" style="fill:none;stroke:#008000;stroke-dasharray:9.6,2.4,1.5,2.4;stroke-dashoffset:0;stroke-width:1.5;"/>
    </g>
    <g id="line2d_29"/>
    <g id="text_14">
     <!-- test acc -->
     <g transform="translate(146.351562 96.386719)scale(0.1 -0.1)">
      <use xlink:href="#DejaVuSans-74"/>
      <use x="39.208984" xlink:href="#DejaVuSans-65"/>
      <use x="100.732422" xlink:href="#DejaVuSans-73"/>
      <use x="152.832031" xlink:href="#DejaVuSans-74"/>
      <use x="192.041016" xlink:href="#DejaVuSans-20"/>
      <use x="223.828125" xlink:href="#DejaVuSans-61"/>
      <use x="285.107422" xlink:href="#DejaVuSans-63"/>
      <use x="340.087891" xlink:href="#DejaVuSans-63"/>
     </g>
    </g>
   </g>
  </g>
 </g>
 <defs>
  <clipPath id="p5b1ad32556">
   <rect height="135.9" width="195.3" x="36.465625" y="10.999219"/>
  </clipPath>
 </defs>
</svg>