<?xml version="1.0" encoding="utf-8" standalone="no"?>
<!DOCTYPE svg PUBLIC "-//W3C//DTD SVG 1.1//EN"
  "http://www.w3.org/Graphics/SVG/1.1/DTD/svg11.dtd">
<svg height="184.455469pt" version="1.1" viewBox="0 0 238.965625 184.455469" width="238.965625pt" xmlns="http://www.w3.org/2000/svg" xmlns:xlink="http://www.w3.org/1999/xlink">
 <metadata>
  <rdf:RDF xmlns:cc="http://creativecommons.org/ns#" xmlns:dc="http://purl.org/dc/elements/1.1/" xmlns:rdf="http://www.w3.org/1999/02/22-rdf-syntax-ns#">
   <cc:Work>
    <dc:type rdf:resource="http://purl.org/dc/dcmitype/StillImage"/>
    <dc:date>2022-03-21T15:55:59.883573</dc:date>
    <dc:format>image/svg+xml</dc:format>
    <dc:creator>
     <cc:Agent>
      <dc:title>Matplotlib v3.4.0, https://matplotlib.org/</dc:title>
     </cc:Agent>
    </dc:creator>
   </cc:Work>
  </rdf:RDF>
 </metadata>
 <defs>
  <style type="text/css">*{stroke-linecap:butt;stroke-linejoin:round;}</style>
 </defs>
 <g id="figure_1">
  <g id="patch_1">
   <path d="M 0 184.455469 
L 238.965625 184.455469 
L 238.965625 -0 
L 0 -0 
z
" style="fill:none;"/>
  </g>
  <g id="axes_1">
   <g id="patch_2">
    <path d="M 30.103125 146.899219 
L 225.403125 146.899219 
L 225.403125 10.999219 
L 30.103125 10.999219 
z
" style="fill:#ffffff;"/>
   </g>
   <g id="matplotlib.axis_1">
    <g id="xtick_1">
     <g id="line2d_1">
      <path clip-path="url(#pe40a35e70b)" d="M 62.653125 146.899219 
L 62.653125 10.999219 
" style="fill:none;stroke:#b0b0b0;stroke-linecap:square;stroke-width:0.8;"/>
     </g>
     <g id="line2d_2">
      <defs>
       <path d="M 0 0 
L 0 3.5 
" id="mec0d7d4360" style="stroke:#000000;stroke-width:0.8;"/>
      </defs>
      <g>
       <use style="stroke:#000000;stroke-width:0.8;" x="62.653125" xlink:href="#mec0d7d4360" y="146.899219"/>
      </g>
     </g>
     <g id="text_1">
      <!-- 5 -->
      <g transform="translate(59.471875 161.497656)scale(0.1 -0.1)">
       <defs>
        <path d="M 691 4666 
L 3169 4666 
L 3169 4134 
L 1269 4134 
L 1269 2991 
Q 1406 3038 1543 3061 
Q 1681 3084 1819 3084 
Q 2600 3084 3056 2656 
Q 3513 2228 3513 1497 
Q 3513 744 3044 326 
Q 2575 -91 1722 -91 
Q 1428 -91 1123 -41 
Q 819 9 494 109 
L 494 744 
Q 775 591 1075 516 
Q 1375 441 1709 441 
Q 2250 441 2565 725 
Q 2881 1009 2881 1497 
Q 2881 1984 2565 2268 
Q 2250 2553 1709 2553 
Q 1456 2553 1204 2497 
Q 953 2441 691 2322 
L 691 4666 
z
" id="DejaVuSans-35" transform="scale(0.015625)"/>
       </defs>
       <use xlink:href="#DejaVuSans-35"/>
      </g>
     </g>
    </g>
    <g id="xtick_2">
     <g id="line2d_3">
      <path clip-path="url(#pe40a35e70b)" d="M 103.340625 146.899219 
L 103.340625 10.999219 
" style="fill:none;stroke:#b0b0b0;stroke-linecap:square;stroke-width:0.8;"/>
     </g>
     <g id="line2d_4">
      <g>
       <use style="stroke:#000000;stroke-width:0.8;" x="103.340625" xlink:href="#mec0d7d4360" y="146.899219"/>
      </g>
     </g>
     <g id="text_2">
      <!-- 10 -->
      <g transform="translate(96.978125 161.497656)scale(0.1 -0.1)">
       <defs>
        <path d="M 794 531 
L 1825 531 
L 1825 4091 
L 703 3866 
L 703 4441 
L 1819 4666 
L 2450 4666 
L 2450 531 
L 3481 531 
L 3481 0 
L 794 0 
L 794 531 
z
" id="DejaVuSans-31" transform="scale(0.015625)"/>
        <path d="M 2034 4250 
Q 1547 4250 1301 3770 
Q 1056 3291 1056 2328 
Q 1056 1369 1301 889 
Q 1547 409 2034 409 
Q 2525 409 2770 889 
Q 3016 1369 3016 2328 
Q 3016 3291 2770 3770 
Q 2525 4250 2034 4250 
z
M 2034 4750 
Q 2819 4750 3233 4129 
Q 3647 3509 3647 2328 
Q 3647 1150 3233 529 
Q 2819 -91 2034 -91 
Q 1250 -91 836 529 
Q 422 1150 422 2328 
Q 422 3509 836 4129 
Q 1250 4750 2034 4750 
z
" id="DejaVuSans-30" transform="scale(0.015625)"/>
       </defs>
       <use xlink:href="#DejaVuSans-31"/>
       <use x="63.623047" xlink:href="#DejaVuSans-30"/>
      </g>
     </g>
    </g>
    <g id="xtick_3">
     <g id="line2d_5">
      <path clip-path="url(#pe40a35e70b)" d="M 144.028125 146.899219 
L 144.028125 10.999219 
" style="fill:none;stroke:#b0b0b0;stroke-linecap:square;stroke-width:0.8;"/>
     </g>
     <g id="line2d_6">
      <g>
       <use style="stroke:#000000;stroke-width:0.8;" x="144.028125" xlink:href="#mec0d7d4360" y="146.899219"/>
      </g>
     </g>
     <g id="text_3">
      <!-- 15 -->
      <g transform="translate(137.665625 161.497656)scale(0.1 -0.1)">
       <use xlink:href="#DejaVuSans-31"/>
       <use x="63.623047" xlink:href="#DejaVuSans-35"/>
      </g>
     </g>
    </g>
    <g id="xtick_4">
     <g id="line2d_7">
      <path clip-path="url(#pe40a35e70b)" d="M 184.715625 146.899219 
L 184.715625 10.999219 
" style="fill:none;stroke:#b0b0b0;stroke-linecap:square;stroke-width:0.8;"/>
     </g>
     <g id="line2d_8">
      <g>
       <use style="stroke:#000000;stroke-width:0.8;" x="184.715625" xlink:href="#mec0d7d4360" y="146.899219"/>
      </g>
     </g>
     <g id="text_4">
      <!-- 20 -->
      <g transform="translate(178.353125 161.497656)scale(0.1 -0.1)">
       <defs>
        <path d="M 1228 531 
L 3431 531 
L 3431 0 
L 469 0 
L 469 531 
Q 828 903 1448 1529 
Q 2069 2156 2228 2338 
Q 2531 2678 2651 2914 
Q 2772 3150 2772 3378 
Q 2772 3750 2511 3984 
Q 2250 4219 1831 4219 
Q 1534 4219 1204 4116 
Q 875 4013 500 3803 
L 500 4441 
Q 881 4594 1212 4672 
Q 1544 4750 1819 4750 
Q 2544 4750 2975 4387 
Q 3406 4025 3406 3419 
Q 3406 3131 3298 2873 
Q 3191 2616 2906 2266 
Q 2828 2175 2409 1742 
Q 1991 1309 1228 531 
z
" id="DejaVuSans-32" transform="scale(0.015625)"/>
       </defs>
       <use xlink:href="#DejaVuSans-32"/>
       <use x="63.623047" xlink:href="#DejaVuSans-30"/>
      </g>
     </g>
    </g>
    <g id="xtick_5">
     <g id="line2d_9">
      <path clip-path="url(#pe40a35e70b)" d="M 225.403125 146.899219 
L 225.403125 10.999219 
" style="fill:none;stroke:#b0b0b0;stroke-linecap:square;stroke-width:0.8;"/>
     </g>
     <g id="line2d_10">
      <g>
       <use style="stroke:#000000;stroke-width:0.8;" x="225.403125" xlink:href="#mec0d7d4360" y="146.899219"/>
      </g>
     </g>
     <g id="text_5">
      <!-- 25 -->
      <g transform="translate(219.040625 161.497656)scale(0.1 -0.1)">
       <use xlink:href="#DejaVuSans-32"/>
       <use x="63.623047" xlink:href="#DejaVuSans-35"/>
      </g>
     </g>
    </g>
    <g id="text_6">
     <!-- epoch -->
     <g transform="translate(112.525 175.175781)scale(0.1 -0.1)">
      <defs>
       <path d="M 3597 1894 
L 3597 1613 
L 953 1613 
Q 991 1019 1311 708 
Q 1631 397 2203 397 
Q 2534 397 2845 478 
Q 3156 559 3463 722 
L 3463 178 
Q 3153 47 2828 -22 
Q 2503 -91 2169 -91 
Q 1331 -91 842 396 
Q 353 884 353 1716 
Q 353 2575 817 3079 
Q 1281 3584 2069 3584 
Q 2775 3584 3186 3129 
Q 3597 2675 3597 1894 
z
M 3022 2063 
Q 3016 2534 2758 2815 
Q 2500 3097 2075 3097 
Q 1594 3097 1305 2825 
Q 1016 2553 972 2059 
L 3022 2063 
z
" id="DejaVuSans-65" transform="scale(0.015625)"/>
       <path d="M 1159 525 
L 1159 -1331 
L 581 -1331 
L 581 3500 
L 1159 3500 
L 1159 2969 
Q 1341 3281 1617 3432 
Q 1894 3584 2278 3584 
Q 2916 3584 3314 3078 
Q 3713 2572 3713 1747 
Q 3713 922 3314 415 
Q 2916 -91 2278 -91 
Q 1894 -91 1617 61 
Q 1341 213 1159 525 
z
M 3116 1747 
Q 3116 2381 2855 2742 
Q 2594 3103 2138 3103 
Q 1681 3103 1420 2742 
Q 1159 2381 1159 1747 
Q 1159 1113 1420 752 
Q 1681 391 2138 391 
Q 2594 391 2855 752 
Q 3116 1113 3116 1747 
z
" id="DejaVuSans-70" transform="scale(0.015625)"/>
       <path d="M 1959 3097 
Q 1497 3097 1228 2736 
Q 959 2375 959 1747 
Q 959 1119 1226 758 
Q 1494 397 1959 397 
Q 2419 397 2687 759 
Q 2956 1122 2956 1747 
Q 2956 2369 2687 2733 
Q 2419 3097 1959 3097 
z
M 1959 3584 
Q 2709 3584 3137 3096 
Q 3566 2609 3566 1747 
Q 3566 888 3137 398 
Q 2709 -91 1959 -91 
Q 1206 -91 779 398 
Q 353 888 353 1747 
Q 353 2609 779 3096 
Q 1206 3584 1959 3584 
z
" id="DejaVuSans-6f" transform="scale(0.015625)"/>
       <path d="M 3122 3366 
L 3122 2828 
Q 2878 2963 2633 3030 
Q 2388 3097 2138 3097 
Q 1578 3097 1268 2742 
Q 959 2388 959 1747 
Q 959 1106 1268 751 
Q 1578 397 2138 397 
Q 2388 397 2633 464 
Q 2878 531 3122 666 
L 3122 134 
Q 2881 22 2623 -34 
Q 2366 -91 2075 -91 
Q 1284 -91 818 406 
Q 353 903 353 1747 
Q 353 2603 823 3093 
Q 1294 3584 2113 3584 
Q 2378 3584 2631 3529 
Q 2884 3475 3122 3366 
z
" id="DejaVuSans-63" transform="scale(0.015625)"/>
       <path d="M 3513 2113 
L 3513 0 
L 2938 0 
L 2938 2094 
Q 2938 2591 2744 2837 
Q 2550 3084 2163 3084 
Q 1697 3084 1428 2787 
Q 1159 2491 1159 1978 
L 1159 0 
L 581 0 
L 581 4863 
L 1159 4863 
L 1159 2956 
Q 1366 3272 1645 3428 
Q 1925 3584 2291 3584 
Q 2894 3584 3203 3211 
Q 3513 2838 3513 2113 
z
" id="DejaVuSans-68" transform="scale(0.015625)"/>
      </defs>
      <use xlink:href="#DejaVuSans-65"/>
      <use x="61.523438" xlink:href="#DejaVuSans-70"/>
      <use x="125" xlink:href="#DejaVuSans-6f"/>
      <use x="186.181641" xlink:href="#DejaVuSans-63"/>
      <use x="241.162109" xlink:href="#DejaVuSans-68"/>
     </g>
    </g>
   </g>
   <g id="matplotlib.axis_2">
    <g id="ytick_1">
     <g id="line2d_11">
      <path clip-path="url(#pe40a35e70b)" d="M 30.103125 146.899219 
L 225.403125 146.899219 
" style="fill:none;stroke:#b0b0b0;stroke-linecap:square;stroke-width:0.8;"/>
     </g>
     <g id="line2d_12">
      <defs>
       <path d="M 0 0 
L -3.5 0 
" id="mc53996efd4" style="stroke:#000000;stroke-width:0.8;"/>
      </defs>
      <g>
       <use style="stroke:#000000;stroke-width:0.8;" x="30.103125" xlink:href="#mc53996efd4" y="146.899219"/>
      </g>
     </g>
     <g id="text_7">
      <!-- 0.0 -->
      <g transform="translate(7.2 150.698437)scale(0.1 -0.1)">
       <defs>
        <path d="M 684 794 
L 1344 794 
L 1344 0 
L 684 0 
L 684 794 
z
" id="DejaVuSans-2e" transform="scale(0.015625)"/>
       </defs>
       <use xlink:href="#DejaVuSans-30"/>
       <use x="63.623047" xlink:href="#DejaVuSans-2e"/>
       <use x="95.410156" xlink:href="#DejaVuSans-30"/>
      </g>
     </g>
    </g>
    <g id="ytick_2">
     <g id="line2d_13">
      <path clip-path="url(#pe40a35e70b)" d="M 30.103125 119.719219 
L 225.403125 119.719219 
" style="fill:none;stroke:#b0b0b0;stroke-linecap:square;stroke-width:0.8;"/>
     </g>
     <g id="line2d_14">
      <g>
       <use style="stroke:#000000;stroke-width:0.8;" x="30.103125" xlink:href="#mc53996efd4" y="119.719219"/>
      </g>
     </g>
     <g id="text_8">
      <!-- 0.2 -->
      <g transform="translate(7.2 123.518437)scale(0.1 -0.1)">
       <use xlink:href="#DejaVuSans-30"/>
       <use x="63.623047" xlink:href="#DejaVuSans-2e"/>
       <use x="95.410156" xlink:href="#DejaVuSans-32"/>
      </g>
     </g>
    </g>
    <g id="ytick_3">
     <g id="line2d_15">
      <path clip-path="url(#pe40a35e70b)" d="M 30.103125 92.539219 
L 225.403125 92.539219 
" style="fill:none;stroke:#b0b0b0;stroke-linecap:square;stroke-width:0.8;"/>
     </g>
     <g id="line2d_16">
      <g>
       <use style="stroke:#000000;stroke-width:0.8;" x="30.103125" xlink:href="#mc53996efd4" y="92.539219"/>
      </g>
     </g>
     <g id="text_9">
      <!-- 0.4 -->
      <g transform="translate(7.2 96.338437)scale(0.1 -0.1)">
       <defs>
        <path d="M 2419 4116 
L 825 1625 
L 2419 1625 
L 2419 4116 
z
M 2253 4666 
L 3047 4666 
L 3047 1625 
L 3713 1625 
L 3713 1100 
L 3047 1100 
L 3047 0 
L 2419 0 
L 2419 1100 
L 313 1100 
L 313 1709 
L 2253 4666 
z
" id="DejaVuSans-34" transform="scale(0.015625)"/>
       </defs>
       <use xlink:href="#DejaVuSans-30"/>
       <use x="63.623047" xlink:href="#DejaVuSans-2e"/>
       <use x="95.410156" xlink:href="#DejaVuSans-34"/>
      </g>
     </g>
    </g>
    <g id="ytick_4">
     <g id="line2d_17">
      <path clip-path="url(#pe40a35e70b)" d="M 30.103125 65.359219 
L 225.403125 65.359219 
" style="fill:none;stroke:#b0b0b0;stroke-linecap:square;stroke-width:0.8;"/>
     </g>
     <g id="line2d_18">
      <g>
       <use style="stroke:#000000;stroke-width:0.8;" x="30.103125" xlink:href="#mc53996efd4" y="65.359219"/>
      </g>
     </g>
     <g id="text_10">
      <!-- 0.6 -->
      <g transform="translate(7.2 69.158437)scale(0.1 -0.1)">
       <defs>
        <path d="M 2113 2584 
Q 1688 2584 1439 2293 
Q 1191 2003 1191 1497 
Q 1191 994 1439 701 
Q 1688 409 2113 409 
Q 2538 409 2786 701 
Q 3034 994 3034 1497 
Q 3034 2003 2786 2293 
Q 2538 2584 2113 2584 
z
M 3366 4563 
L 3366 3988 
Q 3128 4100 2886 4159 
Q 2644 4219 2406 4219 
Q 1781 4219 1451 3797 
Q 1122 3375 1075 2522 
Q 1259 2794 1537 2939 
Q 1816 3084 2150 3084 
Q 2853 3084 3261 2657 
Q 3669 2231 3669 1497 
Q 3669 778 3244 343 
Q 2819 -91 2113 -91 
Q 1303 -91 875 529 
Q 447 1150 447 2328 
Q 447 3434 972 4092 
Q 1497 4750 2381 4750 
Q 2619 4750 2861 4703 
Q 3103 4656 3366 4563 
z
" id="DejaVuSans-36" transform="scale(0.015625)"/>
       </defs>
       <use xlink:href="#DejaVuSans-30"/>
       <use x="63.623047" xlink:href="#DejaVuSans-2e"/>
       <use x="95.410156" xlink:href="#DejaVuSans-36"/>
      </g>
     </g>
    </g>
    <g id="ytick_5">
     <g id="line2d_19">
      <path clip-path="url(#pe40a35e70b)" d="M 30.103125 38.179219 
L 225.403125 38.179219 
" style="fill:none;stroke:#b0b0b0;stroke-linecap:square;stroke-width:0.8;"/>
     </g>
     <g id="line2d_20">
      <g>
       <use style="stroke:#000000;stroke-width:0.8;" x="30.103125" xlink:href="#mc53996efd4" y="38.179219"/>
      </g>
     </g>
     <g id="text_11">
      <!-- 0.8 -->
      <g transform="translate(7.2 41.978437)scale(0.1 -0.1)">
       <defs>
        <path d="M 2034 2216 
Q 1584 2216 1326 1975 
Q 1069 1734 1069 1313 
Q 1069 891 1326 650 
Q 1584 409 2034 409 
Q 2484 409 2743 651 
Q 3003 894 3003 1313 
Q 3003 1734 2745 1975 
Q 2488 2216 2034 2216 
z
M 1403 2484 
Q 997 2584 770 2862 
Q 544 3141 544 3541 
Q 544 4100 942 4425 
Q 1341 4750 2034 4750 
Q 2731 4750 3128 4425 
Q 3525 4100 3525 3541 
Q 3525 3141 3298 2862 
Q 3072 2584 2669 2484 
Q 3125 2378 3379 2068 
Q 3634 1759 3634 1313 
Q 3634 634 3220 271 
Q 2806 -91 2034 -91 
Q 1263 -91 848 271 
Q 434 634 434 1313 
Q 434 1759 690 2068 
Q 947 2378 1403 2484 
z
M 1172 3481 
Q 1172 3119 1398 2916 
Q 1625 2713 2034 2713 
Q 2441 2713 2670 2916 
Q 2900 3119 2900 3481 
Q 2900 3844 2670 4047 
Q 2441 4250 2034 4250 
Q 1625 4250 1398 4047 
Q 1172 3844 1172 3481 
z
" id="DejaVuSans-38" transform="scale(0.015625)"/>
       </defs>
       <use xlink:href="#DejaVuSans-30"/>
       <use x="63.623047" xlink:href="#DejaVuSans-2e"/>
       <use x="95.410156" xlink:href="#DejaVuSans-38"/>
      </g>
     </g>
    </g>
    <g id="ytick_6">
     <g id="line2d_21">
      <path clip-path="url(#pe40a35e70b)" d="M 30.103125 10.999219 
L 225.403125 10.999219 
" style="fill:none;stroke:#b0b0b0;stroke-linecap:square;stroke-width:0.8;"/>
     </g>
     <g id="line2d_22">
      <g>
       <use style="stroke:#000000;stroke-width:0.8;" x="30.103125" xlink:href="#mc53996efd4" y="10.999219"/>
      </g>
     </g>
     <g id="text_12">
      <!-- 1.0 -->
      <g transform="translate(7.2 14.798437)scale(0.1 -0.1)">
       <use xlink:href="#DejaVuSans-31"/>
       <use x="63.623047" xlink:href="#DejaVuSans-2e"/>
       <use x="95.410156" xlink:href="#DejaVuSans-30"/>
      </g>
     </g>
    </g>
   </g>
   <g id="line2d_23">
    <path clip-path="url(#pe40a35e70b)" d="M 23.566445 48.721881 
L 25.167264 61.171676 
L 26.768084 62.404447 
L 28.368904 65.611029 
L 29.969723 69.101531 
L 31.703945 77.931959 
L 33.304764 80.183379 
L 34.905584 80.917278 
L 36.506404 85.555274 
L 38.107223 85.375203 
L 38.240625 85.502489 
L 39.841445 82.071889 
L 41.442264 81.605582 
L 43.043084 86.061635 
L 44.643904 83.094233 
L 46.244723 88.691473 
L 46.378125 86.953082 
L 47.978945 115.727604 
L 49.579764 105.824874 
L 51.180584 104.029056 
L 52.781404 93.063072 
L 54.382223 96.956178 
L 54.515625 94.750292 
L 56.116445 91.326804 
L 57.717264 106.462625 
L 59.318084 101.943489 
L 60.918904 103.895869 
L 62.519723 101.916192 
L 62.653125 102.426685 
L 64.253945 100.512107 
L 65.854764 108.146383 
L 67.455584 106.380516 
L 69.056404 107.709613 
L 70.657223 105.268803 
L 70.790625 105.894272 
L 72.391445 91.366773 
L 73.992264 86.042586 
L 75.593084 87.245242 
L 77.193904 79.17728 
L 78.794723 84.039582 
L 78.928125 79.846029 
L 80.528945 94.250118 
L 82.129764 97.754918 
L 83.730584 106.37205 
L 85.331404 110.124893 
L 86.932223 99.774384 
L 87.065625 100.442937 
L 90.267264 80.683087 
L 91.868084 85.428401 
L 95.069723 94.101423 
L 95.203125 94.838476 
L 96.803945 89.590545 
L 98.404764 108.253462 
L 100.005584 105.400753 
L 101.606404 105.314119 
L 103.207223 107.165755 
L 103.340625 107.710926 
L 104.941445 133.053069 
L 106.542264 128.938122 
L 108.143084 100.493727 
L 109.743904 105.205513 
L 111.344723 100.18303 
L 111.478125 100.734114 
L 113.078945 94.846889 
L 114.679764 101.365703 
L 116.280584 105.12804 
L 117.881404 105.54543 
L 119.482223 108.152013 
L 121.216445 116.027212 
L 122.817264 118.15316 
L 124.418084 109.639756 
L 126.018904 104.378 
L 127.619723 100.182999 
L 127.753125 100.728241 
L 129.353945 122.19559 
L 130.954764 116.981574 
L 132.555584 106.020241 
L 134.156404 111.084972 
L 135.757223 105.925623 
L 135.890625 106.530379 
L 137.491445 106.900658 
L 139.092264 100.034716 
L 140.693084 109.399677 
L 144.028125 113.770656 
L 145.628945 97.713707 
L 148.830584 93.216592 
L 150.431404 96.976245 
L 152.032223 99.314552 
L 152.165625 100.003653 
L 153.766445 55.998168 
L 155.367264 77.535412 
L 156.968084 83.562638 
L 158.568904 81.876074 
L 160.169723 81.985098 
L 160.303125 82.850849 
L 161.903945 128.725641 
L 163.504764 111.483706 
L 165.105584 98.095084 
L 166.706404 102.163758 
L 168.307223 105.793454 
L 168.440625 102.614804 
L 170.041445 79.562003 
L 171.642264 89.373888 
L 173.243084 100.157556 
L 174.843904 99.250939 
L 176.444723 98.945395 
L 176.578125 99.2795 
L 178.178945 108.96334 
L 179.779764 102.14444 
L 181.380584 105.709191 
L 182.981404 103.289386 
L 184.582223 104.100895 
L 184.715625 104.655377 
L 186.316445 73.907406 
L 187.917264 84.483798 
L 189.518084 81.485292 
L 191.118904 85.624975 
L 192.853125 92.077106 
L 194.453945 92.698569 
L 196.054764 111.46286 
L 197.655584 113.752952 
L 199.256404 111.129475 
L 200.857223 112.841414 
L 200.990625 113.322513 
L 202.591445 129.363274 
L 204.192264 115.06802 
L 205.793084 117.562005 
L 207.393904 119.534474 
L 208.994723 119.820233 
L 209.128125 118.805672 
L 210.728945 122.56463 
L 212.329764 114.260865 
L 215.531404 102.627037 
L 217.132223 103.485691 
L 217.265625 101.689448 
L 218.866445 93.774077 
L 220.467264 86.633652 
L 223.668904 101.537227 
L 225.269723 101.115519 
L 225.403125 101.595535 
L 225.403125 101.595535 
" style="fill:none;stroke:#1f77b4;stroke-linecap:square;stroke-width:1.5;"/>
   </g>
   <g id="line2d_24">
    <path clip-path="url(#pe40a35e70b)" d="M 23.566445 78.949219 
L 25.167264 59.130469 
L 26.768084 57.242969 
L 29.969723 52.335469 
L 30.103125 51.657825 
L 31.703945 44.974219 
L 33.304764 44.974219 
L 34.905584 44.030469 
L 36.506404 40.019531 
L 38.240625 39.961514 
L 39.841445 39.311719 
L 41.442264 43.558594 
L 43.043084 40.255469 
L 44.643904 42.142969 
L 46.244723 39.877969 
L 46.378125 40.518481 
L 47.978945 19.492969 
L 49.579764 26.571094 
L 51.180584 28.930469 
L 52.781404 33.649219 
L 54.382223 31.950469 
L 54.515625 32.72094 
L 56.116445 33.649219 
L 57.717264 26.571094 
L 59.318084 30.817969 
L 60.918904 30.110156 
L 62.519723 31.384219 
L 62.653125 31.050038 
L 64.253945 33.649219 
L 65.854764 26.571094 
L 70.657223 30.817969 
L 70.790625 30.493071 
L 72.391445 30.817969 
L 73.992264 36.480469 
L 75.593084 37.424219 
L 77.193904 40.019531 
L 78.794723 37.612969 
L 78.928125 39.404547 
L 80.528945 30.817969 
L 83.730584 25.155469 
L 85.331404 24.447656 
L 86.932223 27.986719 
L 87.065625 27.708235 
L 88.666445 36.480469 
L 90.267264 39.311719 
L 91.868084 38.367969 
L 93.468904 36.480469 
L 95.069723 34.781719 
L 95.203125 34.391842 
L 96.803945 36.480469 
L 98.404764 26.571094 
L 100.005584 27.042969 
L 101.606404 26.571094 
L 103.207223 26.287969 
L 103.340625 26.037334 
L 104.941445 10.999219 
L 106.542264 15.246094 
L 108.143084 28.930469 
L 109.743904 26.571094 
L 111.344723 29.685469 
L 111.478125 29.379137 
L 113.078945 30.817969 
L 114.679764 27.986719 
L 116.280584 27.042969 
L 117.881404 27.278906 
L 119.482223 26.287969 
L 119.615625 26.037334 
L 121.216445 25.155469 
L 122.817264 23.739844 
L 124.418084 25.155469 
L 126.018904 28.694531 
L 127.619723 30.817969 
L 127.753125 30.493071 
L 129.353945 22.324219 
L 130.954764 22.324219 
L 132.555584 25.155469 
L 134.156404 22.324219 
L 135.757223 24.589219 
L 135.890625 24.366432 
L 137.491445 27.986719 
L 139.092264 30.817969 
L 140.693084 27.042969 
L 142.293904 26.571094 
L 143.894723 26.854219 
L 144.028125 26.594301 
L 145.628945 39.311719 
L 147.229764 35.064844 
L 148.830584 34.592969 
L 150.431404 32.233594 
L 152.032223 31.384219 
L 152.165625 31.050038 
L 153.766445 53.467969 
L 155.367264 40.727344 
L 156.968084 38.367969 
L 158.568904 37.188281 
L 160.169723 37.612969 
L 160.303125 37.176678 
L 161.903945 13.830469 
L 163.504764 22.324219 
L 165.105584 27.042969 
L 166.706404 27.278906 
L 168.307223 26.854219 
L 168.440625 27.708235 
L 170.041445 42.142969 
L 171.642264 35.064844 
L 173.243084 31.761719 
L 174.843904 30.110156 
L 176.444723 30.251719 
L 176.578125 29.936104 
L 178.178945 25.155469 
L 179.779764 30.817969 
L 181.380584 27.986719 
L 182.981404 30.110156 
L 184.582223 30.251719 
L 184.715625 29.936104 
L 186.316445 33.649219 
L 187.917264 36.480469 
L 189.518084 37.424219 
L 191.118904 35.064844 
L 192.853125 31.607006 
L 194.453945 42.142969 
L 196.054764 30.817969 
L 197.655584 28.930469 
L 199.256404 29.402344 
L 200.857223 27.986719 
L 200.990625 27.708235 
L 202.591445 16.661719 
L 204.192264 20.908594 
L 205.793084 20.436719 
L 207.393904 19.492969 
L 208.994723 21.191719 
L 209.128125 21.581596 
L 210.728945 25.155469 
L 212.329764 25.155469 
L 213.930584 27.042969 
L 215.531404 29.402344 
L 217.132223 29.119219 
L 217.265625 29.379137 
L 218.866445 33.649219 
L 220.467264 36.480469 
L 222.068084 32.705469 
L 223.668904 30.110156 
L 225.269723 29.685469 
L 225.403125 29.379137 
L 225.403125 29.379137 
" style="fill:none;stroke:#bf00bf;stroke-dasharray:5.55,2.4;stroke-dashoffset:0;stroke-width:1.5;"/>
   </g>
   <g id="line2d_25">
    <path clip-path="url(#pe40a35e70b)" d="M 30.103125 33.205101 
L 38.240625 31.428631 
L 46.378125 18.993336 
L 54.515625 26.099219 
L 62.653125 16.328631 
L 70.790625 20.769807 
L 78.928125 18.993336 
L 87.065625 15.440395 
L 95.203125 19.881572 
L 103.340625 18.105101 
L 111.478125 25.210983 
L 119.615625 20.769807 
L 127.753125 16.328631 
L 135.890625 19.881572 
L 144.028125 16.328631 
L 152.165625 18.993336 
L 160.303125 18.105101 
L 168.440625 17.216866 
L 176.578125 19.881572 
L 184.715625 18.993336 
L 192.853125 21.658042 
L 200.990625 17.216866 
L 209.128125 17.216866 
L 217.265625 24.322748 
L 225.403125 21.658042 
" style="fill:none;stroke:#008000;stroke-dasharray:9.6,2.4,1.5,2.4;stroke-dashoffset:0;stroke-width:1.5;"/>
   </g>
   <g id="patch_3">
    <path d="M 30.103125 146.899219 
L 30.103125 10.999219 
" style="fill:none;stroke:#000000;stroke-linecap:square;stroke-linejoin:miter;stroke-width:0.8;"/>
   </g>
   <g id="patch_4">
    <path d="M 225.403125 146.899219 
L 225.403125 10.999219 
" style="fill:none;stroke:#000000;stroke-linecap:square;stroke-linejoin:miter;stroke-width:0.8;"/>
   </g>
   <g id="patch_5">
    <path d="M 30.103125 146.899219 
L 225.403125 146.899219 
" style="fill:none;stroke:#000000;stroke-linecap:square;stroke-linejoin:miter;stroke-width:0.8;"/>
   </g>
   <g id="patch_6">
    <path d="M 30.103125 10.999219 
L 225.403125 10.999219 
" style="fill:none;stroke:#000000;stroke-linecap:square;stroke-linejoin:miter;stroke-width:0.8;"/>
   </g>
   <g id="legend_1">
    <g id="patch_7">
     <path d="M 140.634375 102.466406 
L 218.403125 102.466406 
Q 220.403125 102.466406 220.403125 100.466406 
L 220.403125 57.432031 
Q 220.403125 55.432031 218.403125 55.432031 
L 140.634375 55.432031 
Q 138.634375 55.432031 138.634375 57.432031 
L 138.634375 100.466406 
Q 138.634375 102.466406 140.634375 102.466406 
z
" style="fill:#ffffff;opacity:0.8;stroke:#cccccc;stroke-linejoin:miter;"/>
    </g>
    <g id="line2d_26">
     <path d="M 142.634375 63.530469 
L 162.634375 63.530469 
" style="fill:none;stroke:#1f77b4;stroke-linecap:square;stroke-width:1.5;"/>
    </g>
    <g id="line2d_27"/>
    <g id="text_13">
     <!-- train loss -->
     <g transform="translate(170.634375 67.030469)scale(0.1 -0.1)">
      <defs>
       <path d="M 1172 4494 
L 1172 3500 
L 2356 3500 
L 2356 3053 
L 1172 3053 
L 1172 1153 
Q 1172 725 1289 603 
Q 1406 481 1766 481 
L 2356 481 
L 2356 0 
L 1766 0 
Q 1100 0 847 248 
Q 594 497 594 1153 
L 594 3053 
L 172 3053 
L 172 3500 
L 594 3500 
L 594 4494 
L 1172 4494 
z
" id="DejaVuSans-74" transform="scale(0.015625)"/>
       <path d="M 2631 2963 
Q 2534 3019 2420 3045 
Q 2306 3072 2169 3072 
Q 1681 3072 1420 2755 
Q 1159 2438 1159 1844 
L 1159 0 
L 581 0 
L 581 3500 
L 1159 3500 
L 1159 2956 
Q 1341 3275 1631 3429 
Q 1922 3584 2338 3584 
Q 2397 3584 2469 3576 
Q 2541 3569 2628 3553 
L 2631 2963 
z
" id="DejaVuSans-72" transform="scale(0.015625)"/>
       <path d="M 2194 1759 
Q 1497 1759 1228 1600 
Q 959 1441 959 1056 
Q 959 750 1161 570 
Q 1363 391 1709 391 
Q 2188 391 2477 730 
Q 2766 1069 2766 1631 
L 2766 1759 
L 2194 1759 
z
M 3341 1997 
L 3341 0 
L 2766 0 
L 2766 531 
Q 2569 213 2275 61 
Q 1981 -91 1556 -91 
Q 1019 -91 701 211 
Q 384 513 384 1019 
Q 384 1609 779 1909 
Q 1175 2209 1959 2209 
L 2766 2209 
L 2766 2266 
Q 2766 2663 2505 2880 
Q 2244 3097 1772 3097 
Q 1472 3097 1187 3025 
Q 903 2953 641 2809 
L 641 3341 
Q 956 3463 1253 3523 
Q 1550 3584 1831 3584 
Q 2591 3584 2966 3190 
Q 3341 2797 3341 1997 
z
" id="DejaVuSans-61" transform="scale(0.015625)"/>
       <path d="M 603 3500 
L 1178 3500 
L 1178 0 
L 603 0 
L 603 3500 
z
M 603 4863 
L 1178 4863 
L 1178 4134 
L 603 4134 
L 603 4863 
z
" id="DejaVuSans-69" transform="scale(0.015625)"/>
       <path d="M 3513 2113 
L 3513 0 
L 2938 0 
L 2938 2094 
Q 2938 2591 2744 2837 
Q 2550 3084 2163 3084 
Q 1697 3084 1428 2787 
Q 1159 2491 1159 1978 
L 1159 0 
L 581 0 
L 581 3500 
L 1159 3500 
L 1159 2956 
Q 1366 3272 1645 3428 
Q 1925 3584 2291 3584 
Q 2894 3584 3203 3211 
Q 3513 2838 3513 2113 
z
" id="DejaVuSans-6e" transform="scale(0.015625)"/>
       <path id="DejaVuSans-20" transform="scale(0.015625)"/>
       <path d="M 603 4863 
L 1178 4863 
L 1178 0 
L 603 0 
L 603 4863 
z
" id="DejaVuSans-6c" transform="scale(0.015625)"/>
       <path d="M 2834 3397 
L 2834 2853 
Q 2591 2978 2328 3040 
Q 2066 3103 1784 3103 
Q 1356 3103 1142 2972 
Q 928 2841 928 2578 
Q 928 2378 1081 2264 
Q 1234 2150 1697 2047 
L 1894 2003 
Q 2506 1872 2764 1633 
Q 3022 1394 3022 966 
Q 3022 478 2636 193 
Q 2250 -91 1575 -91 
Q 1294 -91 989 -36 
Q 684 19 347 128 
L 347 722 
Q 666 556 975 473 
Q 1284 391 1588 391 
Q 1994 391 2212 530 
Q 2431 669 2431 922 
Q 2431 1156 2273 1281 
Q 2116 1406 1581 1522 
L 1381 1569 
Q 847 1681 609 1914 
Q 372 2147 372 2553 
Q 372 3047 722 3315 
Q 1072 3584 1716 3584 
Q 2034 3584 2315 3537 
Q 2597 3491 2834 3397 
z
" id="DejaVuSans-73" transform="scale(0.015625)"/>
      </defs>
      <use xlink:href="#DejaVuSans-74"/>
      <use x="39.208984" xlink:href="#DejaVuSans-72"/>
      <use x="80.322266" xlink:href="#DejaVuSans-61"/>
      <use x="141.601562" xlink:href="#DejaVuSans-69"/>
      <use x="169.384766" xlink:href="#DejaVuSans-6e"/>
      <use x="232.763672" xlink:href="#DejaVuSans-20"/>
      <use x="264.550781" xlink:href="#DejaVuSans-6c"/>
      <use x="292.333984" xlink:href="#DejaVuSans-6f"/>
      <use x="353.515625" xlink:href="#DejaVuSans-73"/>
      <use x="405.615234" xlink:href="#DejaVuSans-73"/>
     </g>
    </g>
    <g id="line2d_28">
     <path d="M 142.634375 78.208594 
L 162.634375 78.208594 
" style="fill:none;stroke:#bf00bf;stroke-dasharray:5.55,2.4;stroke-dashoffset:0;stroke-width:1.5;"/>
    </g>
    <g id="line2d_29"/>
    <g id="text_14">
     <!-- train acc -->
     <g transform="translate(170.634375 81.708594)scale(0.1 -0.1)">
      <use xlink:href="#DejaVuSans-74"/>
      <use x="39.208984" xlink:href="#DejaVuSans-72"/>
      <use x="80.322266" xlink:href="#DejaVuSans-61"/>
      <use x="141.601562" xlink:href="#DejaVuSans-69"/>
      <use x="169.384766" xlink:href="#DejaVuSans-6e"/>
      <use x="232.763672" xlink:href="#DejaVuSans-20"/>
      <use x="264.550781" xlink:href="#DejaVuSans-61"/>
      <use x="325.830078" xlink:href="#DejaVuSans-63"/>
      <use x="380.810547" xlink:href="#DejaVuSans-63"/>
     </g>
    </g>
    <g id="line2d_30">
     <path d="M 142.634375 92.886719 
L 162.634375 92.886719 
" style="fill:none;stroke:#008000;stroke-dasharray:9.6,2.4,1.5,2.4;stroke-dashoffset:0;stroke-width:1.5;"/>
    </g>
    <g id="line2d_31"/>
    <g id="text_15">
     <!-- test acc -->
     <g transform="translate(170.634375 96.386719)scale(0.1 -0.1)">
      <use xlink:href="#DejaVuSans-74"/>
      <use x="39.208984" xlink:href="#DejaVuSans-65"/>
      <use x="100.732422" xlink:href="#DejaVuSans-73"/>
      <use x="152.832031" xlink:href="#DejaVuSans-74"/>
      <use x="192.041016" xlink:href="#DejaVuSans-20"/>
      <use x="223.828125" xlink:href="#DejaVuSans-61"/>
      <use x="285.107422" xlink:href="#DejaVuSans-63"/>
      <use x="340.087891" xlink:href="#DejaVuSans-63"/>
     </g>
    </g>
   </g>
  </g>
 </g>
 <defs>
  <clipPath id="pe40a35e70b">
   <rect height="135.9" width="195.3" x="30.103125" y="10.999219"/>
  </clipPath>
 </defs>
</svg>